<?xml version="1.0" standalone="no"?>
<!DOCTYPE svg PUBLIC "-//W3C//DTD SVG 1.1//EN" "http://www.w3.org/Graphics/SVG/1.1/DTD/svg11.dtd" >
<svg xmlns="http://www.w3.org/2000/svg" xmlns:xlink="http://www.w3.org/1999/xlink" version="1.1">
<metadata>
Created by FontForge 20201107 at Sun Oct 10 21:04:06 2021
 By 
(c) 1985, 1987, 1990, 1994, 2001, 2002 Adobe Systems Incorporated. All rights reserved.
</metadata>
<defs>
<font id="NewBaskervilleStd-Bold" horiz-adv-x="1251" >
  <font-face 
    font-family="ITC New Baskerville Std"
    font-weight="700"
    font-stretch="normal"
    units-per-em="2048"
    panose-1="2 2 8 5 6 5 6 2 3 4"
    ascent="1397"
    descent="-651"
    x-height="885"
    cap-height="1352"
    bbox="-401 -553 2435 1860"
    underline-thickness="102"
    underline-position="-307"
    unicode-range="U+0020-FB02"
  />
<missing-glyph horiz-adv-x="1024" 
d="M0 0v1434h1024v-1434h-1024zM512 809l348 522h-696zM573 717l349 -522v1044zM164 102h696l-348 523zM102 1239v-1044l349 522z" />
    <glyph glyph-name="f_i" unicode="fi" horiz-adv-x="1269" 
d="M184 846v186q0 74 19 131.5t55.5 95t81 63t104 39t116.5 18.5t126 5q163 0 239 -20q134 -35 134 -133q0 -52 -28.5 -83.5t-80.5 -31.5q-82 0 -119 98q-27 54 -62.5 71.5t-109.5 17.5q-120 0 -163 -51t-43 -175v-231h221q189 0 411 55v-649q0 -127 25 -154q29 -32 109 -37
v-65q-43 1 -128 4t-128 4q-46 -1 -137.5 -4t-137.5 -4v65q86 6 109 37q20 27 20 154v397q0 64 -22 89.5t-66 25.5h-276v-512q0 -102 9 -128q14 -44 73 -56q27 -5 65 -7v-65q-58 1 -173.5 4t-172.5 4q-36 -1 -108.5 -4t-108.5 -4v65q22 1 40 2.5t32 6t24.5 7.5t18.5 12
t13.5 14.5t9 19.5t5.5 21.5t3 27.5t1 30.5v36.5v13v512h-137v82h137z" />
    <glyph glyph-name="f_l" unicode="fl" horiz-adv-x="1187" 
d="M143 846v98q0 179 78 268q61 69 165 106.5t206 37.5q49 0 162 -17l290 45v-1132v-3v-52t2 -40.5t5.5 -33t11 -22.5t17 -18t26 -10t36 -8t48.5 -4v-65q-46 1 -137.5 4t-137.5 4q-46 -1 -138 -4t-138 -4v65q26 1 45.5 4t34 8t24.5 12.5t16.5 17.5t10 23t5 28.5t1.5 33.5v40
v24v907q-43 57 -87 86t-105 29q-28 0 -51.5 -6.5t-40.5 -17.5t-30 -27t-21.5 -34.5t-14.5 -40t-8.5 -44.5t-4.5 -46.5t-1.5 -47t0.5 -45.5v-23v-90h225v-88h-225v-512v-25v-46t2.5 -35.5t7 -30.5t13.5 -21.5t23 -17.5t34 -9.5t47 -5.5v-65q-47 1 -136 4t-131 4
q-46 -1 -138 -4t-138 -4v65q22 1 40 2.5t32 6t24.5 7.5t18.5 12t13.5 14.5t9 19.5t5.5 21.5t3 27.5t1 30.5v36.5v13v512h-137v82h137z" />
    <glyph glyph-name=".notdef" horiz-adv-x="1024" 
d="M0 0v1434h1024v-1434h-1024zM512 809l348 522h-696zM573 717l349 -522v1044zM164 102h696l-348 523zM102 1239v-1044l349 522z" />
    <glyph glyph-name=".null" horiz-adv-x="0" 
 />
    <glyph glyph-name="nonmarkingreturn" horiz-adv-x="682" 
 />
    <glyph glyph-name="space" unicode=" " horiz-adv-x="532" 
 />
    <glyph glyph-name="exclam" unicode="!" horiz-adv-x="737" 
d="M412 432h-82q0 260 -51 457l-39 153q-27 95 -27 154q0 72 44 130t112 58q71 0 114 -57.5t43 -130.5q0 -70 -24 -154l-39 -153q-51 -197 -51 -457zM369 -14q-69 0 -117.5 49.5t-48.5 118.5t48.5 116t117.5 47q68 0 117 -46.5t49 -114.5q0 -70 -48 -120t-118 -50z" />
    <glyph glyph-name="quotedbl" unicode="&#x22;" horiz-adv-x="1136" 
d="M387 731h-94l-90 490q-11 56 32.5 109.5t104.5 53.5t104.5 -53.5t32.5 -109.5zM844 731h-94l-91 490q-11 56 33 109.5t105 53.5t104.5 -53.5t32.5 -109.5z" />
    <glyph glyph-name="numbersign" unicode="#" horiz-adv-x="1064" 
d="M391 1348h150l-66 -340h258l66 340h149l-65 -340h190v-152h-219l-59 -297h194v-151h-221l-78 -408h-145l78 408h-263l-77 -408h-150l78 408h-219v151h248l59 297h-188v152h215zM707 856h-261l-57 -297h260z" />
    <glyph glyph-name="dollar" unicode="$" horiz-adv-x="1064" 
d="M485 883v387q-77 -5 -131.5 -57t-54.5 -128q0 -40 15.5 -72.5t45 -57t58 -40.5t67.5 -32zM588 512v-457q81 6 139.5 66.5t58.5 142.5q0 34 -6.5 62t-23 52t-29.5 39.5t-43 35.5t-44.5 29t-51.5 30zM485 1352v151h103v-151q51 2 115 -14t124 -45t101 -78.5t41 -106.5
q0 -44 -30 -77.5t-73 -33.5q-87 0 -114 115q-11 43 -20 66t-27 47t-46 34t-71 11v-432q9 -5 28 -15q42 -23 63.5 -34.5t59.5 -34t58.5 -38t51.5 -40.5t48 -46t38 -51t31 -59.5t17.5 -67t7.5 -77.5q0 -184 -108 -281.5t-295 -120.5v-284h-103v284q-49 4 -95.5 11t-106.5 24.5
t-104 42.5t-74.5 67.5t-30.5 96.5q0 47 31 81t77 34q57 0 84.5 -37.5t42.5 -102.5q13 -59 27 -78q12 -17 33 -30q43 -27 116 -27v502l-143 80q-57 32 -97 62.5t-73.5 71.5t-50.5 92t-17 114q0 164 108.5 265t272.5 110z" />
    <glyph glyph-name="percent" unicode="%" horiz-adv-x="1761" 
d="M1227 -47q-133 0 -217 91t-84 224q0 86 32.5 169t88 147t135.5 103.5t170 39.5q127 0 198.5 -73.5t71.5 -198.5q0 -88 -26 -175.5t-74 -161t-125 -119.5t-170 -46zM1280 35q60 0 111.5 47t82.5 116t48.5 139t17.5 124q0 30 -6 60t-18.5 59t-37 47t-57.5 18
q-48 0 -90.5 -35.5t-71.5 -90t-50.5 -118.5t-31.5 -120.5t-10 -96.5q0 -57 29.5 -103t83.5 -46zM1409 1536l-983 -1628h-109l859 1415l-5 4q-100 -51 -194 -51q-61 0 -156 27q19 -67 19 -111q0 -86 -26.5 -171.5t-74 -157.5t-123.5 -116.5t-167 -44.5q-128 0 -218 90.5
t-90 217.5q0 81 31 165t84 152t130 111t161 43q53 0 87.5 -9t74.5 -34l98 -62q42 -25 73.5 -34t80.5 -9q206 0 372 203h76zM504 784q56 0 106.5 46t81 112t48.5 134t18 118q0 31 -5.5 63t-17.5 65.5t-36.5 55t-57.5 21.5q-59 0 -110.5 -52.5t-82 -128t-48 -150t-17.5 -128.5
q0 -60 32 -108t89 -48z" />
    <glyph glyph-name="ampersand" unicode="&#x26;" horiz-adv-x="1638" 
d="M659 877l25 -35q113 113 113 272q0 69 -38 122.5t-104 53.5q-55 0 -90 -42t-35 -97q0 -47 23 -102t43.5 -85t62.5 -87zM735 774l260 -315l127 188q134 203 308 203q76 0 129 -49.5t53 -124.5q0 -64 -44 -113t-108 -49q-57 0 -95 32.5t-42 88.5q0 23 -7 34t-28 11
q-5 0 -10.5 -1.5t-9.5 -3.5t-9.5 -6t-8.5 -6.5t-8.5 -8.5t-7.5 -9t-7.5 -10t-6.5 -9t-6 -9.5t-6 -8.5l-145 -219q45 -49 78 -81.5t79 -70t92 -56.5t91 -19q22 0 41 4.5t38 17t28.5 20t32 28.5t30.5 28l61 -57l-2 -4q-92 -103 -131 -137q-109 -88 -244 -89q-66 0 -119.5 13
t-103 44t-83.5 60t-89 82q-202 -199 -444 -199q-125 0 -224.5 78t-99.5 199q0 74 30 140.5t84.5 121.5t107 93.5t122.5 80.5q-58 95 -88.5 176t-30.5 170q0 152 101 252t254 100q119 0 210 -72.5t91 -189.5q0 -113 -64 -195t-176 -153zM795 236l-308 376q-41 -40 -63 -65
t-43 -67.5t-21 -86.5q0 -96 70.5 -175t165.5 -79q98 0 199 97z" />
    <glyph glyph-name="quotesingle" unicode="'" horiz-adv-x="569" 
d="M332 731h-94l-91 490q-11 56 33 109.5t105 53.5t104.5 -53.5t32.5 -109.5z" />
    <glyph glyph-name="parenleft" unicode="(" horiz-adv-x="778" 
d="M700 -358l-45 -37l-10 10q-90 92 -149.5 159.5t-121 155t-96.5 169.5t-57 186t-22 221q0 135 31.5 256t93.5 229.5t135 199t176 193.5l47 -43q-145 -172 -202.5 -373.5t-57.5 -453.5q0 -543 278 -872z" />
    <glyph glyph-name="parenright" unicode=")" horiz-adv-x="778" 
d="M78 1346l45 38l10 -10q91 -92 151 -159.5t121.5 -155t96.5 -169.5t57.5 -186.5t22.5 -222.5q0 -134 -31.5 -255t-94.5 -229.5t-135.5 -198t-175.5 -193.5l-49 41q145 173 203.5 375t58.5 454q0 542 -280 871z" />
    <glyph glyph-name="asterisk" unicode="*" horiz-adv-x="1064" 
d="M352 1137q97 -144 150 -144q12 0 12 25q0 52 -20 99.5t-40 86.5t-20 70q0 43 27.5 76.5t68.5 33.5q42 0 69.5 -33t27.5 -75q0 -32 -20 -71.5t-40 -87t-20 -99.5q0 -25 12 -25q31 0 72 44t69 87q17 24 24.5 34t23.5 26.5t33.5 23t39.5 6.5q37 0 69 -30t32 -66
q0 -49 -43 -80q-7 -5 -14.5 -8.5t-13 -6t-14.5 -4.5t-14 -3t-15.5 -1.5t-14 -1t-16 -1t-15.5 -0.5q-55 -2 -121 -23q-1 0 -10 -3.5t-16 -6.5t-16 -7t-14 -8.5t-5 -9.5q0 -17 57 -36q62 -23 135 -25q58 -4 103 -28.5t45 -76.5q0 -42 -28.5 -70t-70.5 -28q-26 0 -51 16.5
t-37 31.5t-33 44q-29 48 -59 76q-62 53 -80 53q-12 0 -12 -34q0 -54 19 -99.5t38 -82.5t19 -70q0 -44 -26 -73.5t-69 -29.5t-68.5 29.5t-25.5 73.5q0 34 19 70t38 82t19 104q0 30 -12 30q-11 0 -33.5 -15.5t-34.5 -27.5q-39 -35 -72 -86q-40 -56 -61 -72q-27 -20 -57 -20
q-40 0 -70.5 27.5t-30.5 66.5q0 100 150 109q62 2 121 20q69 20 69 41q0 9 -18.5 18.5t-30.5 12.5q-83 25 -133 27q-4 0 -21 1t-23.5 1.5t-19.5 2.5t-23 5.5t-19 9.5q-52 30 -52 86q0 37 31 66.5t68 29.5t61 -19t51 -58z" />
    <glyph glyph-name="plus" unicode="+" horiz-adv-x="1064" 
d="M51 406v151h406v406h151v-406h406v-151h-406v-406h-151v406h-406z" />
    <glyph glyph-name="comma" unicode="," horiz-adv-x="573" 
d="M152 -350l-31 57q110 75 146 108q92 87 98 212q-7 -4 -22 -13.5t-23 -14t-21.5 -9t-26.5 -4.5q-63 0 -107 50.5t-44 115.5q0 75 45 120t121 45q65 0 110.5 -38t64.5 -92t19 -117q0 -142 -93 -250.5t-236 -169.5z" />
    <glyph glyph-name="hyphen" unicode="-" horiz-adv-x="491" 
d="M483 350h-475v185h475v-185z" />
    <glyph glyph-name="period" unicode="." horiz-adv-x="573" 
d="M287 -14q-69 0 -117.5 49.5t-48.5 118.5t48.5 116t117.5 47q68 0 117 -46.5t49 -114.5q0 -70 -48 -120t-118 -50z" />
    <glyph glyph-name="slash" unicode="/" horiz-adv-x="1146" 
d="M1059 1384l-862 -1660h-109l862 1660h109z" />
    <glyph glyph-name="zero" unicode="0" horiz-adv-x="1064" 
d="M532 -27q-94 0 -172 47.5t-128.5 122.5t-85 170t-49.5 186t-15 175t14 175.5t48.5 188t84.5 172.5t128.5 125t174.5 49q70 0 131 -25.5t106 -69t81.5 -102t61 -123t41 -134.5t23.5 -133.5t7 -122.5q0 -70 -11 -145.5t-32.5 -155t-58.5 -150.5t-85 -127.5t-116.5 -89.5
t-147.5 -33zM686 676v31q1 28 0.5 62t-1 71.5t-3 77t-5.5 79t-9 78t-14 72.5t-20 62.5t-26 49.5t-33.5 32.5t-42.5 11.5q-37 0 -65 -28.5t-44 -87t-26 -108.5t-13.5 -135.5t-4 -122.5t-0.5 -111v-12.5v-10.5v-11q0 -224 5 -294q21 -327 148 -327q38 0 66.5 28.5t44 76
t26 108.5t13 125t4.5 126t0 113v44z" />
    <glyph glyph-name="one" unicode="1" horiz-adv-x="1064" 
d="M401 285v762q0 82 -20 108q-33 41 -174 41v74q132 14 228.5 38t189.5 76h45v-1085q0 -150 30 -188q7 -10 20 -17.5t25 -11.5t31.5 -6.5t30 -3.5t31 -1.5t24.5 -0.5v-74q-50 1 -166.5 4t-179.5 4q-51 -1 -152.5 -4t-152.5 -4v74q128 0 156 32q34 36 34 183z" />
    <glyph glyph-name="two" unicode="2" horiz-adv-x="1064" 
d="M700 551l-200 -160q-10 -8 -49 -40.5t-61 -54.5t-38 -46h406q37 1 111.5 4t111.5 4l-76 -377h-71q1 13 2 37t2 37q1 16 -3.5 26t-16.5 13.5t-21 4.5t-27 1h-682q99 191 254 377l98 119q58 68 94 118.5t71.5 115t52 133.5t16.5 147q0 51 -10 99t-31 93.5t-61.5 73
t-94.5 27.5q-75 0 -121.5 -60t-46.5 -139q0 -55 30.5 -100.5t82.5 -45.5q23 0 49.5 12.5t32.5 12.5q8 0 13 -10t5 -21q0 -63 -59.5 -110t-124.5 -47q-99 0 -161 69t-62 170q0 84 38.5 152.5t101 110.5t138 64.5t154.5 22.5q88 0 167 -26t140 -74.5t97 -124.5t36 -168
q0 -61 -16.5 -116t-39 -95t-65 -84.5t-76 -72.5t-90.5 -72z" />
    <glyph glyph-name="three" unicode="3" horiz-adv-x="1064" 
d="M528 682q-36 0 -61 -18.5t-49 -53.5q-14 -21 -21.5 -30.5t-24 -20t-34.5 -10.5q-25 0 -45.5 18.5t-20.5 44.5q0 51 82 93q62 34 108 69t86 80.5t60.5 103t20.5 125.5q0 85 -40.5 152.5t-119.5 67.5q-60 0 -109 -50t-49 -114q0 -34 22 -61t54 -27q16 0 40 10t26 10
q20 0 20 -37q0 -60 -53 -99.5t-115 -39.5q-74 0 -122 47.5t-48 120.5q0 75 40.5 138.5t104.5 102t136.5 59.5t142.5 21q63 0 121.5 -16t108 -47t79 -84t29.5 -121q0 -57 -21 -106.5t-51.5 -83.5t-79.5 -66.5t-89 -51.5t-95 -42l4 -4q13 1 40 2t40 2q140 0 240 -90t100 -227
q0 -106 -48.5 -197.5t-127 -151t-177.5 -93.5t-202 -34q-51 0 -107.5 11.5t-113 34.5t-93 66t-36.5 99q0 47 33.5 81t79.5 34q37 0 64.5 -18t41.5 -39t33 -60q32 -70 47 -88q32 -39 94 -39q59 0 100.5 36t61.5 94t28.5 112t8.5 109q0 44 -5 84t-18.5 87.5t-44.5 76t-76 28.5
z" />
    <glyph glyph-name="four" unicode="4" horiz-adv-x="1064" 
d="M1018 393h-209v-94q0 -149 37 -188q8 -8 21.5 -15t25 -10.5t31.5 -6.5t29 -4t31 -3t24 -2v-74q-56 1 -166 4t-166 4q-54 -1 -164 -4t-164 -4v74q1 0 18 1t24 1.5t24 2t27.5 3.5t23.5 5t22 8t15 11q39 37 39 183v108h-510v115l639 844h139v-844h209v-115zM141 508h400v520
h-4z" />
    <glyph glyph-name="five" unicode="5" horiz-adv-x="1064" 
d="M303 1063l-12 -322q133 109 295 109q174 0 286.5 -111t112.5 -282q0 -91 -31.5 -169.5t-86.5 -135.5t-127.5 -98t-156 -61t-171.5 -20q-52 0 -105.5 9t-109.5 29.5t-91.5 61t-35.5 95.5q0 45 34 80t78 35q47 0 77.5 -23.5t47 -57l33 -67t47.5 -57t78 -23.5
q50 0 88.5 25.5t60.5 64t35.5 90t18 95t4.5 88.5q0 299 -205 299q-32 0 -68 -12.5t-65 -40.5t-29 -62q0 -9 3 -27.5t3 -27.5q0 -27 -16 -46.5t-41 -19.5q-39 0 -53.5 19.5t-14.5 60.5q1 23 4.5 72t4.5 72l20 663h64q57 -46 143 -67t172 -21q184 0 254 104h63
q-28 -165 -151 -251t-297 -86q-78 0 -160 16z" />
    <glyph glyph-name="six" unicode="6" horiz-adv-x="1064" 
d="M375 793q42 42 103 64t124 22q175 0 280 -121.5t105 -300.5q0 -200 -130 -342t-327 -142q-103 0 -183.5 40.5t-130 105t-81.5 153t-44.5 175.5t-12.5 182q0 114 17 218t58 203.5t103 172.5t158.5 117t218.5 44q47 0 94.5 -10.5t92.5 -31.5t73.5 -61t28.5 -91
q0 -44 -35 -76.5t-78 -32.5t-75.5 28t-51.5 71q-4 7 -15.5 34t-17.5 36t-19 25t-30 22t-39 6q-29 0 -54 -12.5t-42.5 -37.5t-31 -53t-22.5 -67.5t-15 -72.5t-9.5 -77t-5.5 -72t-3.5 -66.5t-2.5 -51.5zM375 659v-217q0 -38 0.5 -59.5t3.5 -67.5t8 -75.5t17 -68t28 -61
t41.5 -39t58.5 -16.5t58.5 14.5t42 35t28 55t17 62t8.5 69t3.5 62.5t0.5 55v10q0 36 -0.5 57t-3 62t-8 67t-17 59.5t-27 53t-40.5 33.5t-57 14q-53 0 -97.5 -29t-64.5 -76z" />
    <glyph glyph-name="seven" unicode="7" horiz-adv-x="1064" 
d="M983 1352v-78l-199 -467q-98 -278 -141 -600q-5 -38 -11 -66.5t-19 -62t-31.5 -55t-49 -36t-69.5 -14.5q-67 0 -105.5 42t-38.5 110q0 43 20.5 106t64 150t62 121.5t62.5 113.5l279 486h-377h-68t-51.5 -3.5t-41 -7.5t-29.5 -16t-24.5 -24t-18 -37.5t-18.5 -50.5t-19 -68
h-78l115 584h75v-4q-12 -60 -12 -70q0 -7 1.5 -13t3 -10.5t5.5 -8.5t6 -6.5t8.5 -5t8.5 -3.5t10.5 -2t10.5 -1.5t11 -1.5t11 -1h647z" />
    <glyph glyph-name="eight" unicode="8" horiz-adv-x="1064" 
d="M606 852l58 -27q90 75 90 224q0 113 -62 183.5t-170 70.5q-81 0 -142 -52t-61 -135q0 -28 8.5 -53.5t19.5 -45t33 -39t38.5 -32t46.5 -28.5t47 -24t49.5 -22.5t44.5 -19.5zM473 590l-49 20q-141 -113 -141 -293q0 -118 74 -190t190 -72q101 0 173.5 62.5t72.5 163.5
q0 51 -18.5 94t-46 72t-69.5 55t-79 43t-84 36q-5 2 -8 3t-7.5 3t-7.5 3zM737 784q260 -137 260 -395q0 -129 -68.5 -225.5t-175 -143.5t-233.5 -47q-65 0 -128.5 13t-122.5 42t-103.5 70t-71 101.5t-26.5 132.5q0 110 80.5 191.5t197.5 127.5q-228 132 -231 361
q1 115 64.5 201.5t160.5 128.5t209 42q71 0 141 -19t131 -56t99 -98.5t38 -137.5q0 -178 -221 -289z" />
    <glyph glyph-name="nine" unicode="9" horiz-adv-x="1064" 
d="M686 698l6 217q0 38 -0.5 59.5t-3.5 67.5t-8 75.5t-17 68.5t-28 61.5t-41.5 39t-58.5 16.5t-59 -14.5t-42.5 -35t-28.5 -55t-17.5 -61.5t-8.5 -68.5t-3.5 -62.5t-0.5 -56v-10q0 -36 0.5 -57t3 -62t8 -67t17 -59.5t27 -53t40.5 -33.5t57 -14q53 0 97 28.5t61 75.5z
M432 -27q-47 0 -94.5 10.5t-92 32t-72.5 61t-28 91.5q0 44 34.5 77.5t78.5 33.5q41 0 73.5 -29t51.5 -72q4 -7 15.5 -34t17.5 -36t19 -25t30 -22t39 -6q40 0 71.5 24.5t50.5 66.5t32 90.5t19.5 105.5t9 102t4.5 89q1 23 1 32q-89 -86 -229 -86q-116 0 -204.5 58
t-134.5 153.5t-46 210.5q0 130 57.5 240.5t163 176.5t236.5 66q86 0 157 -28t119 -77.5t83.5 -112t55 -138t28.5 -149t9 -150.5q0 -114 -17 -218t-58 -204t-103 -172.5t-158.5 -117t-218.5 -44.5z" />
    <glyph glyph-name="colon" unicode=":" horiz-adv-x="573" 
d="M287 559q-69 0 -117.5 49.5t-48.5 118.5t48.5 116.5t117.5 47.5q68 0 117 -47t49 -115q0 -70 -48 -120t-118 -50zM287 -14q-69 0 -117.5 49.5t-48.5 118.5t48.5 116t117.5 47q68 0 117 -46.5t49 -114.5q0 -70 -48 -120t-118 -50z" />
    <glyph glyph-name="semicolon" unicode=";" horiz-adv-x="573" 
d="M152 -350l-37 55l6 2q110 75 146 108q92 87 98 212q-7 -4 -22 -13.5t-23 -14t-21.5 -9t-26.5 -4.5q-63 0 -107 50.5t-44 115.5q0 75 45 120t121 45q65 0 110.5 -38t64.5 -92t19 -117q0 -142 -93 -250.5t-236 -169.5zM287 559q-69 0 -117.5 49.5t-48.5 118.5t48.5 116.5
t117.5 47.5q68 0 117 -47t49 -115q0 -70 -48 -120t-118 -50z" />
    <glyph glyph-name="less" unicode="&#x3c;" horiz-adv-x="1064" 
d="M47 389v184l973 390v-164l-791 -318l791 -317v-164z" />
    <glyph glyph-name="equal" unicode="=" horiz-adv-x="1064" 
d="M51 772h963v-151h-963v151zM51 342h963v-152h-963v152z" />
    <glyph glyph-name="greater" unicode="&#x3e;" horiz-adv-x="1064" 
d="M1020 573v-184l-973 -389v164l791 317l-791 318v164z" />
    <glyph glyph-name="question" unicode="?" horiz-adv-x="819" 
d="M223 416v409q117 -6 129 -6q264 0 264 162q0 78 -49.5 137.5t-126.5 59.5q-37 0 -107.5 -15.5t-107.5 -15.5q-56 0 -99.5 28.5t-43.5 81.5q0 57 49.5 84t112.5 27q126 0 240 -69t183.5 -183t69.5 -239q0 -145 -100.5 -220t-249.5 -75q-13 0 -41 1t-41 1v-168h-82z
M274 -14q-69 0 -117 49.5t-48 118.5t48 116t117 47q68 0 117 -46.5t49 -114.5q0 -70 -48 -120t-118 -50z" />
    <glyph glyph-name="at" unicode="@" horiz-adv-x="1904" 
d="M1116 424l82 360q3 44 -25 76.5t-71 32.5q-52 -5 -100.5 -67.5t-80 -146t-50.5 -165.5t-19 -133q0 -101 15 -138q22 -55 81 -55q35 1 65 26t50 64.5t32.5 74.5t20.5 71zM1247 885l21 90h231l-158 -676q-5 -23 -6 -35.5t1 -34.5t17.5 -35.5t43.5 -19.5q49 -10 108 33
t108 117t81.5 175.5t31.5 198.5q0 158 -66.5 295t-192.5 222.5t-285 87.5q-161 0 -309 -65.5t-255.5 -175.5t-174.5 -258t-76 -308q-9 -212 66.5 -374.5t231.5 -253.5t371 -87q199 3 379 69l31 -69q-227 -82 -422 -82q-147 0 -284 34.5t-253.5 104t-203.5 166.5t-136 228.5
t-49 283.5q3 135 49 260t123.5 224t183 178.5t225 129t251 70t260.5 6.5q132 -15 246 -71.5t196 -144t129 -207t47 -254.5q0 -70 -19 -152t-56.5 -163t-88.5 -147.5t-121.5 -108.5t-148.5 -44q-49 -2 -86.5 7t-60.5 22.5t-42.5 40t-30 48.5t-24.5 60q-58 -85 -86 -111
q-76 -73 -208 -73q-97 0 -163.5 49t-93.5 124t-24 169q0 127 69.5 257t188.5 218t248 92q51 0 84 -12.5t52.5 -33t49.5 -64.5z" />
    <glyph glyph-name="A" unicode="A" horiz-adv-x="1310" 
d="M326 414l-25 -60q-4 -10 -15 -39.5t-17 -46.5t-11.5 -42t-5.5 -44q0 -29 11.5 -49.5t25.5 -31.5t41.5 -18t43.5 -8.5l48 -4.5v-74q-43 1 -129 4t-129 4q-39 -1 -117 -4t-117 -4v74q27 0 51.5 7t45.5 21t38.5 28.5t34 38.5t27.5 42t25 48t21.5 47t20 49t17.5 44l405 975
h99l422 -1053q1 -2 9.5 -22.5t11 -26.5t11.5 -26t13.5 -29.5t13.5 -26.5t15 -27t14.5 -21.5t15.5 -18.5q42 -37 139 -49v-74q-61 1 -183.5 4t-184.5 4q-53 -1 -161 -4t-161 -4v74q8 1 33 3.5t39 4.5t35.5 8t33 14.5t20.5 24.5t9 37q0 34 -39 135l-43 117h-452zM365 516h372
l-180 471z" />
    <glyph glyph-name="B" unicode="B" horiz-adv-x="1351" 
d="M537 659v-297q0 -39 0.5 -58.5t3.5 -53.5t9.5 -52.5t19 -42.5t30.5 -35.5t45.5 -20.5t63.5 -9q59 0 102.5 21.5t68 60.5t36.5 86t12 104q0 155 -73.5 227.5t-229.5 72.5q-15 0 -44 -1.5t-44 -1.5zM31 -4v74q32 -1 57.5 2t44.5 7.5t33.5 16.5t24 21t16 29t9.5 33t5 41
t2 44.5v51.5v12v692v12v51.5t-2 44.5t-5 41t-9.5 33t-16 29t-24 21t-33.5 16.5t-44.5 7.5t-57.5 2v74q52 -1 147.5 -4.5t140.5 -4.5q55 1 165.5 4.5t166.5 4.5q545 -10 545 -328q0 -58 -23.5 -106.5t-61 -80.5t-88.5 -57t-100.5 -38.5t-103.5 -20.5v-4q68 -7 128.5 -20
t123.5 -40t108 -64.5t74 -96t29 -131.5q0 -379 -661 -369q-50 1 -152 4t-152 4q-45 -1 -139.5 -4t-146.5 -4zM537 1217v-461h41q150 0 214 54t64 196q0 126 -57.5 188.5t-180.5 62.5q-81 5 -81 -40z" />
    <glyph glyph-name="C" unicode="C" horiz-adv-x="1433" 
d="M1274 6l-39 119q-163 -152 -444 -152q-307 0 -499 184t-192 490q0 207 91.5 372.5t255.5 258t370 92.5q223 0 387 -129l31 117h88l18 -430h-90q-34 154 -134 247t-253 93q-91 0 -163.5 -37.5t-117.5 -97.5t-75 -140.5t-41.5 -160t-11.5 -162.5q0 -89 12 -169.5t43 -159
t77.5 -136t121 -93t168.5 -36.5q86 -1 156 29t117.5 85t78.5 124.5t45 152.5h82v-461h-82z" />
    <glyph glyph-name="D" unicode="D" horiz-adv-x="1515" 
d="M537 1190v-741q0 -206 20 -259q37 -100 166 -100q66 0 119 18.5t89 49t62 76.5t41 92.5t23.5 107t11 109.5t2.5 110q0 266 -82 426q-95 178 -362 178q-64 0 -82 -18q-8 -8 -8 -49zM31 -4v74q32 -1 57.5 2t44.5 7.5t33.5 16.5t24 21t16 29t9.5 33t5 41t2 44.5v51.5v12v692
v12v51.5t-2 44.5t-5 41t-9.5 33t-16 29t-24 21t-33.5 16.5t-44.5 7.5t-57.5 2v74h620q341 0 543 -172q231 -201 231 -539q0 -304 -200 -487q-183 -165 -535 -158q-55 1 -162.5 4t-162.5 4q-56 -1 -167 -4t-167 -4z" />
    <glyph glyph-name="E" unicode="E" horiz-adv-x="1269" 
d="M31 -4v74q32 -1 57.5 2t44.5 7.5t33.5 16.5t24 21t16 29t9.5 33t5 41t2 44.5v51.5v12v692v12v51.5t-2 44.5t-5 41t-9.5 33t-16 29t-24 21t-33.5 16.5t-44.5 7.5t-57.5 2v74q58 -1 173.5 -4.5t174.5 -4.5q125 1 375.5 4.5t375.5 4.5l17 -361h-88q-25 147 -109 206.5
t-239 59.5q-157 0 -168 -22q-6 -10 -6 -117v-379q68 0 113.5 8.5t84.5 31t59 68t23 114.5h82q-1 -47 -4 -141.5t-4 -141.5q1 -42 4 -127t4 -127h-82q-15 73 -33 114.5t-51.5 66.5t-77 32.5t-118.5 7.5v-239q0 -140 11 -185q20 -87 100 -115q49 -16 124 -16q174 0 254.5 64.5
t118.5 236.5h82q-1 -39 -4 -115.5t-4 -115.5q1 -27 4 -81.5t4 -82.5q-141 1 -424 4t-424 4q-59 -1 -174 -4t-174 -4z" />
    <glyph glyph-name="F" unicode="F" horiz-adv-x="1146" 
d="M535 1114v-389h77q86 0 137 52.5t72 172.5h82q-1 -46 -4 -137t-4 -137q1 -44 4 -132t4 -132h-82q-20 214 -200 219h-84v-303q0 -129 11 -168q19 -64 85 -81q41 -11 108 -9v-74q-61 1 -181 4t-181 4q-59 -1 -174 -4t-174 -4v74q32 -1 57.5 2t44.5 7.5t33.5 16.5t24 21
t16 29t9.5 33t5 41t2 44.5v51.5v12v692v12v51.5t-2 44.5t-5 41t-9.5 33t-16 29t-24 21t-33.5 16.5t-44.5 7.5t-57.5 2v74q58 -1 173.5 -4.5t174.5 -4.5q127 1 380 4.5t380 4.5l18 -353h-82q-15 69 -43.5 117.5t-62.5 75.5t-86.5 42t-100 19t-118.5 4q-97 0 -113.5 -14.5
t-15.5 -94.5v-34z" />
    <glyph glyph-name="G" unicode="G" horiz-adv-x="1597" 
d="M1200 1243l33 115h86l18 -426h-90q-39 152 -135.5 244t-247.5 92q-94 0 -168 -39t-118 -100t-73 -144.5t-39.5 -163.5t-10.5 -166q0 -80 10.5 -156t38.5 -154.5t70.5 -136.5t112.5 -95t159 -37q138 0 203 58.5t65 191.5q0 101 -31.5 133t-136.5 43v73h610v-73
q-28 -1 -48 -6t-34 -9.5t-23 -17.5t-14 -21.5t-7.5 -30t-2.5 -33v-40.5v-18v-213q-109 -14 -161.5 -25.5t-145.5 -44.5q-102 -37 -171 -53.5t-156 -16.5q-312 0 -502.5 183.5t-190.5 492.5q0 202 86.5 366t246.5 259.5t364 95.5q248 0 403 -127z" />
    <glyph glyph-name="H" unicode="H" horiz-adv-x="1679" 
d="M537 633v-305v-12v-51.5t2 -44.5t5 -41t9.5 -33t16 -29t24 -21t33.5 -16.5t44.5 -7.5t57.5 -2v-74q-60 1 -180.5 4t-181.5 4q-57 -1 -168.5 -4t-167.5 -4v74q32 -1 57.5 2t44.5 7.5t33.5 16.5t24 21t16 29t9.5 33t5 41t2 44.5v51.5v12v692v12v51.5t-2 44.5t-5 41t-9.5 33
t-16 29t-24 21t-33.5 16.5t-44.5 7.5t-57.5 2v74q55 -1 166.5 -4.5t167.5 -4.5q61 1 182 4.5t182 4.5v-74q-32 1 -57.5 -2t-44.5 -7.5t-33.5 -16.5t-24 -21t-16 -29t-9.5 -33t-5 -41t-2 -44.5v-51.5v-12v-285h606v285v5q0 36 -0.5 53t-2 45.5t-5 42t-10 34.5t-16 30t-24 21
t-34 17t-45.5 8t-58 2v74q55 -1 162 -4.5t162 -4.5q62 1 188 4.5t189 4.5v-74q-70 2 -111 -11t-58 -53t-20.5 -74t-3.5 -110v-10v-692q0 -126 11 -166q20 -69 95 -86q35 -8 87 -6v-74q-59 1 -179 4t-180 4q-58 -1 -171.5 -4t-170.5 -4v74q32 -1 58 2t45.5 8t34 17t24 21
t16 30t10 34.5t5 42t2 45.5t0.5 53v5v305h-606z" />
    <glyph glyph-name="I" unicode="I" horiz-adv-x="778" 
d="M233 328v688q0 126 -10 165q-17 69 -87 88q-37 10 -95 9v74q57 -1 168.5 -4.5t167.5 -4.5q61 1 182 4.5t180 4.5v-74q-32 0 -57.5 -3.5t-44.5 -8t-33.5 -16.5t-24 -21t-16 -29.5t-9.5 -32.5t-5 -40t-2 -43.5v-50.5v-17v-697q0 -123 12 -162q19 -64 91 -80q35 -8 89 -7
v-74q-59 1 -179 4t-181 4q-57 -1 -169 -4t-169 -4v74q47 -1 81 4t54.5 22t32.5 32t17 50.5t6 58.5t1 74v17z" />
    <glyph glyph-name="J" unicode="J" horiz-adv-x="778" 
d="M41 1278v74q51 -1 154.5 -4.5t154.5 -4.5q65 1 195 4.5t194 4.5v-74q-57 2 -94 -9.5t-57 -27t-29 -54t-10.5 -66.5t-1.5 -88v-17v-953v-89t-3.5 -82t-10.5 -93.5t-22.5 -77t-37.5 -79.5q-60 -91 -160.5 -135t-216.5 -44q-53 0 -106 9t-107 30t-87.5 63t-33.5 99
q0 47 35 81t82 34q46 0 75.5 -22t43 -53.5t25.5 -62.5t32.5 -53t53.5 -22q106 0 110 160q2 59 7 179t7 179v932q0 126 -10 165q-17 69 -87 88q-37 10 -95 9z" />
    <glyph glyph-name="K" unicode="K" horiz-adv-x="1392" 
d="M662 608l-125 -131v-180q0 -116 10 -148q14 -47 70 -64q36 -11 104 -15v-74q-57 1 -174 4t-176 4q-56 -1 -169 -4t-171 -4v74q32 0 57.5 3.5t44.5 7.5t33.5 16t24 20.5t16 28.5t9.5 32t5 40t2 43v50v17v688q0 126 -10 165q-17 69 -87 88q-37 10 -95 9v74q51 -1 151 -4.5
t148 -4.5q64 1 190 4.5t189 4.5v-74q-38 0 -80 -10.5t-60 -32.5q-32 -38 -32 -186v-441l139 154q50 56 110 127.5t127.5 169.5t67.5 135q0 12 -3 22t-10 17.5t-12.5 13.5t-18.5 10.5t-19 7.5t-22 5.5t-20.5 3t-21.5 2.5t-18 2v74q41 -1 123.5 -4.5t123.5 -4.5
q45 1 134.5 4.5t134.5 4.5v-74q-53 -9 -73.5 -13.5t-51 -20t-60.5 -42.5q-40 -35 -137 -155l-178 -220l465 -594q5 -7 24.5 -31.5t29.5 -37t29.5 -33.5t35 -32t36.5 -20t41 -9v-74q-59 1 -176 4t-176 4q-51 -1 -154.5 -4t-154.5 -4v74h14q14 1 19 1.5t19.5 2t21.5 3.5t19 5
t18.5 7t14 9.5t10.5 13.5t3 17q0 52 -100 178z" />
    <glyph glyph-name="L" unicode="L" horiz-adv-x="1269" 
d="M31 -4v74q32 -1 57.5 2t44.5 7.5t33.5 16.5t24 21t16 29t9.5 33t5 41t2 44.5v51.5v12v692v12v51.5t-2 44.5t-5 41t-9.5 33t-16 29t-24 21t-33.5 16.5t-44.5 7.5t-57.5 2v74q55 -1 161.5 -4.5t161.5 -4.5q63 1 189 4.5t188 4.5v-74q-29 1 -52.5 -0.5t-42 -8t-33 -12
t-25 -18.5t-17.5 -22t-11.5 -29t-7 -32.5t-4 -39t-1.5 -41.5v-48v-7v-596q0 -148 12 -198q21 -89 103 -118q50 -18 130 -18q176 0 261.5 63t127.5 234h89l-15 -391q-559 3 -866 8q-59 -1 -174 -4t-174 -4z" />
    <glyph glyph-name="M" unicode="M" horiz-adv-x="1802" 
d="M756 -4l-428 1038h-4v-628q0 -199 30 -254q38 -70 164 -82v-74q-43 1 -128 4t-128 4q-39 -1 -115.5 -4t-115.5 -4v74q88 14 118 29q45 26 58 77q14 57 14 197v815q-25 48 -72 66t-118 24v74q37 -1 111.5 -4.5t111.5 -4.5q43 1 128 4.5t128 4.5l401 -957l369 957
q39 -1 116.5 -4.5t116.5 -4.5q37 1 123 4.5t136 4.5v-74q-47 1 -80.5 -4.5t-54 -21t-32.5 -33.5t-17.5 -49.5t-7 -59.5t-1.5 -73v-7v-7v-7v-643q0 -140 14 -197q16 -68 93 -90q21 -7 83 -16v-74q-61 1 -182.5 4t-183.5 4q-50 -1 -159.5 -4t-168.5 -4v74q88 14 118 29
q46 24 58 77q15 61 15 197v647h-4l-408 -1024h-98z" />
    <glyph glyph-name="N" unicode="N" horiz-adv-x="1597" 
d="M1266 -33l-930 1059v-633v-2q0 -45 0.5 -67.5t4 -62t10.5 -60.5t21.5 -49t35 -43t52 -26t72.5 -13v-74q-41 1 -123.5 4t-123.5 4q-39 -1 -117 -4t-117 -4v74q50 5 84 18.5t53.5 32t29.5 51t12.5 63t2.5 80.5v824q-31 44 -45 61t-38.5 38t-51.5 28.5t-69 11.5v74
q33 -1 97 -4.5t97 -4.5q39 1 116 4.5t116 4.5l809 -932v545v52.5t-2 48.5t-5.5 48t-10 42.5t-16 39.5t-24.5 31.5t-34 26.5t-45 16t-58 8v74q39 -1 117 -4.5t117 -4.5q41 1 122.5 4.5t122.5 4.5v-74q-28 -5 -36 -6.5t-32 -8t-35 -13t-25.5 -18.5t-22.5 -28q-31 -59 -31 -252
v-985h-100z" />
    <glyph glyph-name="O" unicode="O" horiz-adv-x="1720" 
d="M856 -27q-123 0 -236.5 31t-207.5 91t-164 143.5t-109 195t-39 238.5q0 160 61 293t165.5 221t242.5 136t293 48t293 -48.5t242 -136.5t164.5 -221t60.5 -292t-61.5 -292.5t-166.5 -221.5t-244 -136.5t-294 -48.5zM856 1276q-94 0 -167 -37t-116 -95t-70.5 -139
t-37.5 -158t-10 -163t9.5 -165.5t37 -164t70.5 -146t116 -101t168 -39.5q97 0 171.5 35t119 91t73 135.5t38.5 158.5t10 171q0 74 -7 141.5t-24 140t-48 130.5t-75 105.5t-110 73.5t-148 26z" />
    <glyph glyph-name="P" unicode="P" horiz-adv-x="1269" 
d="M223 328v688v12v51.5t-2 45t-5 41.5t-9.5 33.5t-16 30t-24 21.5t-33.5 17t-44.5 8t-57.5 2v74q90 0 340 -9q53 1 160.5 4.5t160.5 4.5q81 -1 151 -10.5t145 -34.5t127 -64.5t86 -106.5t34 -155q0 -81 -32 -145.5t-83 -104.5t-120 -67t-138 -37.5t-141 -10.5h-184v-288
q0 -129 12 -168q18 -64 85 -81q42 -11 109 -9v-74q-62 1 -186.5 4t-187.5 4q-52 -1 -164 -4t-174 -4v74q32 -1 57.5 2t44.5 7.5t33.5 16.5t24 21t16 29t9.5 33t5 41t2 44.5v51.5v12zM537 711h43q163 0 239 59t76 217q0 129 -64 199.5t-190 70.5q-77 0 -92 -12
q-12 -10 -12 -88v-446z" />
    <glyph glyph-name="Q" unicode="Q" horiz-adv-x="1720" 
d="M856 1276q-91 0 -162.5 -36.5t-115 -94.5t-72.5 -137t-40 -155.5t-11 -158.5q0 -86 10.5 -168t39 -169.5t72.5 -152.5t118 -107t169 -42q97 0 171.5 37t118 94.5t70.5 139.5t36.5 160t9.5 167q0 86 -11 167.5t-40 166.5t-73.5 147t-119 102t-170.5 40zM649 -98l162 67v4
q-146 5 -275 55.5t-226 136.5t-153.5 213t-56.5 277q0 159 60.5 294t164.5 226.5t243.5 143t295.5 51.5q154 0 292.5 -50t242 -140t164.5 -223.5t61 -290.5q0 -490 -643 -719l-276 -97l4 -4q15 0 46 1t46 1q175 5 364 -63q10 -3 40.5 -14.5t41.5 -15t37 -12t40.5 -12
t35.5 -8.5t39.5 -6.5t36.5 -1.5q87 0 155 64q9 9 21.5 23t19.5 21.5t15 13t14 5.5q13 0 21 -11t8 -24q0 -134 -100 -240t-232 -106q-73 0 -145 25t-117.5 53.5t-110.5 77.5q-48 35 -65 47.5t-60 39.5t-70 38t-66 21t-77 10q-63 0 -123.5 -22.5t-104.5 -45t-65 -22.5
q-20 0 -34.5 15.5t-14.5 35.5q0 22 18 39t34 23.5t42 15.5q42 16 125 45t125 45z" />
    <glyph glyph-name="R" unicode="R" horiz-adv-x="1433" 
d="M537 694h77q152 0 224.5 65t72.5 214q0 143 -64 213.5t-206 70.5q-93 0 -98 -22q-6 -23 -6 -191v-350zM930 672l280 -350q9 -13 31.5 -44.5t36 -49.5t33.5 -43t37 -44q31 -33 58.5 -47.5t72.5 -23.5v-74q-34 1 -101.5 4t-101.5 4q-34 -1 -101.5 -4t-101.5 -4l-291 412
q-142 197 -213 192q-5 0 -16 -1t-16 -1v-270v-7v-47.5t1.5 -42t4 -39t7 -32t11.5 -29t17.5 -22.5t25 -18.5t33 -12t42 -8t52.5 -0.5v-74q-59 1 -176.5 4t-175.5 4q-59 -1 -174 -4t-174 -4v74q32 -1 57.5 2t44.5 7.5t33.5 16.5t24 21t16 29t9.5 33t5 41t2 44.5v51.5v12v692
v12v51.5t-2 44.5t-5 41t-9.5 33t-16 29t-24 21t-33.5 16.5t-44.5 7.5t-57.5 2v74q58 -1 173.5 -4.5t174.5 -4.5q56 1 166 4.5t166 4.5q248 -10 338 -49q99 -39 150.5 -119t51.5 -189q0 -130 -93 -215.5t-228 -107.5z" />
    <glyph glyph-name="S" unicode="S" horiz-adv-x="1105" 
d="M193 113l-29 -113h-90v426h82q24 -77 52.5 -135.5t72.5 -112t108 -82t146 -28.5q94 0 163.5 56.5t69.5 147.5q0 35 -9.5 65.5t-23 53.5t-38 44.5t-45 36t-54.5 31t-56 25.5t-59 24t-55 23q-77 33 -131.5 67t-103.5 82t-74 113t-25 146q0 182 122 284.5t308 102.5
q199 0 307 -100l27 80h88l12 -369h-88q-30 127 -117 211t-214 84q-81 0 -142 -44.5t-61 -123.5q0 -28 7.5 -53t18 -43.5t30 -36.5t36 -29.5t43.5 -25.5t44.5 -22t47.5 -20.5t45 -19.5q44 -19 72.5 -32t69 -33t67 -36.5t59 -40.5t53.5 -47.5t43 -54t34 -63t20 -73t8 -85.5
q0 -100 -40 -181.5t-108 -132.5t-154.5 -78.5t-182.5 -27.5q-101 0 -195 35.5t-161 104.5z" />
    <glyph glyph-name="T" unicode="T" horiz-adv-x="1392" 
d="M1356 1352l12 -389h-88q-15 133 -92 209.5t-207 76.5q-14 0 -34.5 0.5t-29 0.5t-20 -1.5t-18 -4.5t-11.5 -9q-7 -10 -10 -24t-2.5 -27l1.5 -39t1 -45v-772v-10q0 -66 1.5 -95t11.5 -67.5t31.5 -52.5t60.5 -24.5t100 -8.5v-74q-60 1 -181 4t-182 4q-61 -1 -181.5 -4
t-180.5 -4v74q62 -2 101.5 8.5t61 25t31.5 53.5t11.5 68.5t1.5 97.5v5v772q0 111 -13 127q-5 6 -13.5 9.5t-27 6t-28.5 3.5t-41 3q-141 11 -211.5 -64t-97.5 -222h-88l12 389h1319z" />
    <glyph glyph-name="U" unicode="U" horiz-adv-x="1597" 
d="M31 1278v74q53 -1 160.5 -4.5t160.5 -4.5q63 1 190 4.5t191 4.5v-74q-32 1 -58 -2.5t-45.5 -8t-34.5 -17t-24.5 -22t-16 -30.5t-10 -34.5t-5.5 -42t-2 -45.5v-53v-7v-494q0 -105 14.5 -176t52 -128t108.5 -84.5t179 -27.5q192 0 291.5 96.5t99.5 282.5v426
q0 64 -0.5 97.5t-9.5 95t-27 90.5q-45 73 -158 84v74q39 -1 117 -4.5t117 -4.5q41 1 124 4.5t124 4.5v-74q-58 -9 -96.5 -26.5t-59.5 -57.5q-11 -20 -17.5 -46.5t-9 -63.5t-3 -57t0 -65t0.5 -51v-383q0 -555 -567 -555q-112 0 -200 16t-163.5 55.5t-125 101.5t-77.5 157
t-28 221v492q0 125 -9 162q-17 68 -85 89q-38 11 -98 11z" />
    <glyph glyph-name="V" unicode="V" horiz-adv-x="1351" 
d="M715 -27h-99l-430 1086q-46 115 -60 139q-27 42 -82 60q-30 9 -91 20v74q56 -1 167.5 -4.5t168.5 -4.5q61 1 183.5 4.5t184.5 4.5v-74q-25 -1 -33 -1t-31.5 -2.5t-34 -6t-27.5 -10.5t-25 -17t-14.5 -25.5t-6.5 -35.5q0 -15 6 -39t18 -60.5t13 -38.5l254 -682l195 492
q90 218 90 313q0 29 -11 49.5t-25 31.5t-41.5 18.5t-44 9.5t-48.5 4v74q41 -1 123 -4.5t123 -4.5q44 1 132 4.5t132 4.5v-74q-32 -2 -58.5 -9.5t-45.5 -15.5t-37 -27t-28 -31t-24.5 -42t-21 -44t-21.5 -52z" />
    <glyph glyph-name="W" unicode="W" horiz-adv-x="1802" 
d="M1219 -27l-299 883h-5l-303 -883h-100l-387 1123q-33 93 -46 112q-25 42 -88 59q-23 6 -54 11v74q51 -1 154.5 -4.5t154.5 -4.5q61 1 180 4.5t180 4.5v-74q-11 -2 -43 -5.5t-49 -7.5t-39 -13.5t-32.5 -28t-10.5 -45.5q0 -14 4.5 -37t12.5 -52t14.5 -50t16.5 -52t12 -37
l172 -544h4l293 946h92l319 -932h4l105 340q92 293 92 379q0 24 -5 43t-11.5 32t-21 23.5t-24.5 16t-32.5 11t-33.5 7.5t-38 6v74q35 -1 104.5 -4.5t104.5 -4.5q40 1 118.5 4.5t118.5 4.5v-74q-72 -8 -102.5 -43t-56.5 -117l-377 -1145h-98z" />
    <glyph glyph-name="X" unicode="X" horiz-adv-x="1392" 
d="M815 752l416 -543q55 -74 75 -92q50 -46 132 -47v-74q-63 1 -190 4t-191 4q-55 -1 -166.5 -4t-167.5 -4v74q16 0 66 6t61 10q41 12 41 55q0 41 -92 148l-183 233l-139 -166q-3 -4 -17 -21.5t-22 -28t-21.5 -29t-22 -32.5t-17 -30.5t-13 -30.5t-4.5 -26q0 -16 4.5 -29
t16 -21.5t20 -14t27 -10t27 -6t30 -4t25.5 -3.5v-74q-47 1 -140.5 4t-140.5 4q-41 -1 -122.5 -4t-122.5 -4v74q42 2 80 17t72.5 44t57.5 53.5t56 63.5l305 354l-356 473q-73 101 -111 137q-46 44 -133 66v74q56 -1 167.5 -4.5t168.5 -4.5q63 1 186.5 4.5t186.5 4.5v-74
q-88 -4 -119 -21q-33 -19 -33 -55q0 -10 4.5 -24.5t13.5 -31.5t18 -31.5t23 -34.5t22 -31t21.5 -29.5t16.5 -22.5l129 -168l155 201q24 34 35 50.5t27 51t16 58.5q0 22 -12 38t-26.5 24.5t-39.5 14.5t-39.5 7.5t-37.5 3.5v74q41 -1 123.5 -4.5t123.5 -4.5q46 1 137.5 4.5
t137.5 4.5v-74q-38 -3 -73 -16.5t-58 -27t-54.5 -44.5t-45 -47.5t-47.5 -58.5q-6 -7 -9 -11z" />
    <glyph glyph-name="Y" unicode="Y" horiz-adv-x="1269" 
d="M797 549v-221v-12q0 -54 1 -78.5t6.5 -60.5t17.5 -50.5t34 -31.5t56.5 -21.5t84.5 -3.5v-74q-64 1 -192 4t-193 4q-54 -1 -163 -4t-164 -4v74q71 -1 111.5 10t59 49.5t21.5 66.5t5 106q1 17 1 26v180l-354 631q-33 55 -47.5 74t-43 36t-81.5 29v74q51 -1 154.5 -4.5
t154.5 -4.5q59 1 175 4.5t175 4.5v-74q-31 -2 -49 -5t-46.5 -11t-43 -26.5t-14.5 -45.5q0 -10 4.5 -25t10 -28.5t15.5 -33.5l15.5 -31t16 -30t12.5 -22l204 -371l197 330q78 142 78 197q0 102 -150 102v74q35 -1 103.5 -4.5t103.5 -4.5q40 1 121 4.5t121 4.5v-74
q-33 -3 -58.5 -14t-46.5 -33t-34 -41.5t-33 -54.5z" />
    <glyph glyph-name="Z" unicode="Z" horiz-adv-x="1187" 
d="M1147 1352v-82l-737 -1168h200q63 0 109 3.5t99.5 13t91.5 30.5t72 53t53.5 83t25.5 118h86l-8 -403h-1098v74l743 1175h-211q-135 0 -217 -33t-117 -90t-46 -149h-89l13 375h1030z" />
    <glyph glyph-name="bracketleft" unicode="[" horiz-adv-x="778" 
d="M406 -203h270v-73h-473v1660h473v-73h-270v-1514z" />
    <glyph glyph-name="backslash" unicode="\" horiz-adv-x="569" 
d="M662 -276l-863 1660h109l862 -1660h-108z" />
    <glyph glyph-name="bracketright" unicode="]" horiz-adv-x="778" 
d="M102 -203h271v1514h-271v73h473v-1660h-473v73z" />
    <glyph glyph-name="asciicircum" unicode="^" horiz-adv-x="1189" 
d="M518 1343h160l311 -819h-166l-227 594l-229 -594h-164z" />
    <glyph glyph-name="underscore" unicode="_" horiz-adv-x="1024" 
d="M-8 -154h1032v-102h-1032v102z" />
    <glyph glyph-name="grave" unicode="`" horiz-adv-x="696" 
d="M575 1022h-65l-246 149l-49 33q-80 47 -80 86q0 32 23 56t55 24q15 0 29.5 -5.5t31 -20t24.5 -21.5t27.5 -28.5t20.5 -22.5z" />
    <glyph glyph-name="a" unicode="a" horiz-adv-x="983" 
d="M582 254v244q-35 -15 -46.5 -20.5t-44.5 -22t-46.5 -27t-37.5 -30t-34.5 -37.5t-19.5 -43t-9 -52q0 -57 24.5 -98t75.5 -41q48 0 93 39t45 88zM963 156l41 -56q-31 -57 -104 -92t-142 -35q-72 0 -114.5 34t-63.5 104q-58 -61 -135 -99.5t-154 -38.5q-99 0 -167.5 62
t-68.5 160q0 30 7.5 57.5t17.5 49t30.5 43.5t37 37.5t47 33.5t49 28.5t56 26.5t55 23t58 22t54.5 21q12 5 35.5 12.5t33.5 12t23 14.5t18 25t5 38q0 41 -3.5 67.5t-14.5 55t-36 43t-65 14.5q-55 0 -80 -22.5t-49 -79.5q-12 -31 -20.5 -49t-24 -39t-37.5 -31t-51 -10
q-48 0 -79.5 30.5t-31.5 79.5q0 50 29.5 88t72.5 59t100 34.5t102.5 17.5t90.5 4q365 0 365 -254v-416q0 -104 43 -104q16 0 28.5 4t20 9t21.5 16z" />
    <glyph glyph-name="b" unicode="b" horiz-adv-x="1146" 
d="M352 76l-176 -107h-35v1108q0 89 -7 112q-14 46 -78 60q-19 4 -44 6v68l398 61v-600q126 117 241 117q122 0 221.5 -64.5t153 -169.5t53.5 -227q0 -197 -130 -332t-326 -135q-70 0 -147 28t-124 75zM414 575v-299q0 -50 6.5 -84.5t23.5 -64t50 -44.5t84 -15t90 25
t60 61.5t34 88t16.5 94t3.5 89.5q0 60 -9 113.5t-30.5 108.5t-66 87.5t-107.5 32.5q-37 0 -73 -18t-56 -48q-26 -43 -26 -127z" />
    <glyph glyph-name="c" unicode="c" horiz-adv-x="942" 
d="M850 233l63 -55q-69 -101 -170 -153t-223 -52q-202 0 -328 124t-126 327q0 143 69.5 253t185.5 167t257 57q46 0 98.5 -11t104.5 -32.5t86 -61.5t34 -91q0 -45 -31 -78t-75 -33q-45 0 -74.5 23t-44 56t-28 66.5t-39 56.5t-64.5 23q-47 0 -82 -27t-53.5 -65t-30 -91
t-14.5 -94t-3 -85q0 -369 248 -369q39 0 72.5 10.5t64 34t51.5 44t52 56.5z" />
    <glyph glyph-name="d" unicode="d" horiz-adv-x="1187" 
d="M573 768q-51 0 -90.5 -20t-62.5 -51.5t-37.5 -75.5t-19.5 -86t-5 -89q0 -340 209 -340q32 0 58.5 7.5t46 19t34.5 32t24.5 38t16 47t10 49.5t5.5 53.5t2 51.5v51q0 44 -1.5 73.5t-7 70.5t-18 67t-33 51.5t-54 38t-77.5 12.5zM1178 119v-68l-375 -80l-19 181
q-62 -88 -136 -133.5t-175 -45.5q-124 0 -219.5 64.5t-144 168t-48.5 224.5q0 92 31.5 177.5t86 150.5t136 104t174.5 39q77 0 148 -39.5t127 -101.5v317q0 89 -7 112q-14 46 -78 60q-19 4 -44 6v68l397 61v-1130q1 -79 34.5 -109.5t111.5 -25.5z" />
    <glyph glyph-name="e" unicode="e" horiz-adv-x="1024" 
d="M883 473h-521q-2 -73 10 -137t41 -122t84.5 -92t133.5 -34q42 0 75.5 8.5t65.5 31.5t51.5 40.5t57.5 56.5l63 -51q-65 -99 -166.5 -150t-224.5 -51q-205 0 -341.5 122t-145.5 327q-6 139 57 249.5t175 170t251 59.5q110 0 204.5 -46t153 -134t58.5 -199q0 -11 -2 -18.5
t-4 -13t-7.5 -9t-9 -5.5t-12.5 -2.5t-13.5 -0.5h-16.5h-17zM365 555h272q33 0 46 12.5t13 44.5q0 78 -45 142.5t-119 64.5q-44 0 -77.5 -25t-51.5 -66.5t-27 -84.5t-11 -88z" />
    <glyph glyph-name="f" unicode="f" horiz-adv-x="819" 
d="M745 764h-253v-500q0 -41 0.5 -64.5t4.5 -48t7.5 -35.5t16.5 -23t23 -16t36.5 -8t47 -5t63.5 -3h1v-65q-57 1 -168.5 4t-167.5 4q-47 -1 -140 -4t-140 -4v65q22 1 40 2.5t32 6t24.5 7.5t18.5 12t13.5 14.5t9 19.5t5.5 21.5t3 27.5t1 30.5v36.5v13v512h-137v82h137v145
q0 166 62 254q99 139 354 139q40 0 80.5 -7t83 -22.5t68.5 -47.5t26 -76q0 -47 -31.5 -81t-77.5 -34q-38 0 -63.5 19.5t-39 46.5t-25 54.5t-29.5 47t-45 19.5q-46 0 -70 -40.5t-24 -88.5v-328h253v-82z" />
    <glyph glyph-name="g" unicode="g" horiz-adv-x="1024" 
d="M469 819q-30 0 -53.5 -11.5t-36.5 -34.5t-22 -45t-12 -56t-4 -54.5t-1 -52.5q0 -214 129 -221q32 -2 56 13t37 37.5t20.5 55.5t9.5 58.5t2 54.5q0 256 -125 256zM729 825q95 88 203 88q51 0 88 -27t37 -77q0 -39 -25.5 -64.5t-64.5 -25.5q-33 0 -74 36t-66 36t-39 -23
q74 -80 74 -190q0 -74 -30.5 -138t-90.5 -104q-61 -40 -133 -55t-166 -19q-4 0 -24 -1t-28 -2t-26 -3.5t-27 -6t-22 -9.5t-19.5 -14.5t-11.5 -21t-5 -28.5q0 -18 9.5 -31t27 -20.5t35.5 -12t44 -6t42.5 -1.5t40 0.5t28.5 0.5q53 0 96 -2.5t93.5 -10.5t89 -21.5t76 -37.5
t62 -56t39.5 -79t15 -106q0 -77 -31 -138.5t-80.5 -99.5t-116.5 -63t-133 -35t-135 -10q-52 0 -104.5 5.5t-115 22t-110 42t-79 70.5t-31.5 104q0 57 41 98t98 41q25 0 57.5 -14t32.5 -35q0 -4 -3 -8.5t-10 -10.5l-7 -6q-20 -18 -25.5 -29t-5.5 -36q0 -45 25.5 -78.5
t66.5 -50.5t82 -25t82 -8q39 0 77.5 5t81 18t74.5 33.5t53 55t21 78.5q0 27 -7.5 49.5t-20.5 37t-31 26t-39 18t-44 11t-47 5t-47 1.5t-45 0h-22h-56t-57 2t-60.5 5.5t-55.5 11t-54 18t-44 27t-37 37.5t-22 50.5t-9 65.5q0 80 58 137.5t139 71.5v4q-94 27 -151.5 99.5
t-57.5 170.5q0 108 57.5 185.5t145 113t192.5 35.5q163 0 262 -76z" />
    <glyph glyph-name="h" unicode="h" horiz-adv-x="1146" 
d="M412 1384v-649h4q43 80 126.5 123t180.5 43q117 0 200 -65.5t83 -180.5v-403q0 -127 20 -154q27 -37 109 -37v-65q-42 1 -121.5 4t-118.5 4q-48 -1 -143.5 -4t-143.5 -4v65q82 0 109 37q20 27 20 154v334q0 78 -32 130t-107 52q-59 0 -103 -43t-63.5 -99.5t-19.5 -111.5
v-262q0 -127 20 -154q27 -37 109 -37v-65q-44 1 -132.5 4t-132.5 4q-44 -1 -131 -4t-131 -4v65q82 0 109 37q20 27 20 154v846q-1 47 -4.5 70.5t-17 44t-39 29t-70.5 13.5v68z" />
    <glyph glyph-name="i" unicode="i" horiz-adv-x="573" 
d="M422 901v-649q0 -127 20 -154q27 -37 109 -37v-65q-39 1 -123.5 4t-128.5 4q-46 -1 -137 -4t-137 -4v65q81 0 108 37q21 28 21 154v354q0 96 -26 131.5t-105 34.5v68q216 16 399 61zM258 1077q-58 0 -103.5 46.5t-45.5 105.5q0 65 45.5 110t109.5 45q65 0 108.5 -45
t43.5 -110t-46.5 -108.5t-111.5 -43.5z" />
    <glyph glyph-name="j" unicode="j" horiz-adv-x="573" 
d="M23 840l399 61v-1046q0 -145 -64 -254q-53 -87 -136 -120.5t-199 -33.5q-45 0 -85.5 5t-87 19t-74.5 45.5t-28 77.5q0 50 31 80.5t80 30.5q39 0 65 -18t38.5 -44t22.5 -52t26 -44t40 -18q25 0 43.5 11t29.5 33t17.5 42t9 52.5t3 49t0.5 45.5v11v813q0 84 -9 112
q-22 67 -122 74v68zM256 1077q-59 0 -103 46.5t-44 105.5q0 65 44 110t109 45q66 0 110 -45t44 -110t-47.5 -108.5t-112.5 -43.5z" />
    <glyph glyph-name="k" unicode="k" horiz-adv-x="1064" 
d="M768 -4l-283 385l-73 -64v-77q0 -96 4 -114q9 -37 51 -51q26 -9 74 -14v-65q-41 1 -122 4t-122 4q-37 -1 -131.5 -4t-151.5 -4v65q22 0 39 2.5t30 5.5t23 11.5t16.5 14t10.5 18.5t6.5 20.5t3 26t1 27.5t0 31.5t-0.5 33.5v819v17q0 29 -0.5 42t-2.5 34t-7 30.5t-14 22.5
t-23 19t-35 11.5t-49 7.5v68l400 61v-952l204 205q1 1 12.5 14.5t16 19t14.5 18.5t14.5 21.5t8.5 19.5t4 20q0 63 -123 69v66q40 -1 121 -4t121 -4q34 1 102.5 4t102.5 4v-66q-30 -5 -57.5 -14.5t-45 -18t-43 -28.5t-35.5 -29t-39.5 -38t-39.5 -38l-99 -94l279 -362
q5 -6 21.5 -29.5t26 -35.5t25.5 -29.5t32.5 -27.5t33.5 -14v-65q-102 4 -149 8q-52 -4 -152 -8z" />
    <glyph glyph-name="l" unicode="l" horiz-adv-x="573" 
d="M154 252v829v9q0 29 -0.5 42.5t-2.5 34t-7 29.5t-14 21.5t-23.5 18.5t-35 11.5t-48.5 7.5v68l399 61v-1132v-28q0 -42 1 -60.5t7 -42.5t20 -33.5t39.5 -17t65.5 -9.5v-65q-42 1 -128.5 4t-131.5 4q-48 -1 -144.5 -4t-144.5 -4v65q104 3 126 34.5t22 136.5v20z" />
    <glyph glyph-name="m" unicode="m" horiz-adv-x="1720" 
d="M420 424v-172v-30v-29.5t0.5 -26.5t2.5 -26t6 -21.5t10 -20t14.5 -15t20 -12.5t27 -7t34.5 -3v-65q-42 1 -125 4t-125 4q-44 -1 -131 -4t-131 -4v65q81 0 108 37q21 28 21 154v274v40t-1.5 38.5t-5 40t-9.5 34.5t-16 32t-24 22t-34.5 16t-45.5 3v67q239 26 379 82
l11 -188h4q43 86 126 137t179 51q100 0 173 -47t91 -141q52 90 131 139t180 49q83 0 151 -33t103 -102q10 -20 16 -48.5t8.5 -69t3 -65t0 -72t-0.5 -54.5v-205q0 -127 20 -154q27 -37 109 -37v-65q-44 1 -132 4t-132 4q-41 -1 -124 -4t-124 -4v65q19 1 35 4t27.5 7t20 12.5
l14.5 14.5t9.5 19t5.5 21t3 25t1 26.5t-0.5 30t-0.5 31.5v260v15q0 33 -0.5 51.5t-3.5 52t-11 54t-21 42.5t-35 32.5t-52 10.5q-50 0 -90 -33t-66 -84q-29 -59 -29 -219v-182v-30v-30t1 -26t3 -26t6 -22t9.5 -20.5t14.5 -15t20.5 -13t26.5 -6t34 -2.5v-65q-42 1 -125 4
t-125 4q-41 -1 -124 -4t-124 -4v65q19 0 34.5 3t27 7t20 12.5t14.5 15t10 20t6 21.5t2.5 26t0.5 26.5v29.5v30v260v15q0 33 -0.5 51.5t-3.5 52t-11 53.5t-21 41.5t-35 32t-52 10.5q-89 0 -151 -115q-33 -61 -33 -229z" />
    <glyph glyph-name="n" unicode="n" horiz-adv-x="1146" 
d="M412 428v-176q0 -127 18 -154q27 -37 109 -37v-65q-44 1 -131.5 4t-131.5 4q-43 -1 -130 -4t-130 -4v65q82 0 109 37q18 27 18 154v293v37t-1 33.5t-3.5 33.5t-6.5 28.5t-10.5 26.5t-17 20t-23.5 17t-31 9t-40 4v67q231 22 377 80l23 -184q132 184 303 184
q71 0 136.5 -26.5t106.5 -79.5q18 -24 29 -57t15 -76.5t5 -68.5t1 -71v-270q0 -127 18 -154q27 -37 109 -37v-65q-40 1 -120 4t-120 4q-47 -1 -142.5 -4t-142.5 -4v70q85 0 109 32q20 27 20 154v256q0 119 -14 167q-28 93 -117 93q-106 0 -168 -127q-5 -10 -8.5 -20.5
t-6.5 -23t-5 -22.5t-3 -25.5t-1.5 -24.5t-1 -26t-0.5 -23.5v-25v-22.5z" />
    <glyph glyph-name="o" unicode="o" horiz-adv-x="1146" 
d="M578 901q98 0 187.5 -34t156.5 -93.5t107 -146.5t40 -187q0 -133 -66.5 -240.5t-177.5 -167t-241 -59.5q-136 0 -250.5 57t-185 165.5t-70.5 246.5q0 130 72 237t186 164.5t242 57.5zM580 819q-44 0 -78.5 -18t-56 -50t-36 -68.5t-22 -82t-10 -81.5t-2.5 -75t1.5 -70
t6.5 -73t13.5 -74.5t25 -66t39 -55.5t57 -36t76.5 -14q35 0 63.5 15t47 38t31.5 58.5t20 66.5t11 72.5t4.5 67.5t0.5 59q0 38 -1 65.5t-5 70.5t-11 74.5t-21.5 67t-34 57.5t-50.5 37t-69 15z" />
    <glyph glyph-name="p" unicode="p" horiz-adv-x="1187" 
d="M618 768q-77 0 -138.5 -62.5t-61.5 -132.5v-239q0 -228 194 -228q53 0 93 22t62.5 55t36.5 79.5t18.5 89t4.5 90.5q0 57 -9 109t-30.5 103.5t-65 82.5t-104.5 31zM418 98v-383q0 -107 9 -133q12 -38 63 -48q29 -6 85 -7v-66q-50 1 -141.5 4.5t-134.5 4.5
q-50 -1 -150.5 -4.5t-150.5 -4.5v66q108 3 130 31.5t22 136.5v20v760q0 104 -4 146.5t-21 83.5q-12 30 -39.5 39.5t-69.5 9.5v67q207 19 381 80l13 -172h4q47 82 126.5 127t174.5 45q118 0 213 -67t145.5 -171t50.5 -219q0 -125 -54 -232.5t-155 -173t-227 -65.5
q-75 0 -146 34t-124 91z" />
    <glyph glyph-name="q" unicode="q" horiz-adv-x="1146" 
d="M731 -285v404h-4q-42 -67 -110 -106.5t-146 -39.5q-124 0 -221 64t-147 167.5t-50 225.5q0 201 136 338t337 133q163 -3 281 -104l160 104h32v-1186q0 -99 5 -121q11 -44 60 -58q27 -7 69 -9v-66q-50 1 -141.5 4.5t-133.5 4.5q-46 -1 -138 -4.5t-138 -4.5v66
q23 1 40.5 2.5t32.5 4t25.5 6.5t19 10t13.5 13t9 16.5t5.5 21t2.5 25.5t1 30.5v35.5v8v7v8zM569 819q-219 0 -219 -368q0 -345 205 -345q37 0 65.5 12t47 28t31.5 46.5t19 53t9 63t3.5 60.5t0.5 61v19q0 10 0.5 40.5t0.5 46.5t-1.5 47.5t-4 50.5t-8 46.5t-13.5 44.5
t-20.5 37t-28.5 31t-38 18.5t-49 7.5z" />
    <glyph glyph-name="r" unicode="r" horiz-adv-x="819" 
d="M18 754v67l375 80l15 -199h4q42 81 110.5 140t147.5 59q63 0 109 -46t46 -112q0 -49 -32.5 -76.5t-83.5 -27.5q-31 0 -52.5 9t-33 22t-21.5 26t-23.5 22t-31.5 9q-39 0 -66 -30.5t-38.5 -79t-16 -86.5t-4.5 -74v-205v-42t1 -35t3 -31t5.5 -24t8.5 -20.5t13 -15t18 -12
t24 -6.5t31 -4.5t39 -0.5v-65q-47 1 -142 4t-142 4q-44 -1 -129.5 -4t-126.5 -4v65q81 0 108 37q21 28 21 154v332q0 95 -28.5 129.5t-107.5 40.5z" />
    <glyph glyph-name="s" unicode="s" horiz-adv-x="819" 
d="M160 63l-33 -63h-82l-10 279h82q107 -224 278 -224q65 0 112.5 32.5t47.5 94.5q0 15 -4 28t-12.5 24t-16.5 20t-23 17t-25 13t-28.5 11t-27 9t-27.5 8.5t-24 6.5q-57 17 -96.5 32t-83.5 41t-70.5 56.5t-44 76.5t-17.5 104q0 68 26.5 121.5t72.5 85.5t103 48.5t122 16.5
q68 0 122.5 -17t116.5 -55l35 72h82v-268h-82q-38 82 -97.5 134t-139.5 52q-54 0 -99 -27t-45 -79q0 -16 5 -30.5t11 -24.5t19.5 -19.5t22 -15t27.5 -12.5t27 -9.5t29.5 -8.5t26.5 -7q37 -12 56 -18t53.5 -19t53.5 -22.5t47.5 -26t44 -31.5t35 -37t29 -45.5t16.5 -54
t7 -64.5q0 -76 -29 -134t-79.5 -92.5t-112.5 -51.5t-133 -17q-72 0 -146 23t-122 67z" />
    <glyph glyph-name="t" unicode="t" horiz-adv-x="655" 
d="M629 784h-207v-516q0 -32 0.5 -49.5t4.5 -44.5t11 -41.5t22 -25.5t36 -11q61 0 120 80l70 -47q-99 -156 -289 -156q-73 0 -122 20t-75 61.5t-36 91.5t-10 122v516h-111v62q112 32 186 109t105 190h88v-279h207v-82z" />
    <glyph glyph-name="u" unicode="u" horiz-adv-x="1146" 
d="M1143 123v-66l-367 -84l-18 199h-4q-64 -102 -148 -150.5t-203 -48.5q-143 0 -201.5 78.5t-58.5 224.5v332q0 130 -18 154q-7 8 -16.5 14t-23 9t-22.5 4.5t-26 3.5t-21 2v67l396 23v-559q0 -38 1.5 -64t9.5 -58.5t22 -51.5t40.5 -32.5t63.5 -13.5q55 0 94 25t58.5 69
t27.5 90.5t8 102.5v215q0 127 -18 154q-7 11 -22.5 18t-26 9t-34 4t-26.5 2v67l396 23v-590q0 -108 20 -141q7 -11 16.5 -18t25 -9.5t23 -3.5t29 -0.5t23.5 0.5z" />
    <glyph glyph-name="v" unicode="v" horiz-adv-x="942" 
d="M569 297l115 268q1 2 17 48t24 75.5t8 48.5q0 22 -8.5 37.5t-19.5 23.5t-30 13t-30 6t-29 2v66q31 -1 94 -4t93 -4q29 1 85 4t85 4v-66q-38 -7 -63 -26.5t-52 -57.5q-13 -20 -54 -110t-80 -181t-78.5 -183.5t-41.5 -96.5l-90 -191h-84l-328 721q-32 68 -48 86
q-29 32 -83 39v66q44 -1 131 -4t131 -4q43 1 130.5 4t130.5 4v-66q-23 -1 -28.5 -1.5t-25 -2.5t-25.5 -6t-17 -11.5t-15 -20t-4 -29.5q0 -12 8.5 -36t23 -56t15.5 -35z" />
    <glyph glyph-name="w" unicode="w" horiz-adv-x="1351" 
d="M668 506l-209 -533h-82l-225 559q-3 7 -21 51.5t-29 71t-28.5 60.5t-30.5 49q-19 28 -39 39t-51 16v66q46 -1 138 -4t138 -4q43 1 128 4t128 4v-66q-26 0 -42.5 -2t-39 -8.5t-34 -23.5t-11.5 -44q0 -16 4.5 -33.5t13.5 -42t11 -32.5l121 -316l215 568h76l225 -586
l106 289q35 102 35 141q0 22 -9 38.5t-19 25t-32 14.5t-31.5 7.5t-33.5 4.5v66q32 -1 95 -4t94 -4q28 1 85 4t85 4v-66q-23 -1 -42 -8t-34.5 -22.5t-26 -28.5t-22 -38t-17 -38.5t-15.5 -42.5t-13 -37l-254 -631h-80z" />
    <glyph glyph-name="x" unicode="x" horiz-adv-x="1105" 
d="M653 506l277 -318q9 -11 26 -32t24.5 -29.5t22 -22.5t26.5 -20t31 -13t42 -10v-65q-44 1 -132 4t-132 4q-49 -1 -148.5 -4t-148.5 -4v65q90 0 90 39q0 10 -4 21t-12.5 23.5t-14.5 21t-17 21.5t-14 16l-92 114l-78 -84q-77 -85 -77 -114q0 -14 6.5 -24t20 -15.5t24 -8.5
t28 -6t23.5 -4v-65q-32 1 -94.5 4t-93.5 4q-36 -1 -106.5 -4t-106.5 -4v65q47 11 82.5 26t67 39t52 43.5t57.5 58.5q12 13 19 20l123 133l-256 299q-11 13 -34 43.5t-36.5 46.5t-39 31.5t-54.5 17.5v66q46 -1 138.5 -4t138.5 -4q44 1 133 4t133 4v-66q-33 -2 -59.5 -15
t-26.5 -42q0 -20 53 -82l92 -113l70 70q76 76 76 121q0 21 -12 33.5t-24.5 16t-34.5 7t-28 4.5v66q36 -1 107.5 -4t107.5 -4q29 1 86 4t86 4v-66q-28 -4 -53.5 -14.5t-39.5 -17t-41.5 -31t-32.5 -30t-39 -40.5z" />
    <glyph glyph-name="y" unicode="y" horiz-adv-x="901" 
d="M543 281l145 350q25 66 25 98q0 14 -2 25.5t-7 20t-9 15t-13 10.5t-14 7t-16.5 5t-16.5 3t-18 2.5t-17 1.5v66q32 -1 94 -4t94 -4q28 1 82 4t82 4v-66q-60 -7 -96 -53q-21 -26 -56 -101t-72.5 -166t-39.5 -96l-328 -708q-4 -8 -16 -33.5t-16.5 -35.5t-17 -33t-19.5 -33.5
t-20.5 -29.5t-24.5 -28t-26.5 -21.5t-31 -18.5t-35 -10.5t-40.5 -4.5q-51 0 -82 27.5t-31 76.5q0 28 11 49t24 33t40 23t41.5 14.5t45.5 10.5q62 14 100.5 51t67.5 98l69 147l-311 713q-25 59 -49 88q-13 15 -30 24t-28 11.5t-32 5.5v66q44 -1 131 -4t131 -4q44 1 132 4
t132 4v-66q-8 -1 -31.5 -2.5t-32 -3.5t-22.5 -8.5t-19 -20t-5 -34.5q0 -33 61 -189z" />
    <glyph glyph-name="z" unicode="z" horiz-adv-x="901" 
d="M850 305l-21 -305h-778v55l467 748h-37h-26.5h-30t-27.5 -0.5t-30.5 -2t-27 -4t-29.5 -6t-25 -8.5t-25 -12q-15 -8 -26.5 -17.5t-21.5 -24t-16 -23.5t-13 -29.5t-9.5 -28t-9.5 -32t-8 -29.5h-76l16 299h746v-78l-467 -725h53h5h55t48.5 1.5t45 4.5t38 8.5t35.5 13.5
t29.5 20t27.5 28.5t22.5 37.5t21 48.5t16.5 60.5h78z" />
    <glyph glyph-name="braceleft" unicode="{" horiz-adv-x="806" 
d="M700 1384v-73h-86q-129 0 -129 -140v-337q0 -73 -48 -140t-113.5 -104t-120.5 -35v-4q55 2 120.5 -35t113.5 -104t48 -140v-338q0 -137 129 -137h86v-73h-178q-50 0 -93.5 18t-72 45.5t-49.5 60t-30 61t-9 48.5v381q0 87 -49 129t-129 47v72q178 15 178 178v385
q0 26 15.5 63.5t44.5 77t80.5 67t113.5 27.5h178z" />
    <glyph glyph-name="bar" unicode="|" horiz-adv-x="450" 
d="M150 1536h151v-2048h-151v2048z" />
    <glyph glyph-name="braceright" unicode="}" horiz-adv-x="806" 
d="M539 338v-381q0 -20 -9 -48.5t-30 -61t-49.5 -60t-72 -45.5t-93.5 -18h-179v73h87q129 0 129 137v338q0 73 48 140t113.5 104t120.5 35v4q-55 -2 -120.5 35t-113.5 104t-48 140v337q0 140 -129 140h-87v73h179q62 0 113.5 -27.5t80.5 -67t44.5 -77t15.5 -63.5v-385
q0 -163 178 -178v-72q-80 -5 -129 -47t-49 -129z" />
    <glyph glyph-name="asciitilde" unicode="~" horiz-adv-x="1064" 
d="M950 674l99 -113q-27 -48 -53.5 -84.5t-62.5 -72.5t-81.5 -55t-97.5 -19q-41 0 -87.5 14t-113.5 44t-72 32q-11 4 -39.5 15.5t-44.5 18t-40.5 12t-45.5 5.5q-34 0 -62 -13.5t-54 -45t-38 -49.5t-35 -60q-3 -4 -4.5 -6.5t-2.5 -5.5l-99 112q28 51 53.5 89t62.5 77t83 59.5
t98 20.5q80 0 238 -69q5 -2 15 -7q131 -59 177 -64q8 -1 15 -1q102 0 192 166z" />
    <glyph glyph-name="uni00A0" unicode="&#xa0;" horiz-adv-x="532" 
 />
    <glyph glyph-name="exclamdown" unicode="&#xa1;" horiz-adv-x="737" 
d="M332 451h82q0 -268 49 -457l39 -154q26 -91 26 -153q0 -72 -43 -130.5t-110 -58.5q-71 0 -115.5 58t-44.5 131q0 59 27 153l39 154q51 197 51 457zM369 559q-69 0 -117.5 49.5t-48.5 118.5t48.5 116.5t117.5 47.5q68 0 117 -47t49 -115q0 -70 -48 -120t-118 -50z" />
    <glyph glyph-name="cent" unicode="&#xa2;" horiz-adv-x="1064" 
d="M561 223l-112 10l-103 -262h-82l109 283q-262 111 -262 420q0 207 141.5 338t349.5 131l107 -8l92 233h86l-101 -254q66 -19 112 -63t46 -105q0 -46 -33.5 -79t-79.5 -33q-39 0 -71.5 26.5t-48.5 65.5l-201 -537q45 -51 137 -51q78 0 129.5 33t110.5 104l67 -55
q-57 -97 -164 -147t-229 -50zM453 461l211 559q-29 37 -89 37q-44 0 -76.5 -28t-49 -66t-26.5 -92t-12.5 -92.5t-2.5 -80.5q0 -154 45 -237z" />
    <glyph glyph-name="sterling" unicode="&#xa3;" horiz-adv-x="1064" 
d="M207 264q-43 0 -78 -33t-35 -77q0 -45 31 -72t78 -27q63 0 117.5 44.5t54.5 101.5q0 13 -62.5 38t-105.5 25zM358 485l-53 166h-237l2 103h209q-39 129 -39 237q0 180 111.5 279.5t291.5 99.5q52 0 108.5 -11.5t113.5 -35t93.5 -67.5t36.5 -101q0 -47 -31 -76.5
t-77 -29.5q-25 0 -44 9t-29.5 20.5t-19.5 34.5t-12.5 37t-9.5 42q-10 55 -41 75.5t-94 20.5q-76 0 -123 -42t-47 -116q0 -56 22 -139l64 -237h266l-2 -103h-250q2 -25 7.5 -77t7.5 -78q0 -145 -43 -242q155 -45 268 -45q56 0 95.5 11.5t58.5 28.5t30.5 33.5t20 28t18.5 11.5
q25 0 25 -35q0 -119 -77.5 -216.5t-193.5 -97.5q-137 0 -303 158q-112 -158 -272 -158q-82 0 -139.5 49.5t-57.5 129.5q0 87 63 140.5t152 53.5q22 0 44 -4.5t36.5 -9.5t39.5 -14.5t40 -14.5q-3 82 -29 182z" />
    <glyph glyph-name="currency" unicode="&#xa4;" horiz-adv-x="1064" 
d="M27 1098l137 139l162 -164q91 57 204 57q119 0 211 -59l164 166l135 -139l-161 -164q57 -94 57 -209q0 -113 -57 -209l161 -164l-135 -137l-166 162q-96 -58 -209 -58q-112 0 -211 60l-155 -164l-137 137l155 164q-57 94 -57 209q0 114 59 211zM313 725q0 -91 63 -154
t154 -63t154.5 63t63.5 154t-63.5 154t-154.5 63t-154 -63t-63 -154z" />
    <glyph glyph-name="yen" unicode="&#xa5;" horiz-adv-x="1064" 
d="M655 547h322v-103h-322v-151q0 -43 0.5 -65.5t4 -49t7.5 -38t16 -25.5t24 -19t36.5 -11.5t49 -9t65.5 -5.5v-74q-48 1 -159 4t-171 4q-58 -1 -172.5 -4t-171.5 -4v74q40 4 64.5 7t48.5 9t36.5 12t24 19.5t16 26t8.5 37.5t4.5 48.5t0.5 63.5v151h-297v103h297v102l-49 86
h-262v103h207l-144 239q-5 8 -19.5 35t-22 39.5t-22.5 35.5t-27.5 35t-30 26.5t-37.5 21.5t-43 8v74q43 -1 126 -4.5t123 -4.5q45 1 135.5 4.5t135.5 4.5v-74q-4 -1 -31.5 -4t-45 -6.5t-35 -17.5t-17.5 -36q0 -63 153 -321l101 -172l145 229q37 54 78 131.5t41 112.5
q0 39 -39 61.5t-80 22.5v74q34 -1 100.5 -4.5t100.5 -4.5q34 1 100 4.5t100 4.5v-74q-23 -2 -43.5 -11t-33.5 -17.5t-29 -28t-23 -30.5t-23 -37t-22 -36l-186 -280h223v-103h-284l-52 -65v-123z" />
    <glyph glyph-name="brokenbar" unicode="&#xa6;" horiz-adv-x="450" 
d="M150 1382h151v-716h-151v716zM150 358h151v-716h-151v716z" />
    <glyph glyph-name="section" unicode="&#xa7;" horiz-adv-x="1064" 
d="M356 752q-120 -51 -120 -140q0 -25 18 -52t37.5 -45.5t59 -43.5t55.5 -34t54 -29l4.5 -3t4 -2t4.5 -2q42 -23 86.5 -49t103.5 -62t85 -52q92 80 92 151q0 31 -23 63.5t-64 62t-76.5 50.5t-82.5 46t-59 32q-96 57 -179 109zM582 68l-156 82q-68 36 -116 68.5t-96.5 79.5
t-73.5 106.5t-25 130.5q0 176 176 264q-135 110 -135 270q0 81 32 143t86.5 98.5t122 55t144.5 18.5q55 0 113 -13t113 -38.5t90.5 -72.5t35.5 -107q0 -55 -33.5 -93t-87.5 -38q-50 0 -85.5 32t-35.5 81q0 26 14 47.5t28 36.5t14 24q0 32 -66.5 50t-110.5 18
q-84 0 -155.5 -40t-71.5 -118q0 -23 7.5 -46t17 -40t30.5 -37t33.5 -31t41.5 -29.5t39.5 -24.5t43 -23.5t37.5 -20.5l111 -57q50 -27 88.5 -51.5t79 -60t67 -72.5t43 -86.5t16.5 -104.5q0 -89 -37 -151.5t-114 -127.5q135 -107 135 -270q0 -88 -34.5 -156.5t-94.5 -109.5
t-133.5 -61.5t-157.5 -20.5q-69 0 -138 15t-133.5 46.5t-104.5 88.5t-40 131q0 58 38 99.5t96 41.5q51 0 86.5 -35t35.5 -86q0 -29 -7 -44t-29 -40q-2 -3 -12.5 -15t-17.5 -22.5t-7 -17.5q0 -25 29.5 -44t72.5 -27.5t78.5 -12.5t60.5 -4q51 0 95.5 10t84 32t62.5 62t23 94
q0 24 -8 47t-17 39.5t-31.5 36.5t-34 29.5t-42 27.5t-39 22.5t-41.5 21.5z" />
    <glyph glyph-name="dieresis" unicode="&#xa8;" horiz-adv-x="819" 
d="M580 1079q-46 0 -77.5 32.5t-31.5 78.5q0 48 34 78t81 30q42 0 73 -32t31 -74q0 -46 -31.5 -79.5t-78.5 -33.5zM244 1079q-46 0 -77.5 32.5t-31.5 78.5q0 48 34 78t81 30q42 0 73 -32t31 -74q0 -46 -31.5 -79.5t-78.5 -33.5z" />
    <glyph glyph-name="copyright" unicode="&#xa9;" horiz-adv-x="1761" 
d="M881 -27q-191 0 -353.5 93.5t-257 254.5t-94.5 351q0 143 56 272t150.5 222.5t225 148.5t273.5 55t273.5 -55t225 -148.5t150 -222.5t55.5 -272q0 -114 -35.5 -221t-100.5 -192.5t-151.5 -150.5t-194 -100t-222.5 -35zM881 1237q-116 0 -220.5 -44.5t-179 -120
t-118.5 -180.5t-44 -220q0 -116 44 -220.5t118.5 -180.5t179 -120.5t220.5 -44.5q155 0 284 76t203 206t74 284t-74 284t-203 205.5t-284 75.5zM1182 991v-203h-82q-13 34 -21 54t-24.5 47t-34 41.5t-45.5 25.5t-62 11q-68 0 -116 -44t-67 -103.5t-19 -125.5
q0 -59 13.5 -116t41.5 -107t76.5 -80.5t111.5 -30.5t102.5 29.5t84.5 89.5l61 -24q-24 -60 -78 -101t-116.5 -58t-130.5 -17q-166 0 -266.5 107t-100.5 273q0 167 107.5 273t281.5 117q54 3 142 -14t141 -44z" />
    <glyph glyph-name="ordfeminine" unicode="&#xaa;" horiz-adv-x="737" 
d="M573 1176v-195q0 -2 -0.5 -8.5t0 -12t0.5 -13t1.5 -13t4 -10.5t7 -8t10.5 -3q13 0 45 23l33 -43q-22 -36 -70 -57t-96 -21q-90 0 -117 72q-82 -72 -182 -72q-63 0 -104.5 35.5t-41.5 99.5q0 18 5 35t11.5 30.5t21 27.5t24.5 23.5t30.5 21t31.5 17.5t35 16t33 13t34 12
t30 11q6 2 20 6t20.5 6.5t14.5 8t11.5 14t3.5 20.5q0 48 -13.5 72.5t-56.5 24.5q-26 0 -41 -8.5t-21 -19t-19 -38.5q-15 -35 -33 -51t-53 -16q-31 0 -54.5 18t-23.5 49q0 40 27.5 67.5t72.5 39.5t82.5 16t77.5 4q121 0 180 -39q29 -19 42.5 -47t15 -46.5t1.5 -61.5z
M387 1004v114q-1 -1 -24 -11t-28 -13t-24 -13t-25.5 -17.5t-17 -19t-14.5 -25t-4 -28.5q0 -67 59 -67q38 0 59 21.5t19 58.5z" />
    <glyph glyph-name="guillemotleft" unicode="&#xab;" horiz-adv-x="942" 
d="M481 473l148 121q14 12 40 35.5t46 41t41.5 36t35.5 28.5t19 10q14 0 14 -14q0 -18 -89 -147.5t-101 -141.5q19 -23 103.5 -148.5t84.5 -141.5q0 -17 -18 -17q-7 0 -174 154l-135 114q-43 29 -43 41q0 4 6 10t13.5 12t8.5 7zM145 473l148 121q14 12 40 35.5t46 41
t41.5 36t35.5 28.5t19 10q14 0 14 -14q0 -18 -89 -147.5t-101 -141.5q19 -23 103.5 -148.5t84.5 -141.5q0 -17 -18 -17q-7 0 -174 154l-135 114q-43 29 -43 41q0 4 6 10t13.5 12t8.5 7z" />
    <glyph glyph-name="logicalnot" unicode="&#xac;" horiz-adv-x="1064" 
d="M862 197v424h-811v151h963v-575h-152z" />
    <glyph glyph-name="uni00AD" unicode="&#xad;" horiz-adv-x="491" 
d="M483 350h-475v185h475v-185z" />
    <glyph glyph-name="registered" unicode="&#xae;" horiz-adv-x="1761" 
d="M883 -27q-192 0 -355 93.5t-257.5 255t-94.5 352.5q0 142 56 271t150.5 222t225.5 148t275 55q143 0 273 -55t224 -148t149.5 -222t55.5 -271q0 -143 -55.5 -273t-149.5 -223.5t-224 -149t-273 -55.5zM883 1237q-117 0 -221.5 -44.5t-179.5 -120t-119 -179.5t-44 -219
q0 -155 74.5 -285.5t204 -206.5t285.5 -76q155 0 283.5 76t202 206.5t73.5 285.5q0 153 -73.5 282.5t-202 205t-283.5 75.5zM807 645v-223q0 -11 1.5 -19.5t3 -14.5t6.5 -9.5t8 -5.5t12 -3t13 -1h17h19v-47h-332v47q8 0 22.5 -0.5t20 -0.5t15 1.5t13 4.5t8 8t6 13.5
t1.5 20.5v557q0 9 -2 15.5t-6.5 10.5t-8.5 6t-13 2.5t-15 1t-18 0t-19 -0.5v51h348q55 0 98.5 -7.5t85 -27t64.5 -59t23 -97.5q0 -71 -55.5 -124t-127.5 -62v-4q38 -3 71 -36.5t56 -78t45 -89t47 -75t52 -30.5v-47h-152q-24 0 -41.5 8t-31 26.5t-21.5 33.5t-20 44t-19 43
q-5 11 -16 39.5t-19.5 46.5t-22 39t-30 32t-35.5 11h-51zM807 977v-270q25 -7 45 -7q78 0 119 39.5t41 118.5q0 67 -37 106.5t-103 39.5h-32q-7 0 -12 -0.5t-8.5 -1.5t-6 -3t-4 -3t-2 -4.5t-0.5 -4.5v-5v-5z" />
    <glyph glyph-name="macron" unicode="&#xaf;" horiz-adv-x="1024" 
d="M877 1128h-742v123h742v-123z" />
    <glyph glyph-name="degree" unicode="&#xb0;" horiz-adv-x="819" 
d="M666 1128q0 -105 -75.5 -180.5t-180.5 -75.5q-106 0 -181 75t-75 181q-2 104 74 180t182 76q104 0 180 -76t76 -180zM561 1128q0 62 -45 107t-108 45q-62 0 -106.5 -45.5t-43.5 -106.5q0 -62 44.5 -106.5t107.5 -44.5q62 0 106.5 44.5t44.5 106.5z" />
    <glyph glyph-name="plusminus" unicode="&#xb1;" horiz-adv-x="1064" 
d="M51 530v152h406v281h151v-281h406v-152h-406v-280h-151v280h-406zM51 0v152h963v-152h-963z" />
    <glyph glyph-name="twosuperior" unicode="&#xb2;" horiz-adv-x="638" 
d="M426 883l-129 -95q-7 -6 -32.5 -25.5t-39.5 -32.5t-24 -28h264l143 7l-49 -228h-45q0 31 2 45q1 13 -6.5 19t-15.5 7t-23 1h-442q60 110 166 225l63 72q76 83 114 152t38 157q0 42 -10.5 79t-41 67t-77.5 30q-49 0 -79 -36.5t-30 -84.5q0 -32 20.5 -59t53.5 -27
q15 0 32 7.5t21 7.5q12 0 12 -19q0 -38 -39.5 -66t-81.5 -28q-64 0 -104.5 42t-40.5 102q0 66 44 115.5t107 72t132 22.5q120 0 202 -63t82 -174q0 -45 -13.5 -82.5t-43.5 -70.5t-56.5 -55.5t-72.5 -55.5z" />
    <glyph glyph-name="threesuperior" unicode="&#xb3;" horiz-adv-x="638" 
d="M317 963q-41 0 -71 -43q-1 -1 -4.5 -6t-4.5 -6t-4.5 -5t-5.5 -5.5t-5.5 -4.5t-6 -4.5t-6.5 -3t-8 -2t-8 -0.5q-16 0 -29.5 11t-13.5 26q0 32 53 55q86 44 133 96.5t47 130.5q0 51 -26.5 92t-77.5 41q-39 0 -71 -30t-32 -68q0 -21 14 -37t35 -16q9 0 25 6t18 6
q13 0 13 -22q0 -36 -34.5 -60t-74.5 -24q-47 0 -79 28.5t-32 71.5q0 60 45 106t106.5 67t123.5 21q89 0 155 -41t66 -120q0 -42 -18.5 -76.5t-54.5 -59.5t-66.5 -40.5t-75.5 -32.5l2 -4q14 2 49 2q91 0 156 -54t65 -137t-53.5 -149.5t-135 -100.5t-171.5 -34q-33 0 -70 7
t-74 21t-61 40t-24 59q0 29 21.5 49t51.5 20q35 0 54.5 -18t35.5 -53q1 -1 6.5 -12t6.5 -12.5t6.5 -10.5t7 -10.5t7 -8t9 -8t9.5 -6t11.5 -5.5t13.5 -2t16 -1q38 0 65.5 21.5t40.5 56.5t18 67t5 66q0 166 -93 166z" />
    <glyph glyph-name="acute" unicode="&#xb4;" horiz-adv-x="696" 
d="M135 1022l230 250q4 4 17.5 19t21 22.5t21 20t24 19t24 12t25.5 5.5q32 0 54.5 -23.5t22.5 -56.5q0 -39 -79 -86l-50 -33l-245 -149h-66z" />
    <glyph glyph-name="mu" unicode="&#xb5;" horiz-adv-x="1146" 
d="M1143 123v-66l-367 -84l-18 199h-4q-69 -111 -155 -155t-212 -44l43 -170q27 -95 27 -153q0 -72 -43.5 -130.5t-110.5 -58.5q-71 0 -115.5 58t-44.5 131v958q0 130 -18 154q-7 8 -16.5 14t-23 9t-22.5 4.5t-26 3.5t-21 2v67l396 23v-559q0 -38 1.5 -64t9.5 -58.5
t22 -51.5t40.5 -32.5t63.5 -13.5q55 0 94 25t58.5 69t27.5 90.5t8 102.5v215q0 127 -18 154q-7 11 -22.5 18t-26 9t-34 4t-26.5 2v67l396 23v-590q0 -108 20 -141q7 -11 16.5 -18t25 -9.5t23 -3.5t29 -0.5t23.5 0.5z" />
    <glyph glyph-name="paragraph" unicode="&#xb6;" horiz-adv-x="1105" 
d="M868 1085v-1077q0 -217 23 -276q6 -14 14 -24.5t22 -17.5t23 -11t29 -6.5t27 -3t30.5 -1t26.5 -0.5v-74h-365v1659h-96v-1659h-385v74q8 0 36.5 0.5t41 1t36 4.5t36.5 11t26.5 20.5t20.5 32.5q18 53 18 270v623q-383 0 -383 350q0 102 41 176.5t111.5 115.5t152.5 60
t178 19q33 -1 98.5 -4.5t98.5 -4.5q35 1 145 4.5t189 4.5v-74q-30 -1 -42 -1.5t-38 -5t-39.5 -11.5t-30 -22t-26.5 -36q-19 -40 -19 -117z" />
    <glyph glyph-name="periodcentered" unicode="&#xb7;" horiz-adv-x="532" 
d="M139 481q0 53 37.5 90t89.5 37t89.5 -37t37.5 -90t-37.5 -90t-89.5 -37t-89.5 37t-37.5 90z" />
    <glyph glyph-name="cedilla" unicode="&#xb8;" horiz-adv-x="614" 
d="M309 0l-14 -113l37 2q68 0 114 -28.5t46 -91.5q0 -61 -53 -97.5t-117 -36.5q-31 0 -65.5 9t-63.5 32.5t-29 55.5q0 17 13 30t30 13q19 0 31 -13t17.5 -29t23 -29t47.5 -13q28 0 48.5 20.5t20.5 48.5q0 39 -36 58.5t-78 19.5q-10 0 -32 -3t-32 -3l23 168h69z" />
    <glyph glyph-name="onesuperior" unicode="&#xb9;" horiz-adv-x="638" 
d="M408 1384v-651q0 -90 18 -115q6 -7 15 -12t22.5 -7t23 -3t25 -1.5t20.5 -0.5v-43q-35 0 -110 2t-115 2q-34 0 -99.5 -2t-98.5 -2v43q82 0 100 20q22 22 22 109v459q0 48 -12 63q-20 25 -113 25v45q88 9 149.5 23t121.5 46h31z" />
    <glyph glyph-name="ordmasculine" unicode="&#xba;" horiz-adv-x="737" 
d="M362 815q-121 0 -204.5 80.5t-83.5 200.5q0 117 87 195.5t206 78.5q122 0 208.5 -78t86.5 -198q0 -123 -88 -201t-212 -78zM369 1309q-109 0 -109 -211q0 -221 109 -221q30 0 51 16t31.5 37.5t16 55.5t6.5 55.5t1 52.5q0 30 -1 52t-7 55t-16.5 54.5t-31.5 37.5t-50 16z
" />
    <glyph glyph-name="guillemotright" unicode="&#xbb;" horiz-adv-x="942" 
d="M313 600l148 -121q1 -1 8.5 -7t13.5 -11.5t6 -9.5q0 -12 -43 -41l-135 -115q-167 -154 -174 -154q-18 0 -18 17q0 16 85 142t103 149q-12 12 -101 141t-89 147q0 15 14 15q7 0 35 -23t82 -71t65 -58zM649 600l148 -121q1 -1 8.5 -7t13.5 -11.5t6 -9.5q0 -12 -43 -41
l-135 -115q-167 -154 -174 -154q-18 0 -18 17q0 16 85 142t103 149q-12 12 -101 141t-89 147q0 15 14 15q7 0 35 -23t82 -71t65 -58z" />
    <glyph glyph-name="onequarter" unicode="&#xbc;" horiz-adv-x="1597" 
d="M1511 236h-135v-56q0 -89 23 -114q9 -7 24 -12t26.5 -6.5t31 -3.5t24.5 -3v-43q-36 0 -107.5 2t-107.5 2t-107 -2t-106 -2v43q85 7 99 20q26 22 26 109v66h-332v69l416 506h90v-506h135v-69zM942 305h260v311h-4zM1393 1348l-983 -1348h-109l985 1348h107zM387 1348v-652
q0 -88 19 -114q6 -7 15 -12t23 -7t22.5 -3t25.5 -2t20 -1v-43q-35 0 -110 2t-115 2q-34 0 -100 -2t-99 -2v43q81 0 100 21q23 23 23 108v459q0 48 -12 63q-20 25 -113 25v45q86 9 148 23.5t122 46.5h31z" />
    <glyph glyph-name="onehalf" unicode="&#xbd;" horiz-adv-x="1597" 
d="M334 1348v-652q0 -89 18 -114q6 -7 15 -12t23 -7t23 -3t26 -2t20 -1v-43q-35 0 -110.5 2t-115.5 2q-34 0 -99.5 -2t-98.5 -2v43q81 0 100 21q23 23 23 108v459q0 47 -13 63q-20 25 -112 25v45q86 9 148 23.5t122 46.5h31zM1339 1348l-983 -1348h-108l985 1348h106z
M1380 330l-129 -94q-7 -6 -32.5 -25.5t-39.5 -32.5t-24 -28h264l144 6l-50 -228h-45q0 31 2 45q1 13 -6.5 19t-15.5 7t-23 1h-442q60 110 166 225l63 72q76 83 114 152t38 157q0 42 -10.5 79t-41 67t-77.5 30q-49 0 -79 -36t-30 -84q0 -32 20.5 -59.5t53.5 -27.5
q15 0 32 7.5t21 7.5q6 0 9.5 -6t3.5 -13q0 -38 -39.5 -66t-81.5 -28q-64 0 -105 42t-41 102q0 66 44 115.5t107 72t132 22.5q120 0 202.5 -63t82.5 -174q0 -45 -13.5 -82.5t-44 -71t-56.5 -55t-73 -55.5z" />
    <glyph glyph-name="threequarters" unicode="&#xbe;" horiz-adv-x="1597" 
d="M1542 236h-135v-56q0 -89 23 -114q9 -7 24 -12t26.5 -6.5t31 -3.5t24.5 -3v-43q-36 0 -107.5 2t-107.5 2t-107 -2t-106 -2v43q84 7 98 20q27 23 27 109v66h-332v69l416 506h90v-506h135v-69zM1423 1348l-983 -1348h-108l985 1348h106zM973 305h260v311h-4zM348 926
q-42 0 -72 -43q-1 -1 -4.5 -6t-4.5 -6t-4.5 -5t-5.5 -5.5t-5.5 -4.5t-6 -4.5t-6.5 -3t-8 -2t-8 -0.5q-16 0 -29.5 11t-13.5 26q0 32 53 55q86 44 133.5 96.5t47.5 130.5q0 51 -27 92t-78 41q-39 0 -70.5 -30t-31.5 -68q0 -21 14 -37t35 -16q9 0 25 6t18 6q12 0 12 -22
q0 -36 -34 -60t-74 -24q-47 0 -79 28.5t-32 71.5q0 60 45 106t106.5 67.5t123.5 21.5q89 0 155 -41.5t66 -120.5q0 -42 -18.5 -76.5t-54.5 -59.5t-66.5 -40.5t-75.5 -32.5l2 -4q14 2 49 2q91 0 156 -54t65 -137t-53.5 -149.5t-135 -100.5t-171.5 -34q-33 0 -70 7t-74.5 21
t-61.5 40t-24 59q0 29 22 49t52 20q35 0 54.5 -18t35.5 -53q2 -3 6.5 -12t6.5 -12.5t6.5 -11t6.5 -10t7 -8.5t8.5 -8t9.5 -5.5t12 -5t13.5 -2.5t15.5 -1q38 0 65.5 21.5t40.5 56.5t18 67t5 66q0 166 -92 166z" />
    <glyph glyph-name="questiondown" unicode="&#xbf;" horiz-adv-x="819" 
d="M596 467v-410q-117 6 -129 6q-264 0 -264 -161q0 -78 49.5 -137.5t126.5 -59.5q37 0 107.5 15.5t107.5 15.5q56 0 99.5 -29t43.5 -82q0 -57 -49.5 -83.5t-112.5 -26.5q-126 0 -240 69t-183.5 183t-69.5 239q0 145 100.5 220t249.5 75q14 0 41 -1t41 -1v168h82zM539 559
q-69 0 -117.5 49.5t-48.5 118.5t48.5 116.5t117.5 47.5q68 0 117 -47t49 -115q0 -70 -48 -120t-118 -50z" />
    <glyph glyph-name="Agrave" unicode="&#xc0;" horiz-adv-x="1310" 
d="M326 414l-25 -60q-4 -10 -15 -39.5t-17 -46.5t-11.5 -42t-5.5 -44q0 -29 11.5 -49.5t25.5 -31.5t41.5 -18t43.5 -8.5l48 -4.5v-74q-43 1 -129 4t-129 4q-39 -1 -117 -4t-117 -4v74q27 0 51.5 7t45.5 21t38.5 28.5t34 38.5t27.5 42t25 48t21.5 47t20 49t17.5 44l405 975
h99l422 -1053q1 -2 9.5 -22.5t11 -26.5t11.5 -26t13.5 -29.5t13.5 -26.5t15 -27t14.5 -21.5t15.5 -18.5q42 -37 139 -49v-74q-61 1 -183.5 4t-184.5 4q-53 -1 -161 -4t-161 -4v74q8 1 33 3.5t39 4.5t35.5 8t33 14.5t20.5 24.5t9 37q0 34 -39 135l-43 117h-452zM365 516h372
l-180 471zM883 1489h-66l-246 149l-49 33q-80 47 -80 86q0 32 23 56t55 24q15 0 29.5 -5.5t31 -20t24.5 -21.5t27.5 -28.5t20.5 -22.5z" />
    <glyph glyph-name="Aacute" unicode="&#xc1;" horiz-adv-x="1310" 
d="M326 414l-25 -60q-4 -10 -15 -39.5t-17 -46.5t-11.5 -42t-5.5 -44q0 -29 11.5 -49.5t25.5 -31.5t41.5 -18t43.5 -8.5l48 -4.5v-74q-43 1 -129 4t-129 4q-39 -1 -117 -4t-117 -4v74q27 0 51.5 7t45.5 21t38.5 28.5t34 38.5t27.5 42t25 48t21.5 47t20 49t17.5 44l405 975
h99l422 -1053q1 -2 9.5 -22.5t11 -26.5t11.5 -26t13.5 -29.5t13.5 -26.5t15 -27t14.5 -21.5t15.5 -18.5q42 -37 139 -49v-74q-61 1 -183.5 4t-184.5 4q-53 -1 -161 -4t-161 -4v74q8 1 33 3.5t39 4.5t35.5 8t33 14.5t20.5 24.5t9 37q0 34 -39 135l-43 117h-452zM365 516h372
l-180 471zM565 1489l230 250q4 4 17.5 19t21 22.5t21 20t24 19t24 12t25.5 5.5q32 0 55 -24t23 -56q0 -39 -80 -86l-49 -33l-246 -149h-66z" />
    <glyph glyph-name="Acircumflex" unicode="&#xc2;" horiz-adv-x="1310" 
d="M326 414l-25 -60q-4 -10 -15 -39.5t-17 -46.5t-11.5 -42t-5.5 -44q0 -29 11.5 -49.5t25.5 -31.5t41.5 -18t43.5 -8.5l48 -4.5v-74q-43 1 -129 4t-129 4q-39 -1 -117 -4t-117 -4v74q27 0 51.5 7t45.5 21t38.5 28.5t34 38.5t27.5 42t25 48t21.5 47t20 49t17.5 44l405 975
h99l422 -1053q1 -2 9.5 -22.5t11 -26.5t11.5 -26t13.5 -29.5t13.5 -26.5t15 -27t14.5 -21.5t15.5 -18.5q42 -37 139 -49v-74q-61 1 -183.5 4t-184.5 4q-53 -1 -161 -4t-161 -4v74q8 1 33 3.5t39 4.5t35.5 8t33 14.5t20.5 24.5t9 37q0 34 -39 135l-43 117h-452zM365 516h372
l-180 471zM915 1489h-65l-203 192l-198 -192h-68l203 338h127z" />
    <glyph glyph-name="Atilde" unicode="&#xc3;" horiz-adv-x="1310" 
d="M326 414l-25 -60q-4 -10 -15 -39.5t-17 -46.5t-11.5 -42t-5.5 -44q0 -29 11.5 -49.5t25.5 -31.5t41.5 -18t43.5 -8.5l48 -4.5v-74q-43 1 -129 4t-129 4q-39 -1 -117 -4t-117 -4v74q27 0 51.5 7t45.5 21t38.5 28.5t34 38.5t27.5 42t25 48t21.5 47t20 49t17.5 44l405 975
h99l422 -1053q1 -2 9.5 -22.5t11 -26.5t11.5 -26t13.5 -29.5t13.5 -26.5t15 -27t14.5 -21.5t15.5 -18.5q42 -37 139 -49v-74q-61 1 -183.5 4t-184.5 4q-53 -1 -161 -4t-161 -4v74q8 1 33 3.5t39 4.5t35.5 8t33 14.5t20.5 24.5t9 37q0 34 -39 135l-43 117h-452zM365 516h372
l-180 471zM428 1548l-47 6q10 72 63.5 136.5t122.5 64.5q46 0 117 -31q93 -38 129 -38q30 0 53 21t31 50l49 -6q-12 -77 -60 -138t-120 -61q-38 0 -111 31q-5 2 -36.5 13.5t-52 16.5t-38.5 5q-35 0 -62.5 -19t-37.5 -51z" />
    <glyph glyph-name="Adieresis" unicode="&#xc4;" horiz-adv-x="1310" 
d="M326 414l-25 -60q-4 -10 -15 -39.5t-17 -46.5t-11.5 -42t-5.5 -44q0 -29 11.5 -49.5t25.5 -31.5t41.5 -18t43.5 -8.5l48 -4.5v-74q-43 1 -129 4t-129 4q-39 -1 -117 -4t-117 -4v74q27 0 51.5 7t45.5 21t38.5 28.5t34 38.5t27.5 42t25 48t21.5 47t20 49t17.5 44l405 975
h99l422 -1053q1 -2 9.5 -22.5t11 -26.5t11.5 -26t13.5 -29.5t13.5 -26.5t15 -27t14.5 -21.5t15.5 -18.5q42 -37 139 -49v-74q-61 1 -183.5 4t-184.5 4q-53 -1 -161 -4t-161 -4v74q8 1 33 3.5t39 4.5t35.5 8t33 14.5t20.5 24.5t9 37q0 34 -39 135l-43 117h-452zM365 516h372
l-180 471zM825 1546q-45 0 -76.5 32.5t-31.5 78.5q0 48 33.5 78t80.5 30q42 0 73.5 -32t31.5 -74q0 -46 -32 -79.5t-79 -33.5zM489 1546q-45 0 -76.5 32.5t-31.5 78.5q0 48 34 78t81 30q42 0 73 -32t31 -74q0 -46 -32 -79.5t-79 -33.5z" />
    <glyph glyph-name="Aring" unicode="&#xc5;" horiz-adv-x="1310" 
d="M326 414l-25 -60q-4 -10 -15 -39.5t-17 -46.5t-11.5 -42t-5.5 -44q0 -29 11.5 -49.5t25.5 -31.5t41.5 -18t43.5 -8.5l48 -4.5v-74q-43 1 -129 4t-129 4q-39 -1 -117 -4t-117 -4v74q27 0 51.5 7t45.5 21t38.5 28.5t34 38.5t27.5 42t25 48t21.5 47t20 49t17.5 44l405 975
h99l422 -1053q1 -2 9.5 -22.5t11 -26.5t11.5 -26t13.5 -29.5t13.5 -26.5t15 -27t14.5 -21.5t15.5 -18.5q42 -37 139 -49v-74q-61 1 -183.5 4t-184.5 4q-53 -1 -161 -4t-161 -4v74q8 1 33 3.5t39 4.5t35.5 8t33 14.5t20.5 24.5t9 37q0 34 -39 135l-43 117h-452zM365 516h372
l-180 471zM651 1452q-85 0 -147 59.5t-62 145.5q0 87 63.5 145t151.5 58q86 0 145.5 -62t59.5 -149q0 -83 -63.5 -140t-147.5 -57zM651 1534q48 0 83.5 35t35.5 84t-31 88t-80 39q-52 0 -89.5 -34t-37.5 -85q0 -52 34 -89.5t85 -37.5z" />
    <glyph glyph-name="AE" unicode="&#xc6;" horiz-adv-x="1802" 
d="M442 674h312v495q0 2 0.5 11t0 15.5t-1 16.5t-2 17t-4.5 14t-8 10.5t-12 3.5q-8 0 -15.5 -6.5t-14 -18.5t-10.5 -21.5t-9 -23.5t-6 -16zM561 -4v74q40 -1 70.5 3.5t51 14t34 26t21 34.5t11 45.5t4.5 54t1 63.5v17v243h-359l-108 -237q-2 -5 -15 -34.5t-20 -47.5
t-14 -42.5t-7 -39.5q0 -19 7 -34.5t23 -25.5t29 -16.5t37.5 -12t34 -7t33.5 -4.5v-74q-37 1 -109.5 4t-109.5 4q-41 -1 -124 -4t-124 -4v74q49 3 87.5 23.5t70 65.5t46 73t41.5 87q2 4 3 5.5t2 4.5t2 5l340 725q1 2 14 30t19 42t13 35.5t7 35.5q0 22 -13 36.5t-35.5 21
t-44 9.5t-48 5t-37.5 4v74h1280v-363h-82q-25 146 -111.5 207t-240.5 61q-153 0 -168 -26q-6 -10 -6 -117v-379q68 0 113.5 8t85 31t59.5 68t23 114h82q-1 -47 -4.5 -141t-4.5 -141q1 -42 4.5 -127t4.5 -127h-82q-29 139 -83 180t-198 41v-240q0 -138 11 -184
q20 -84 100 -111q48 -16 125 -16q175 0 255.5 63t116.5 234h84l-12 -391q-144 1 -430 4t-428 4q-54 -1 -163.5 -4t-164.5 -4z" />
    <glyph glyph-name="Ccedilla" unicode="&#xc7;" horiz-adv-x="1433" 
d="M688 -168l21 145q-275 25 -442 205.5t-167 464.5q0 207 91.5 372.5t255.5 258t370 92.5q223 0 387 -129l31 117h88l18 -430h-90q-34 154 -134 247t-253 93q-91 0 -163.5 -37.5t-117.5 -97.5t-75 -140.5t-41.5 -160t-11.5 -162.5q0 -89 12 -169.5t43 -159t77.5 -136
t121 -93t168.5 -36.5q86 -1 156 29t117.5 85t78.5 124.5t45 152.5h82v-461h-82l-39 119q-163 -152 -444 -152h-15l-10 -86l37 2q68 0 114 -28.5t46 -91.5q0 -61 -53 -97.5t-117 -36.5q-31 0 -65.5 9t-63.5 32.5t-29 55.5q0 17 13 30t30 13q19 0 31 -13t17.5 -29t23 -29
t47.5 -13q28 0 48.5 20.5t20.5 48.5q0 39 -36 58.5t-78 19.5q-10 0 -32 -3t-32 -3z" />
    <glyph glyph-name="Egrave" unicode="&#xc8;" horiz-adv-x="1269" 
d="M31 -4v74q32 -1 57.5 2t44.5 7.5t33.5 16.5t24 21t16 29t9.5 33t5 41t2 44.5v51.5v12v692v12v51.5t-2 44.5t-5 41t-9.5 33t-16 29t-24 21t-33.5 16.5t-44.5 7.5t-57.5 2v74q58 -1 173.5 -4.5t174.5 -4.5q125 1 375.5 4.5t375.5 4.5l17 -361h-88q-25 147 -109 206.5
t-239 59.5q-157 0 -168 -22q-6 -10 -6 -117v-379q68 0 113.5 8.5t84.5 31t59 68t23 114.5h82q-1 -47 -4 -141.5t-4 -141.5q1 -42 4 -127t4 -127h-82q-15 73 -33 114.5t-51.5 66.5t-77 32.5t-118.5 7.5v-239q0 -140 11 -185q20 -87 100 -115q49 -16 124 -16q174 0 254.5 64.5
t118.5 236.5h82q-1 -39 -4 -115.5t-4 -115.5q1 -27 4 -81.5t4 -82.5q-141 1 -424 4t-424 4q-59 -1 -174 -4t-174 -4zM862 1489h-65l-246 149l-49 33q-80 47 -80 86q0 32 23 56t55 24q15 0 29.5 -5.5t31 -20t24.5 -21.5t27.5 -28.5t20.5 -22.5z" />
    <glyph glyph-name="Eacute" unicode="&#xc9;" horiz-adv-x="1269" 
d="M31 -4v74q32 -1 57.5 2t44.5 7.5t33.5 16.5t24 21t16 29t9.5 33t5 41t2 44.5v51.5v12v692v12v51.5t-2 44.5t-5 41t-9.5 33t-16 29t-24 21t-33.5 16.5t-44.5 7.5t-57.5 2v74q58 -1 173.5 -4.5t174.5 -4.5q125 1 375.5 4.5t375.5 4.5l17 -361h-88q-25 147 -109 206.5
t-239 59.5q-157 0 -168 -22q-6 -10 -6 -117v-379q68 0 113.5 8.5t84.5 31t59 68t23 114.5h82q-1 -47 -4 -141.5t-4 -141.5q1 -42 4 -127t4 -127h-82q-15 73 -33 114.5t-51.5 66.5t-77 32.5t-118.5 7.5v-239q0 -140 11 -185q20 -87 100 -115q49 -16 124 -16q174 0 254.5 64.5
t118.5 236.5h82q-1 -39 -4 -115.5t-4 -115.5q1 -27 4 -81.5t4 -82.5q-141 1 -424 4t-424 4q-59 -1 -174 -4t-174 -4zM545 1489l229 250q4 4 17.5 19t21 22.5t21 20t24 19t24 12t25.5 5.5q32 0 55 -24t23 -56q0 -39 -80 -86l-49 -33l-246 -149h-65z" />
    <glyph glyph-name="Ecircumflex" unicode="&#xca;" horiz-adv-x="1269" 
d="M31 -4v74q32 -1 57.5 2t44.5 7.5t33.5 16.5t24 21t16 29t9.5 33t5 41t2 44.5v51.5v12v692v12v51.5t-2 44.5t-5 41t-9.5 33t-16 29t-24 21t-33.5 16.5t-44.5 7.5t-57.5 2v74q58 -1 173.5 -4.5t174.5 -4.5q125 1 375.5 4.5t375.5 4.5l17 -361h-88q-25 147 -109 206.5
t-239 59.5q-157 0 -168 -22q-6 -10 -6 -117v-379q68 0 113.5 8.5t84.5 31t59 68t23 114.5h82q-1 -47 -4 -141.5t-4 -141.5q1 -42 4 -127t4 -127h-82q-15 73 -33 114.5t-51.5 66.5t-77 32.5t-118.5 7.5v-239q0 -140 11 -185q20 -87 100 -115q49 -16 124 -16q174 0 254.5 64.5
t118.5 236.5h82q-1 -39 -4 -115.5t-4 -115.5q1 -27 4 -81.5t4 -82.5q-141 1 -424 4t-424 4q-59 -1 -174 -4t-174 -4zM895 1489h-66l-202 192l-199 -192h-68l203 338h127z" />
    <glyph glyph-name="Edieresis" unicode="&#xcb;" horiz-adv-x="1269" 
d="M31 -4v74q32 -1 57.5 2t44.5 7.5t33.5 16.5t24 21t16 29t9.5 33t5 41t2 44.5v51.5v12v692v12v51.5t-2 44.5t-5 41t-9.5 33t-16 29t-24 21t-33.5 16.5t-44.5 7.5t-57.5 2v74q58 -1 173.5 -4.5t174.5 -4.5q125 1 375.5 4.5t375.5 4.5l17 -361h-88q-25 147 -109 206.5
t-239 59.5q-157 0 -168 -22q-6 -10 -6 -117v-379q68 0 113.5 8.5t84.5 31t59 68t23 114.5h82q-1 -47 -4 -141.5t-4 -141.5q1 -42 4 -127t4 -127h-82q-15 73 -33 114.5t-51.5 66.5t-77 32.5t-118.5 7.5v-239q0 -140 11 -185q20 -87 100 -115q49 -16 124 -16q174 0 254.5 64.5
t118.5 236.5h82q-1 -39 -4 -115.5t-4 -115.5q1 -27 4 -81.5t4 -82.5q-141 1 -424 4t-424 4q-59 -1 -174 -4t-174 -4zM805 1546q-46 0 -77.5 32.5t-31.5 78.5q0 48 34 78t81 30q42 0 73 -32t31 -74q0 -46 -31.5 -79.5t-78.5 -33.5zM469 1546q-46 0 -77.5 32.5t-31.5 78.5
q0 48 34 78t81 30q42 0 73.5 -32t31.5 -74q0 -46 -32 -79.5t-79 -33.5z" />
    <glyph glyph-name="Igrave" unicode="&#xcc;" horiz-adv-x="778" 
d="M233 328v688q0 126 -10 165q-17 69 -87 88q-37 10 -95 9v74q57 -1 168.5 -4.5t167.5 -4.5q61 1 182 4.5t180 4.5v-74q-32 0 -57.5 -3.5t-44.5 -8t-33.5 -16.5t-24 -21t-16 -29.5t-9.5 -32.5t-5 -40t-2 -43.5v-50.5v-17v-697q0 -123 12 -162q19 -64 91 -80q35 -8 89 -7
v-74q-59 1 -179 4t-181 4q-57 -1 -169 -4t-169 -4v74q47 -1 81 4t54.5 22t32.5 32t17 50.5t6 58.5t1 74v17zM616 1489h-65l-246 149l-49 33q-80 47 -80 86q0 32 23 56t55 24q15 0 29.5 -5.5t31 -20t24.5 -21.5t27.5 -28.5t20.5 -22.5z" />
    <glyph glyph-name="Iacute" unicode="&#xcd;" horiz-adv-x="778" 
d="M233 328v688q0 126 -10 165q-17 69 -87 88q-37 10 -95 9v74q57 -1 168.5 -4.5t167.5 -4.5q61 1 182 4.5t180 4.5v-74q-32 0 -57.5 -3.5t-44.5 -8t-33.5 -16.5t-24 -21t-16 -29.5t-9.5 -32.5t-5 -40t-2 -43.5v-50.5v-17v-697q0 -123 12 -162q19 -64 91 -80q35 -8 89 -7
v-74q-59 1 -179 4t-181 4q-57 -1 -169 -4t-169 -4v74q47 -1 81 4t54.5 22t32.5 32t17 50.5t6 58.5t1 74v17zM299 1489l229 250q3 3 17.5 18.5t21 23t21 20.5t25 19t24 11.5t25.5 5.5q32 0 54.5 -23.5t22.5 -56.5q0 -39 -80 -86l-49 -33l-245 -149h-66z" />
    <glyph glyph-name="Icircumflex" unicode="&#xce;" horiz-adv-x="778" 
d="M233 328v688q0 126 -10 165q-17 69 -87 88q-37 10 -95 9v74q57 -1 168.5 -4.5t167.5 -4.5q61 1 182 4.5t180 4.5v-74q-32 0 -57.5 -3.5t-44.5 -8t-33.5 -16.5t-24 -21t-16 -29.5t-9.5 -32.5t-5 -40t-2 -43.5v-50.5v-17v-697q0 -123 12 -162q19 -64 91 -80q35 -8 89 -7
v-74q-59 1 -179 4t-181 4q-57 -1 -169 -4t-169 -4v74q47 -1 81 4t54.5 22t32.5 32t17 50.5t6 58.5t1 74v17zM649 1489h-65l-203 192l-199 -192h-67l202 338h127z" />
    <glyph glyph-name="Idieresis" unicode="&#xcf;" horiz-adv-x="778" 
d="M233 328v688q0 126 -10 165q-17 69 -87 88q-37 10 -95 9v74q57 -1 168.5 -4.5t167.5 -4.5q61 1 182 4.5t180 4.5v-74q-32 0 -57.5 -3.5t-44.5 -8t-33.5 -16.5t-24 -21t-16 -29.5t-9.5 -32.5t-5 -40t-2 -43.5v-50.5v-17v-697q0 -123 12 -162q19 -64 91 -80q35 -8 89 -7
v-74q-59 1 -179 4t-181 4q-57 -1 -169 -4t-169 -4v74q47 -1 81 4t54.5 22t32.5 32t17 50.5t6 58.5t1 74v17zM559 1546q-45 0 -76.5 32.5t-31.5 78.5q0 48 33.5 78t80.5 30q42 0 73.5 -32t31.5 -74q0 -46 -32 -79.5t-79 -33.5zM223 1546q-45 0 -76.5 32.5t-31.5 78.5
q0 48 33.5 78t80.5 30q42 0 73.5 -32t31.5 -74q0 -46 -32 -79.5t-79 -33.5z" />
    <glyph glyph-name="Eth" unicode="&#xd0;" horiz-adv-x="1515" 
d="M537 1190v-436h270v-103h-270v-202q0 -206 20 -259q37 -100 166 -100q66 0 119 18.5t89 49t62 76.5t41 92.5t23.5 107t11 109.5t2.5 110q0 266 -82 426q-92 178 -362 178q-64 0 -82 -18q-8 -8 -8 -49zM223 328v323h-164v103h164v266q0 131 -12 171q-19 61 -85 78
q-37 9 -95 9v74h620q341 0 543 -172q231 -196 231 -539q0 -304 -200 -487q-100 -90 -234.5 -124t-300.5 -34q-54 0 -162.5 4t-162.5 4q-63 0 -180 -3.5t-154 -4.5v74q57 0 93.5 11.5t57 26t29.5 53.5t10.5 68.5t1.5 95.5v1.5v1.5z" />
    <glyph glyph-name="Ntilde" unicode="&#xd1;" horiz-adv-x="1597" 
d="M1266 -33l-930 1059v-633v-2q0 -45 0.5 -67.5t4 -62t10.5 -60.5t21.5 -49t35 -43t52 -26t72.5 -13v-74q-41 1 -123.5 4t-123.5 4q-39 -1 -117 -4t-117 -4v74q50 5 84 18.5t53.5 32t29.5 51t12.5 63t2.5 80.5v824q-31 44 -45 61t-38.5 38t-51.5 28.5t-69 11.5v74
q33 -1 97 -4.5t97 -4.5q39 1 116 4.5t116 4.5l809 -932v545v52.5t-2 48.5t-5.5 48t-10 42.5t-16 39.5t-24.5 31.5t-34 26.5t-45 16t-58 8v74q39 -1 117 -4.5t117 -4.5q41 1 122.5 4.5t122.5 4.5v-74q-28 -5 -36 -6.5t-32 -8t-35 -13t-25.5 -18.5t-22.5 -28q-31 -59 -31 -252
v-985h-100zM571 1548l-47 6q10 71 64 136t123 65q45 0 116 -31q93 -38 129 -38q30 0 53 21t31 50l50 -6q-12 -77 -60.5 -138t-120.5 -61q-37 0 -110 31q-5 2 -36.5 13.5t-52 16.5t-38.5 5q-35 0 -63 -19t-38 -51z" />
    <glyph glyph-name="Ograve" unicode="&#xd2;" horiz-adv-x="1720" 
d="M856 -27q-123 0 -236.5 31t-207.5 91t-164 143.5t-109 195t-39 238.5q0 160 61 293t165.5 221t242.5 136t293 48t293 -48.5t242 -136.5t164.5 -221t60.5 -292t-61.5 -292.5t-166.5 -221.5t-244 -136.5t-294 -48.5zM856 1276q-94 0 -167 -37t-116 -95t-70.5 -139
t-37.5 -158t-10 -163t9.5 -165.5t37 -164t70.5 -146t116 -101t168 -39.5q97 0 171.5 35t119 91t73 135.5t38.5 158.5t10 171q0 74 -7 141.5t-24 140t-48 130.5t-75 105.5t-110 73.5t-148 26zM1087 1489h-65l-246 149l-49 33q-80 47 -80 86q0 32 23 56t55 24q15 0 29.5 -5.5
t31 -20t24.5 -21.5t27.5 -28.5t20.5 -22.5z" />
    <glyph glyph-name="Oacute" unicode="&#xd3;" horiz-adv-x="1720" 
d="M856 -27q-123 0 -236.5 31t-207.5 91t-164 143.5t-109 195t-39 238.5q0 160 61 293t165.5 221t242.5 136t293 48t293 -48.5t242 -136.5t164.5 -221t60.5 -292t-61.5 -292.5t-166.5 -221.5t-244 -136.5t-294 -48.5zM856 1276q-94 0 -167 -37t-116 -95t-70.5 -139
t-37.5 -158t-10 -163t9.5 -165.5t37 -164t70.5 -146t116 -101t168 -39.5q97 0 171.5 35t119 91t73 135.5t38.5 158.5t10 171q0 74 -7 141.5t-24 140t-48 130.5t-75 105.5t-110 73.5t-148 26zM770 1489l229 250q3 3 17.5 18.5t21 23t21 20.5t25 19t24 11.5t25.5 5.5
q32 0 54.5 -23.5t22.5 -56.5q0 -39 -80 -86l-49 -33l-245 -149h-66z" />
    <glyph glyph-name="Ocircumflex" unicode="&#xd4;" horiz-adv-x="1720" 
d="M856 -27q-123 0 -236.5 31t-207.5 91t-164 143.5t-109 195t-39 238.5q0 160 61 293t165.5 221t242.5 136t293 48t293 -48.5t242 -136.5t164.5 -221t60.5 -292t-61.5 -292.5t-166.5 -221.5t-244 -136.5t-294 -48.5zM856 1276q-94 0 -167 -37t-116 -95t-70.5 -139
t-37.5 -158t-10 -163t9.5 -165.5t37 -164t70.5 -146t116 -101t168 -39.5q97 0 171.5 35t119 91t73 135.5t38.5 158.5t10 171q0 74 -7 141.5t-24 140t-48 130.5t-75 105.5t-110 73.5t-148 26zM1120 1489h-65l-203 192l-199 -192h-67l202 338h127z" />
    <glyph glyph-name="Otilde" unicode="&#xd5;" horiz-adv-x="1720" 
d="M856 -27q-123 0 -236.5 31t-207.5 91t-164 143.5t-109 195t-39 238.5q0 160 61 293t165.5 221t242.5 136t293 48t293 -48.5t242 -136.5t164.5 -221t60.5 -292t-61.5 -292.5t-166.5 -221.5t-244 -136.5t-294 -48.5zM856 1276q-94 0 -167 -37t-116 -95t-70.5 -139
t-37.5 -158t-10 -163t9.5 -165.5t37 -164t70.5 -146t116 -101t168 -39.5q97 0 171.5 35t119 91t73 135.5t38.5 158.5t10 171q0 74 -7 141.5t-24 140t-48 130.5t-75 105.5t-110 73.5t-148 26zM633 1548l-47 6q10 72 63.5 136.5t122.5 64.5q46 0 117 -31q93 -38 129 -38
q30 0 53 21t31 50l49 -6q-12 -77 -60 -138t-120 -61q-38 0 -111 31q-5 2 -36.5 13.5t-52 16.5t-38.5 5q-35 0 -62.5 -19t-37.5 -51z" />
    <glyph glyph-name="Odieresis" unicode="&#xd6;" horiz-adv-x="1720" 
d="M856 -27q-123 0 -236.5 31t-207.5 91t-164 143.5t-109 195t-39 238.5q0 160 61 293t165.5 221t242.5 136t293 48t293 -48.5t242 -136.5t164.5 -221t60.5 -292t-61.5 -292.5t-166.5 -221.5t-244 -136.5t-294 -48.5zM856 1276q-94 0 -167 -37t-116 -95t-70.5 -139
t-37.5 -158t-10 -163t9.5 -165.5t37 -164t70.5 -146t116 -101t168 -39.5q97 0 171.5 35t119 91t73 135.5t38.5 158.5t10 171q0 74 -7 141.5t-24 140t-48 130.5t-75 105.5t-110 73.5t-148 26zM1030 1546q-45 0 -76.5 32.5t-31.5 78.5q0 48 33.5 78t80.5 30q42 0 73.5 -32
t31.5 -74q0 -46 -32 -79.5t-79 -33.5zM694 1546q-45 0 -76.5 32.5t-31.5 78.5q0 48 33.5 78t80.5 30q42 0 73.5 -32t31.5 -74q0 -46 -32 -79.5t-79 -33.5z" />
    <glyph glyph-name="multiply" unicode="&#xd7;" horiz-adv-x="1064" 
d="M426 481l-324 324l109 106l321 -323l324 323l107 -106l-322 -324l322 -323l-107 -107l-324 324l-321 -324l-109 107z" />
    <glyph glyph-name="Oslash" unicode="&#xd8;" horiz-adv-x="1720" 
d="M1468 1485l-155 -232q154 -102 231.5 -252.5t77.5 -338.5q0 -125 -41 -235t-113 -192t-168.5 -141.5t-209 -90t-232.5 -30.5q-98 0 -204 21t-175 63l-153 -219h-113l182 264q-145 92 -220 239t-75 323q0 163 61 297.5t166 223t244.5 137t298.5 48.5q194 0 359 -70
l131 185h108zM526 293l609 868q-112 115 -283 115q-93 0 -165 -37t-115 -95t-70 -138.5t-37 -158t-10 -163.5q0 -250 71 -391zM1188 1077l-608 -874q45 -67 124.5 -101t167.5 -34q69 0 126 19t97 51t71 78.5t50 97t31 111t16.5 115.5t4.5 115q0 263 -80 422z" />
    <glyph glyph-name="Ugrave" unicode="&#xd9;" horiz-adv-x="1597" 
d="M31 1278v74q53 -1 160.5 -4.5t160.5 -4.5q63 1 190 4.5t191 4.5v-74q-32 1 -58 -2.5t-45.5 -8t-34.5 -17t-24.5 -22t-16 -30.5t-10 -34.5t-5.5 -42t-2 -45.5v-53v-7v-494q0 -105 14.5 -176t52 -128t108.5 -84.5t179 -27.5q192 0 291.5 96.5t99.5 282.5v426
q0 64 -0.5 97.5t-9.5 95t-27 90.5q-45 73 -158 84v74q39 -1 117 -4.5t117 -4.5q41 1 124 4.5t124 4.5v-74q-58 -9 -96.5 -26.5t-59.5 -57.5q-11 -20 -17.5 -46.5t-9 -63.5t-3 -57t0 -65t0.5 -51v-383q0 -555 -567 -555q-112 0 -200 16t-163.5 55.5t-125 101.5t-77.5 157
t-28 221v492q0 125 -9 162q-17 68 -85 89q-38 11 -98 11zM1026 1489h-65l-246 149l-49 33q-80 47 -80 86q0 32 23 56t55 24q15 0 29.5 -5.5t31 -20t24.5 -21.5t27.5 -28.5t20.5 -22.5z" />
    <glyph glyph-name="Uacute" unicode="&#xda;" horiz-adv-x="1597" 
d="M31 1278v74q53 -1 160.5 -4.5t160.5 -4.5q63 1 190 4.5t191 4.5v-74q-32 1 -58 -2.5t-45.5 -8t-34.5 -17t-24.5 -22t-16 -30.5t-10 -34.5t-5.5 -42t-2 -45.5v-53v-7v-494q0 -105 14.5 -176t52 -128t108.5 -84.5t179 -27.5q192 0 291.5 96.5t99.5 282.5v426
q0 64 -0.5 97.5t-9.5 95t-27 90.5q-45 73 -158 84v74q39 -1 117 -4.5t117 -4.5q41 1 124 4.5t124 4.5v-74q-58 -9 -96.5 -26.5t-59.5 -57.5q-11 -20 -17.5 -46.5t-9 -63.5t-3 -57t0 -65t0.5 -51v-383q0 -555 -567 -555q-112 0 -200 16t-163.5 55.5t-125 101.5t-77.5 157
t-28 221v492q0 125 -9 162q-17 68 -85 89q-38 11 -98 11zM709 1489l229 250q4 4 17.5 19t21 22.5t21 20t24 19t24 12t25.5 5.5q32 0 55 -24t23 -56q0 -39 -80 -86l-49 -33l-246 -149h-65z" />
    <glyph glyph-name="Ucircumflex" unicode="&#xdb;" horiz-adv-x="1597" 
d="M31 1278v74q53 -1 160.5 -4.5t160.5 -4.5q63 1 190 4.5t191 4.5v-74q-32 1 -58 -2.5t-45.5 -8t-34.5 -17t-24.5 -22t-16 -30.5t-10 -34.5t-5.5 -42t-2 -45.5v-53v-7v-494q0 -105 14.5 -176t52 -128t108.5 -84.5t179 -27.5q192 0 291.5 96.5t99.5 282.5v426
q0 64 -0.5 97.5t-9.5 95t-27 90.5q-45 73 -158 84v74q39 -1 117 -4.5t117 -4.5q41 1 124 4.5t124 4.5v-74q-58 -9 -96.5 -26.5t-59.5 -57.5q-11 -20 -17.5 -46.5t-9 -63.5t-3 -57t0 -65t0.5 -51v-383q0 -555 -567 -555q-112 0 -200 16t-163.5 55.5t-125 101.5t-77.5 157
t-28 221v492q0 125 -9 162q-17 68 -85 89q-38 11 -98 11zM1059 1489h-66l-202 192l-199 -192h-68l203 338h127z" />
    <glyph glyph-name="Udieresis" unicode="&#xdc;" horiz-adv-x="1597" 
d="M31 1278v74q53 -1 160.5 -4.5t160.5 -4.5q63 1 190 4.5t191 4.5v-74q-32 1 -58 -2.5t-45.5 -8t-34.5 -17t-24.5 -22t-16 -30.5t-10 -34.5t-5.5 -42t-2 -45.5v-53v-7v-494q0 -105 14.5 -176t52 -128t108.5 -84.5t179 -27.5q192 0 291.5 96.5t99.5 282.5v426
q0 64 -0.5 97.5t-9.5 95t-27 90.5q-45 73 -158 84v74q39 -1 117 -4.5t117 -4.5q41 1 124 4.5t124 4.5v-74q-58 -9 -96.5 -26.5t-59.5 -57.5q-11 -20 -17.5 -46.5t-9 -63.5t-3 -57t0 -65t0.5 -51v-383q0 -555 -567 -555q-112 0 -200 16t-163.5 55.5t-125 101.5t-77.5 157
t-28 221v492q0 125 -9 162q-17 68 -85 89q-38 11 -98 11zM969 1546q-46 0 -77.5 32.5t-31.5 78.5q0 48 34 78t81 30q42 0 73 -32t31 -74q0 -46 -31.5 -79.5t-78.5 -33.5zM633 1546q-46 0 -77.5 32.5t-31.5 78.5q0 48 34 78t81 30q42 0 73 -32t31 -74q0 -46 -31.5 -79.5
t-78.5 -33.5z" />
    <glyph glyph-name="Yacute" unicode="&#xdd;" horiz-adv-x="1269" 
d="M797 549v-221v-12q0 -54 1 -78.5t6.5 -60.5t17.5 -50.5t34 -31.5t56.5 -21.5t84.5 -3.5v-74q-64 1 -192 4t-193 4q-54 -1 -163 -4t-164 -4v74q71 -1 111.5 10t59 49.5t21.5 66.5t5 106q1 17 1 26v180l-354 631q-33 55 -47.5 74t-43 36t-81.5 29v74q51 -1 154.5 -4.5
t154.5 -4.5q59 1 175 4.5t175 4.5v-74q-31 -2 -49 -5t-46.5 -11t-43 -26.5t-14.5 -45.5q0 -10 4.5 -25t10 -28.5t15.5 -33.5l15.5 -31t16 -30t12.5 -22l204 -371l197 330q78 142 78 197q0 102 -150 102v74q35 -1 103.5 -4.5t103.5 -4.5q40 1 121 4.5t121 4.5v-74
q-33 -3 -58.5 -14t-46.5 -33t-34 -41.5t-33 -54.5zM596 1489l229 250q4 4 17.5 19t21 22.5t21 20t24 19t24 12t25.5 5.5q32 0 55 -24t23 -56q0 -39 -80 -86l-49 -33l-245 -149h-66z" />
    <glyph glyph-name="Thorn" unicode="&#xde;" horiz-adv-x="1269" 
d="M223 328v692q0 130 -13 171q-19 61 -88 78q-36 9 -91 9v74q51 -1 168.5 -5t169.5 -4q70 0 198.5 4t175.5 5v-74q-138 0 -177 -53q-27 -37 -29 -137v-48q27 0 78.5 1t76.5 1q76 0 146 -9t144.5 -34t128.5 -64.5t89 -107t35 -155.5q0 -81 -32 -145.5t-83 -104.5t-120 -67
t-138 -37.5t-141 -10.5h-184v-2v-46.5t1.5 -39.5t4 -36t7.5 -29.5t12.5 -26.5t19 -20t26.5 -17t34.5 -10.5t44.5 -7.5t56 -2v-74q-42 1 -172.5 4.5t-201.5 3.5q-53 0 -171.5 -3.5t-166.5 -4.5v74q29 0 52 2t41.5 8t32.5 11t24.5 18t17.5 21.5t11.5 28.5t7 32t4 39.5t1.5 44
v50.5v3zM537 895v-494h43q80 0 135.5 12.5t97.5 43t62 85t20 136.5q0 129 -64 199.5t-190 70.5q-50 0 -73 -7t-27 -16t-4 -30z" />
    <glyph glyph-name="germandbls" unicode="&#xdf;" horiz-adv-x="1187" 
d="M422 879v-883q-31 1 -96 4t-97 4q-36 -1 -106.5 -4t-106.5 -4v65q86 14 100 21q28 12 34 55q4 26 4 115v586q0 65 1.5 102t8 91.5t23.5 98.5t44 84q58 88 153.5 129t209.5 41q73 0 144 -19t133 -55t100.5 -99t38.5 -142q0 -63 -21 -111t-62.5 -80.5t-85 -52.5t-106.5 -39
v-4q174 -28 283.5 -132t109.5 -273q0 -170 -110.5 -287t-278.5 -117q-92 0 -162.5 47t-70.5 134q0 50 29 86t77 36q42 0 70.5 -27.5t28.5 -68.5q0 -21 -15 -51q-18 -32 -18 -45q0 -14 15 -21.5t34 -7.5t34.5 7.5t26 23.5t18.5 32t12.5 41.5t7.5 43.5t4 46.5t1.5 42t0 38.5
t-0.5 28q0 161 -32 256q-21 59 -61.5 85.5t-104.5 29.5q-4 0 -19 -0.5t-22 -0.5t-18.5 2t-17.5 6.5t-10.5 13t-4.5 20.5q0 7 1.5 12.5t3.5 9t6.5 6.5t7 4.5t9 3.5t9 2.5t10.5 1.5t10 1q26 3 38 4.5t28 9t30 21.5q47 49 47 180q0 277 -170 277q-55 0 -89.5 -40t-47.5 -100
q-5 -22 -7.5 -49.5t-3.5 -62.5t-1.5 -57.5t0 -63.5t0.5 -51z" />
    <glyph glyph-name="agrave" unicode="&#xe0;" horiz-adv-x="983" 
d="M582 254v244q-35 -15 -46.5 -20.5t-44.5 -22t-46.5 -27t-37.5 -30t-34.5 -37.5t-19.5 -43t-9 -52q0 -57 24.5 -98t75.5 -41q48 0 93 39t45 88zM963 156l41 -56q-31 -57 -104 -92t-142 -35q-72 0 -114.5 34t-63.5 104q-58 -61 -135 -99.5t-154 -38.5q-99 0 -167.5 62
t-68.5 160q0 30 7.5 57.5t17.5 49t30.5 43.5t37 37.5t47 33.5t49 28.5t56 26.5t55 23t58 22t54.5 21q12 5 35.5 12.5t33.5 12t23 14.5t18 25t5 38q0 41 -3.5 67.5t-14.5 55t-36 43t-65 14.5q-55 0 -80 -22.5t-49 -79.5q-12 -31 -20.5 -49t-24 -39t-37.5 -31t-51 -10
q-48 0 -79.5 30.5t-31.5 79.5q0 50 29.5 88t72.5 59t100 34.5t102.5 17.5t90.5 4q365 0 365 -254v-416q0 -104 43 -104q16 0 28.5 4t20 9t21.5 16zM621 1022h-66l-246 149l-49 33q-80 47 -80 86q0 32 23 56t55 24q15 0 29.5 -5.5t31 -20t24.5 -21.5t27.5 -28.5t20.5 -22.5z
" />
    <glyph glyph-name="aacute" unicode="&#xe1;" horiz-adv-x="983" 
d="M582 254v244q-35 -15 -46.5 -20.5t-44.5 -22t-46.5 -27t-37.5 -30t-34.5 -37.5t-19.5 -43t-9 -52q0 -57 24.5 -98t75.5 -41q48 0 93 39t45 88zM963 156l41 -56q-31 -57 -104 -92t-142 -35q-72 0 -114.5 34t-63.5 104q-58 -61 -135 -99.5t-154 -38.5q-99 0 -167.5 62
t-68.5 160q0 30 7.5 57.5t17.5 49t30.5 43.5t37 37.5t47 33.5t49 28.5t56 26.5t55 23t58 22t54.5 21q12 5 35.5 12.5t33.5 12t23 14.5t18 25t5 38q0 41 -3.5 67.5t-14.5 55t-36 43t-65 14.5q-55 0 -80 -22.5t-49 -79.5q-12 -31 -20.5 -49t-24 -39t-37.5 -31t-51 -10
q-48 0 -79.5 30.5t-31.5 79.5q0 50 29.5 88t72.5 59t100 34.5t102.5 17.5t90.5 4q365 0 365 -254v-416q0 -104 43 -104q16 0 28.5 4t20 9t21.5 16zM279 1022l229 250q4 4 17.5 19t21 22.5t21 20t24 19t24 12t25.5 5.5q32 0 55 -24t23 -56q0 -39 -80 -86l-49 -33l-246 -149
h-65z" />
    <glyph glyph-name="acircumflex" unicode="&#xe2;" horiz-adv-x="983" 
d="M582 254v244q-35 -15 -46.5 -20.5t-44.5 -22t-46.5 -27t-37.5 -30t-34.5 -37.5t-19.5 -43t-9 -52q0 -57 24.5 -98t75.5 -41q48 0 93 39t45 88zM963 156l41 -56q-31 -57 -104 -92t-142 -35q-72 0 -114.5 34t-63.5 104q-58 -61 -135 -99.5t-154 -38.5q-99 0 -167.5 62
t-68.5 160q0 30 7.5 57.5t17.5 49t30.5 43.5t37 37.5t47 33.5t49 28.5t56 26.5t55 23t58 22t54.5 21q12 5 35.5 12.5t33.5 12t23 14.5t18 25t5 38q0 41 -3.5 67.5t-14.5 55t-36 43t-65 14.5q-55 0 -80 -22.5t-49 -79.5q-12 -31 -20.5 -49t-24 -39t-37.5 -31t-51 -10
q-48 0 -79.5 30.5t-31.5 79.5q0 50 29.5 88t72.5 59t100 34.5t102.5 17.5t90.5 4q365 0 365 -254v-416q0 -104 43 -104q16 0 28.5 4t20 9t21.5 16zM752 1022h-66l-203 192l-198 -192h-68l203 338h127z" />
    <glyph glyph-name="atilde" unicode="&#xe3;" horiz-adv-x="983" 
d="M582 254v244q-35 -15 -46.5 -20.5t-44.5 -22t-46.5 -27t-37.5 -30t-34.5 -37.5t-19.5 -43t-9 -52q0 -57 24.5 -98t75.5 -41q48 0 93 39t45 88zM963 156l41 -56q-31 -57 -104 -92t-142 -35q-72 0 -114.5 34t-63.5 104q-58 -61 -135 -99.5t-154 -38.5q-99 0 -167.5 62
t-68.5 160q0 30 7.5 57.5t17.5 49t30.5 43.5t37 37.5t47 33.5t49 28.5t56 26.5t55 23t58 22t54.5 21q12 5 35.5 12.5t33.5 12t23 14.5t18 25t5 38q0 41 -3.5 67.5t-14.5 55t-36 43t-65 14.5q-55 0 -80 -22.5t-49 -79.5q-12 -31 -20.5 -49t-24 -39t-37.5 -31t-51 -10
q-48 0 -79.5 30.5t-31.5 79.5q0 50 29.5 88t72.5 59t100 34.5t102.5 17.5t90.5 4q365 0 365 -254v-416q0 -104 43 -104q16 0 28.5 4t20 9t21.5 16zM264 1081l-47 6q10 72 63.5 136.5t122.5 64.5q46 0 117 -31q93 -38 129 -38q30 0 53 21t31 50l49 -6q-12 -77 -60 -138
t-120 -61q-37 0 -110 31q-5 2 -36.5 13.5t-52 16.5t-38.5 5q-35 0 -63 -19t-38 -51z" />
    <glyph glyph-name="adieresis" unicode="&#xe4;" horiz-adv-x="983" 
d="M582 254v244q-35 -15 -46.5 -20.5t-44.5 -22t-46.5 -27t-37.5 -30t-34.5 -37.5t-19.5 -43t-9 -52q0 -57 24.5 -98t75.5 -41q48 0 93 39t45 88zM963 156l41 -56q-31 -57 -104 -92t-142 -35q-72 0 -114.5 34t-63.5 104q-58 -61 -135 -99.5t-154 -38.5q-99 0 -167.5 62
t-68.5 160q0 30 7.5 57.5t17.5 49t30.5 43.5t37 37.5t47 33.5t49 28.5t56 26.5t55 23t58 22t54.5 21q12 5 35.5 12.5t33.5 12t23 14.5t18 25t5 38q0 41 -3.5 67.5t-14.5 55t-36 43t-65 14.5q-55 0 -80 -22.5t-49 -79.5q-12 -31 -20.5 -49t-24 -39t-37.5 -31t-51 -10
q-48 0 -79.5 30.5t-31.5 79.5q0 50 29.5 88t72.5 59t100 34.5t102.5 17.5t90.5 4q365 0 365 -254v-416q0 -104 43 -104q16 0 28.5 4t20 9t21.5 16zM662 1079q-46 0 -77.5 32.5t-31.5 78.5q0 48 34 78t81 30q42 0 73 -32t31 -74q0 -46 -31.5 -79.5t-78.5 -33.5zM326 1079
q-46 0 -77.5 32.5t-31.5 78.5q0 48 34 78t81 30q42 0 73 -32t31 -74q0 -46 -31.5 -79.5t-78.5 -33.5z" />
    <glyph glyph-name="aring" unicode="&#xe5;" horiz-adv-x="983" 
d="M582 254v244q-35 -15 -46.5 -20.5t-44.5 -22t-46.5 -27t-37.5 -30t-34.5 -37.5t-19.5 -43t-9 -52q0 -57 24.5 -98t75.5 -41q48 0 93 39t45 88zM963 156l41 -56q-31 -57 -104 -92t-142 -35q-72 0 -114.5 34t-63.5 104q-58 -61 -135 -99.5t-154 -38.5q-99 0 -167.5 62
t-68.5 160q0 30 7.5 57.5t17.5 49t30.5 43.5t37 37.5t47 33.5t49 28.5t56 26.5t55 23t58 22t54.5 21q12 5 35.5 12.5t33.5 12t23 14.5t18 25t5 38q0 41 -3.5 67.5t-14.5 55t-36 43t-65 14.5q-55 0 -80 -22.5t-49 -79.5q-12 -31 -20.5 -49t-24 -39t-37.5 -31t-51 -10
q-48 0 -79.5 30.5t-31.5 79.5q0 50 29.5 88t72.5 59t100 34.5t102.5 17.5t90.5 4q365 0 365 -254v-416q0 -104 43 -104q16 0 28.5 4t20 9t21.5 16zM487 985q-85 0 -146.5 59.5t-61.5 145.5q0 87 63.5 145t151.5 58q86 0 145 -62t59 -149q0 -83 -63.5 -140t-147.5 -57z
M487 1067q48 0 83.5 35t35.5 84t-30.5 88t-79.5 39q-52 0 -89.5 -34t-37.5 -85q0 -52 33.5 -89.5t84.5 -37.5z" />
    <glyph glyph-name="ae" unicode="&#xe6;" horiz-adv-x="1474" 
d="M844 561h215q2 0 16.5 -0.5t19.5 0t17.5 1.5t18 4.5t13 9t10.5 14t3 20.5q0 82 -43 145.5t-121 63.5q-40 0 -70.5 -25.5t-46.5 -66.5t-24 -83t-8 -83zM575 479q-44 -12 -81.5 -29t-73 -42.5t-56 -63t-20.5 -82.5q0 -50 25.5 -92.5t72.5 -42.5q45 0 90 31.5t80 74.5
q-40 111 -37 246zM1325 479h-481q1 -48 4.5 -84.5t11.5 -86t24.5 -85t41.5 -68.5t65 -50t92 -17q72 0 129 38t117 107l64 -63q-156 -197 -387 -197q-107 0 -208.5 49t-148.5 138q-73 -80 -167.5 -133.5t-188.5 -53.5q-93 0 -165.5 60.5t-72.5 150.5q0 93 58.5 154.5
t154.5 107.5q48 22 152 59t135 58q31 19 31 88q0 39 -3.5 64.5t-15 51.5t-37 39t-65.5 13q-30 0 -51 -8t-35.5 -28t-21.5 -35.5t-19 -49.5q-15 -45 -45.5 -74.5t-73.5 -29.5q-48 0 -83.5 26.5t-35.5 73.5q0 55 35.5 97.5t91 65t111 33.5t106.5 11q196 0 295 -115
q49 55 125 85t154 30q92 0 171 -33.5t129 -86.5t78.5 -116t28.5 -124q0 -15 -1.5 -26t-8 -18t-10 -11t-16 -5.5t-17 -2t-23 0t-24.5 0.5z" />
    <glyph glyph-name="ccedilla" unicode="&#xe7;" horiz-adv-x="942" 
d="M381 -168l20 156q-154 33 -244.5 149.5t-90.5 286.5q0 143 69.5 253t185.5 167t257 57q46 0 98.5 -11t104.5 -32.5t86 -61.5t34 -91q0 -45 -31 -78t-75 -33q-45 0 -74.5 23t-44 56t-28 66.5t-39 56.5t-64.5 23q-47 0 -82 -27t-53.5 -65t-30 -91t-14.5 -94t-3 -85
q0 -369 248 -369q39 0 72.5 10.5t64 34t51.5 44t52 56.5l63 -55q-69 -101 -170 -153t-223 -52q-33 0 -49 2l-12 -88l37 2q67 0 113 -28t46 -92q0 -61 -53 -97.5t-117 -36.5q-31 0 -65.5 9t-63 32.5t-28.5 55.5q0 17 13 30t30 13q19 0 31 -13t17 -29t22.5 -29t47.5 -13
q28 0 49 20.5t21 48.5q0 39 -36 58.5t-79 19.5q-10 0 -31.5 -3t-31.5 -3z" />
    <glyph glyph-name="egrave" unicode="&#xe8;" horiz-adv-x="1024" 
d="M883 473h-521q-2 -73 10 -137t41 -122t84.5 -92t133.5 -34q42 0 75.5 8.5t65.5 31.5t51.5 40.5t57.5 56.5l63 -51q-65 -99 -166.5 -150t-224.5 -51q-205 0 -341.5 122t-145.5 327q-6 139 57 249.5t175 170t251 59.5q110 0 204.5 -46t153 -134t58.5 -199q0 -11 -2 -18.5
t-4 -13t-7.5 -9t-9 -5.5t-12.5 -2.5t-13.5 -0.5h-16.5h-17zM365 555h272q33 0 46 12.5t13 44.5q0 78 -45 142.5t-119 64.5q-44 0 -77.5 -25t-51.5 -66.5t-27 -84.5t-11 -88zM641 1022h-66l-245 149l-49 33q-80 47 -80 86q0 32 23 56t55 24q15 0 29.5 -5.5t31 -20t24.5 -21.5
t27.5 -28.5t20.5 -22.5z" />
    <glyph glyph-name="eacute" unicode="&#xe9;" horiz-adv-x="1024" 
d="M883 473h-521q-2 -73 10 -137t41 -122t84.5 -92t133.5 -34q42 0 75.5 8.5t65.5 31.5t51.5 40.5t57.5 56.5l63 -51q-65 -99 -166.5 -150t-224.5 -51q-205 0 -341.5 122t-145.5 327q-6 139 57 249.5t175 170t251 59.5q110 0 204.5 -46t153 -134t58.5 -199q0 -11 -2 -18.5
t-4 -13t-7.5 -9t-9 -5.5t-12.5 -2.5t-13.5 -0.5h-16.5h-17zM365 555h272q33 0 46 12.5t13 44.5q0 78 -45 142.5t-119 64.5q-44 0 -77.5 -25t-51.5 -66.5t-27 -84.5t-11 -88zM299 1022l229 250q3 3 17.5 18.5t21 23t21 20.5t25 19t24 11.5t25.5 5.5q32 0 54.5 -23.5
t22.5 -56.5q0 -39 -80 -86l-49 -33l-245 -149h-66z" />
    <glyph glyph-name="ecircumflex" unicode="&#xea;" horiz-adv-x="1024" 
d="M883 473h-521q-2 -73 10 -137t41 -122t84.5 -92t133.5 -34q42 0 75.5 8.5t65.5 31.5t51.5 40.5t57.5 56.5l63 -51q-65 -99 -166.5 -150t-224.5 -51q-205 0 -341.5 122t-145.5 327q-6 139 57 249.5t175 170t251 59.5q110 0 204.5 -46t153 -134t58.5 -199q0 -11 -2 -18.5
t-4 -13t-7.5 -9t-9 -5.5t-12.5 -2.5t-13.5 -0.5h-16.5h-17zM365 555h272q33 0 46 12.5t13 44.5q0 78 -45 142.5t-119 64.5q-44 0 -77.5 -25t-51.5 -66.5t-27 -84.5t-11 -88zM772 1022h-65l-203 192l-199 -192h-67l202 338h127z" />
    <glyph glyph-name="edieresis" unicode="&#xeb;" horiz-adv-x="1024" 
d="M883 473h-521q-2 -73 10 -137t41 -122t84.5 -92t133.5 -34q42 0 75.5 8.5t65.5 31.5t51.5 40.5t57.5 56.5l63 -51q-65 -99 -166.5 -150t-224.5 -51q-205 0 -341.5 122t-145.5 327q-6 139 57 249.5t175 170t251 59.5q110 0 204.5 -46t153 -134t58.5 -199q0 -11 -2 -18.5
t-4 -13t-7.5 -9t-9 -5.5t-12.5 -2.5t-13.5 -0.5h-16.5h-17zM365 555h272q33 0 46 12.5t13 44.5q0 78 -45 142.5t-119 64.5q-44 0 -77.5 -25t-51.5 -66.5t-27 -84.5t-11 -88zM682 1079q-46 0 -77.5 32.5t-31.5 78.5q0 48 34 78t81 30q42 0 73.5 -32t31.5 -74q0 -46 -32 -79.5
t-79 -33.5zM346 1079q-45 0 -76.5 32.5t-31.5 78.5q0 48 33.5 78t80.5 30q42 0 73.5 -32t31.5 -74q0 -46 -32 -79.5t-79 -33.5z" />
    <glyph glyph-name="igrave" unicode="&#xec;" horiz-adv-x="573" 
d="M422 901v-649q0 -127 20 -154q27 -37 109 -37v-65q-39 1 -123.5 4t-128.5 4q-46 -1 -137 -4t-137 -4v65q81 0 108 37q21 28 21 154v354q0 96 -26 131.5t-105 34.5v68q216 16 399 61zM416 1022h-66l-246 149l-49 33q-80 47 -80 86q0 32 23 56t55 24q15 0 29.5 -5.5t31 -20
t24.5 -21.5t27.5 -28.5t20.5 -22.5z" />
    <glyph glyph-name="iacute" unicode="&#xed;" horiz-adv-x="573" 
d="M422 901v-649q0 -127 20 -154q27 -37 109 -37v-65q-39 1 -123.5 4t-128.5 4q-46 -1 -137 -4t-137 -4v65q81 0 108 37q21 28 21 154v354q0 96 -26 131.5t-105 34.5v68q216 16 399 61zM74 1022l229 250q4 4 17.5 19t21 22.5t21 20t24 19t24 12t25.5 5.5q32 0 55 -24t23 -56
q0 -39 -80 -86l-49 -33l-246 -149h-65z" />
    <glyph glyph-name="icircumflex" unicode="&#xee;" horiz-adv-x="573" 
d="M422 901v-649q0 -127 20 -154q27 -37 109 -37v-65q-39 1 -123.5 4t-128.5 4q-46 -1 -137 -4t-137 -4v65q81 0 108 37q21 28 21 154v354q0 96 -26 131.5t-105 34.5v68q216 16 399 61zM547 1022h-66l-202 192l-199 -192h-68l203 338h127z" />
    <glyph glyph-name="idieresis" unicode="&#xef;" horiz-adv-x="573" 
d="M422 901v-649q0 -127 20 -154q27 -37 109 -37v-65q-39 1 -123.5 4t-128.5 4q-46 -1 -137 -4t-137 -4v65q81 0 108 37q21 28 21 154v354q0 96 -26 131.5t-105 34.5v68q216 16 399 61zM457 1079q-46 0 -77.5 32.5t-31.5 78.5q0 48 34 78t81 30q42 0 73 -32t31 -74
q0 -46 -31.5 -79.5t-78.5 -33.5zM121 1079q-46 0 -77.5 32.5t-31.5 78.5q0 48 34 78t81 30q42 0 73 -32t31 -74q0 -46 -31.5 -79.5t-78.5 -33.5z" />
    <glyph glyph-name="eth" unicode="&#xf0;" horiz-adv-x="1146" 
d="M573 819q-42 0 -75.5 -18t-54 -50t-35 -68.5t-21.5 -82t-9.5 -81.5t-2.5 -75q0 -389 198 -389q199 0 199 389q0 39 -2.5 75t-9.5 81.5t-21.5 82t-35.5 68.5t-54.5 50t-75.5 18zM289 1008l-78 77l272 111q-67 56 -223 102l100 99q181 -41 314 -121l260 106l78 -77
l-236 -97q293 -240 293 -694q0 -129 -44 -234.5t-116 -171t-158.5 -100.5t-177.5 -35q-97 0 -187 33.5t-158 93.5t-109 149t-41 193q0 130 72 237t184.5 164.5t238.5 57.5q46 0 89 -16.5t61 -40.5l4 4q-12 62 -59.5 142t-104.5 130z" />
    <glyph glyph-name="ntilde" unicode="&#xf1;" horiz-adv-x="1146" 
d="M412 428v-176q0 -127 18 -154q27 -37 109 -37v-65q-44 1 -131.5 4t-131.5 4q-43 -1 -130 -4t-130 -4v65q82 0 109 37q18 27 18 154v293v37t-1 33.5t-3.5 33.5t-6.5 28.5t-10.5 26.5t-17 20t-23.5 17t-31 9t-40 4v67q231 22 377 80l23 -184q132 184 303 184
q71 0 136.5 -26.5t106.5 -79.5q18 -24 29 -57t15 -76.5t5 -68.5t1 -71v-270q0 -127 18 -154q27 -37 109 -37v-65q-40 1 -120 4t-120 4q-47 -1 -142.5 -4t-142.5 -4v70q85 0 109 32q20 27 20 154v256q0 119 -14 167q-28 93 -117 93q-106 0 -168 -127q-5 -10 -8.5 -20.5
t-6.5 -23t-5 -22.5t-3 -25.5t-1.5 -24.5t-1 -26t-0.5 -23.5v-25v-22.5zM346 1081l-47 6q10 72 63.5 136.5t122.5 64.5q46 0 117 -31q93 -38 129 -38q30 0 53 21t31 50l49 -6q-12 -77 -60 -138t-120 -61q-38 0 -111 31q-5 2 -36.5 13.5t-52 16.5t-38.5 5q-35 0 -62.5 -19
t-37.5 -51z" />
    <glyph glyph-name="ograve" unicode="&#xf2;" horiz-adv-x="1146" 
d="M578 901q98 0 187.5 -34t156.5 -93.5t107 -146.5t40 -187q0 -133 -66.5 -240.5t-177.5 -167t-241 -59.5q-136 0 -250.5 57t-185 165.5t-70.5 246.5q0 130 72 237t186 164.5t242 57.5zM580 819q-44 0 -78.5 -18t-56 -50t-36 -68.5t-22 -82t-10 -81.5t-2.5 -75t1.5 -70
t6.5 -73t13.5 -74.5t25 -66t39 -55.5t57 -36t76.5 -14q35 0 63.5 15t47 38t31.5 58.5t20 66.5t11 72.5t4.5 67.5t0.5 59q0 38 -1 65.5t-5 70.5t-11 74.5t-21.5 67t-34 57.5t-50.5 37t-69 15zM702 1022h-65l-246 149l-49 33q-80 47 -80 86q0 32 23 56t55 24q15 0 29.5 -5.5
t31 -20t24.5 -21.5t27.5 -28.5t20.5 -22.5z" />
    <glyph glyph-name="oacute" unicode="&#xf3;" horiz-adv-x="1146" 
d="M578 901q98 0 187.5 -34t156.5 -93.5t107 -146.5t40 -187q0 -133 -66.5 -240.5t-177.5 -167t-241 -59.5q-136 0 -250.5 57t-185 165.5t-70.5 246.5q0 130 72 237t186 164.5t242 57.5zM580 819q-44 0 -78.5 -18t-56 -50t-36 -68.5t-22 -82t-10 -81.5t-2.5 -75t1.5 -70
t6.5 -73t13.5 -74.5t25 -66t39 -55.5t57 -36t76.5 -14q35 0 63.5 15t47 38t31.5 58.5t20 66.5t11 72.5t4.5 67.5t0.5 59q0 38 -1 65.5t-5 70.5t-11 74.5t-21.5 67t-34 57.5t-50.5 37t-69 15zM360 1022l230 250q4 4 17.5 19t21 22.5t21 20t24 19t24 12t25.5 5.5q32 0 55 -24
t23 -56q0 -39 -80 -86l-49 -33l-246 -149h-66z" />
    <glyph glyph-name="ocircumflex" unicode="&#xf4;" horiz-adv-x="1146" 
d="M578 901q98 0 187.5 -34t156.5 -93.5t107 -146.5t40 -187q0 -133 -66.5 -240.5t-177.5 -167t-241 -59.5q-136 0 -250.5 57t-185 165.5t-70.5 246.5q0 130 72 237t186 164.5t242 57.5zM580 819q-44 0 -78.5 -18t-56 -50t-36 -68.5t-22 -82t-10 -81.5t-2.5 -75t1.5 -70
t6.5 -73t13.5 -74.5t25 -66t39 -55.5t57 -36t76.5 -14q35 0 63.5 15t47 38t31.5 58.5t20 66.5t11 72.5t4.5 67.5t0.5 59q0 38 -1 65.5t-5 70.5t-11 74.5t-21.5 67t-34 57.5t-50.5 37t-69 15zM834 1022h-66l-203 192l-198 -192h-68l203 338h127z" />
    <glyph glyph-name="otilde" unicode="&#xf5;" horiz-adv-x="1146" 
d="M578 901q98 0 187.5 -34t156.5 -93.5t107 -146.5t40 -187q0 -133 -66.5 -240.5t-177.5 -167t-241 -59.5q-136 0 -250.5 57t-185 165.5t-70.5 246.5q0 130 72 237t186 164.5t242 57.5zM580 819q-44 0 -78.5 -18t-56 -50t-36 -68.5t-22 -82t-10 -81.5t-2.5 -75t1.5 -70
t6.5 -73t13.5 -74.5t25 -66t39 -55.5t57 -36t76.5 -14q35 0 63.5 15t47 38t31.5 58.5t20 66.5t11 72.5t4.5 67.5t0.5 59q0 38 -1 65.5t-5 70.5t-11 74.5t-21.5 67t-34 57.5t-50.5 37t-69 15zM346 1081l-47 6q10 72 63.5 136.5t122.5 64.5q46 0 117 -31q93 -38 129 -38
q30 0 53 21t31 50l49 -6q-12 -77 -60 -138t-120 -61q-38 0 -111 31q-5 2 -36.5 13.5t-52 16.5t-38.5 5q-35 0 -62.5 -19t-37.5 -51z" />
    <glyph glyph-name="odieresis" unicode="&#xf6;" horiz-adv-x="1146" 
d="M578 901q98 0 187.5 -34t156.5 -93.5t107 -146.5t40 -187q0 -133 -66.5 -240.5t-177.5 -167t-241 -59.5q-136 0 -250.5 57t-185 165.5t-70.5 246.5q0 130 72 237t186 164.5t242 57.5zM580 819q-44 0 -78.5 -18t-56 -50t-36 -68.5t-22 -82t-10 -81.5t-2.5 -75t1.5 -70
t6.5 -73t13.5 -74.5t25 -66t39 -55.5t57 -36t76.5 -14q35 0 63.5 15t47 38t31.5 58.5t20 66.5t11 72.5t4.5 67.5t0.5 59q0 38 -1 65.5t-5 70.5t-11 74.5t-21.5 67t-34 57.5t-50.5 37t-69 15zM743 1079q-45 0 -76.5 32.5t-31.5 78.5q0 48 34 78t81 30q42 0 73 -32t31 -74
q0 -46 -32 -79.5t-79 -33.5zM408 1079q-46 0 -77.5 32.5t-31.5 78.5q0 48 34 78t81 30q42 0 73 -32t31 -74q0 -46 -31.5 -79.5t-78.5 -33.5z" />
    <glyph glyph-name="divide" unicode="&#xf7;" horiz-adv-x="1064" 
d="M51 406v151h963v-151h-963zM532 743q-45 0 -76.5 32.5t-31.5 78.5q0 48 34 78.5t81 30.5q42 0 73 -32.5t31 -74.5q0 -46 -32 -79.5t-79 -33.5zM532 0q-45 0 -76.5 32.5t-31.5 78.5q0 48 34 78t81 30q42 0 73 -32t31 -74q0 -46 -32 -79.5t-79 -33.5z" />
    <glyph glyph-name="oslash" unicode="&#xf8;" horiz-adv-x="1146" 
d="M995 1051l-139 -232q98 -48 158.5 -160.5t60.5 -226.5q0 -135 -72.5 -241.5t-188 -162t-247.5 -55.5q-102 0 -200 43l-131 -217h-93l154 254q-100 55 -161.5 161t-61.5 220q0 137 72.5 245.5t188 165t249.5 56.5q94 0 202 -43l119 193h90zM752 649l-316 -518
q27 -30 40.5 -42.5t39 -23t57.5 -10.5q205 0 205 375q0 115 -26 219zM399 223l318 529q-48 67 -129 67q-217 0 -217 -381q0 -106 28 -215z" />
    <glyph glyph-name="ugrave" unicode="&#xf9;" horiz-adv-x="1146" 
d="M1143 123v-66l-367 -84l-18 199h-4q-64 -102 -148 -150.5t-203 -48.5q-143 0 -201.5 78.5t-58.5 224.5v332q0 130 -18 154q-7 8 -16.5 14t-23 9t-22.5 4.5t-26 3.5t-21 2v67l396 23v-559q0 -38 1.5 -64t9.5 -58.5t22 -51.5t40.5 -32.5t63.5 -13.5q55 0 94 25t58.5 69
t27.5 90.5t8 102.5v215q0 127 -18 154q-7 11 -22.5 18t-26 9t-34 4t-26.5 2v67l396 23v-590q0 -108 20 -141q7 -11 16.5 -18t25 -9.5t23 -3.5t29 -0.5t23.5 0.5zM702 1022h-65l-246 149l-49 33q-80 47 -80 86q0 32 23 56t55 24q15 0 29.5 -5.5t31 -20t24.5 -21.5t27.5 -28.5
t20.5 -22.5z" />
    <glyph glyph-name="uacute" unicode="&#xfa;" horiz-adv-x="1146" 
d="M1143 123v-66l-367 -84l-18 199h-4q-64 -102 -148 -150.5t-203 -48.5q-143 0 -201.5 78.5t-58.5 224.5v332q0 130 -18 154q-7 8 -16.5 14t-23 9t-22.5 4.5t-26 3.5t-21 2v67l396 23v-559q0 -38 1.5 -64t9.5 -58.5t22 -51.5t40.5 -32.5t63.5 -13.5q55 0 94 25t58.5 69
t27.5 90.5t8 102.5v215q0 127 -18 154q-7 11 -22.5 18t-26 9t-34 4t-26.5 2v67l396 23v-590q0 -108 20 -141q7 -11 16.5 -18t25 -9.5t23 -3.5t29 -0.5t23.5 0.5zM360 1022l230 250q4 4 17.5 19t21 22.5t21 20t24 19t24 12t25.5 5.5q32 0 55 -24t23 -56q0 -39 -80 -86
l-49 -33l-246 -149h-66z" />
    <glyph glyph-name="ucircumflex" unicode="&#xfb;" horiz-adv-x="1146" 
d="M1143 123v-66l-367 -84l-18 199h-4q-64 -102 -148 -150.5t-203 -48.5q-143 0 -201.5 78.5t-58.5 224.5v332q0 130 -18 154q-7 8 -16.5 14t-23 9t-22.5 4.5t-26 3.5t-21 2v67l396 23v-559q0 -38 1.5 -64t9.5 -58.5t22 -51.5t40.5 -32.5t63.5 -13.5q55 0 94 25t58.5 69
t27.5 90.5t8 102.5v215q0 127 -18 154q-7 11 -22.5 18t-26 9t-34 4t-26.5 2v67l396 23v-590q0 -108 20 -141q7 -11 16.5 -18t25 -9.5t23 -3.5t29 -0.5t23.5 0.5zM834 1022h-66l-203 192l-198 -192h-68l203 338h127z" />
    <glyph glyph-name="udieresis" unicode="&#xfc;" horiz-adv-x="1146" 
d="M1143 123v-66l-367 -84l-18 199h-4q-64 -102 -148 -150.5t-203 -48.5q-143 0 -201.5 78.5t-58.5 224.5v332q0 130 -18 154q-7 8 -16.5 14t-23 9t-22.5 4.5t-26 3.5t-21 2v67l396 23v-559q0 -38 1.5 -64t9.5 -58.5t22 -51.5t40.5 -32.5t63.5 -13.5q55 0 94 25t58.5 69
t27.5 90.5t8 102.5v215q0 127 -18 154q-7 11 -22.5 18t-26 9t-34 4t-26.5 2v67l396 23v-590q0 -108 20 -141q7 -11 16.5 -18t25 -9.5t23 -3.5t29 -0.5t23.5 0.5zM743 1079q-45 0 -76.5 32.5t-31.5 78.5q0 48 34 78t81 30q42 0 73 -32t31 -74q0 -46 -32 -79.5t-79 -33.5z
M408 1079q-46 0 -77.5 32.5t-31.5 78.5q0 48 34 78t81 30q42 0 73 -32t31 -74q0 -46 -31.5 -79.5t-78.5 -33.5z" />
    <glyph glyph-name="yacute" unicode="&#xfd;" horiz-adv-x="901" 
d="M543 281l145 350q25 66 25 98q0 14 -2 25.5t-7 20t-9 15t-13 10.5t-14 7t-16.5 5t-16.5 3t-18 2.5t-17 1.5v66q32 -1 94 -4t94 -4q28 1 82 4t82 4v-66q-60 -7 -96 -53q-21 -26 -56 -101t-72.5 -166t-39.5 -96l-328 -708q-4 -8 -16 -33.5t-16.5 -35.5t-17 -33t-19.5 -33.5
t-20.5 -29.5t-24.5 -28t-26.5 -21.5t-31 -18.5t-35 -10.5t-40.5 -4.5q-51 0 -82 27.5t-31 76.5q0 28 11 49t24 33t40 23t41.5 14.5t45.5 10.5q62 14 100.5 51t67.5 98l69 147l-311 713q-25 59 -49 88q-13 15 -30 24t-28 11.5t-32 5.5v66q44 -1 131 -4t131 -4q44 1 132 4
t132 4v-66q-8 -1 -31.5 -2.5t-32 -3.5t-22.5 -8.5t-19 -20t-5 -34.5q0 -33 61 -189zM238 1022l229 250q4 4 17.5 19t21 22.5t21 20t24 19t24 12t25.5 5.5q32 0 55 -24t23 -56q0 -39 -80 -86l-49 -33l-246 -149h-65z" />
    <glyph glyph-name="thorn" unicode="&#xfe;" horiz-adv-x="1187" 
d="M618 768q-77 0 -138.5 -62.5t-61.5 -132.5v-239q0 -228 194 -228q53 0 93 22t62.5 55t36.5 79.5t18.5 89t4.5 90.5q0 57 -9 109t-30.5 103.5t-65 82.5t-104.5 31zM418 1352v-619h4q41 78 119.5 123t173.5 45q118 0 213 -67t145.5 -171t50.5 -219q0 -125 -54 -232.5
t-155 -173t-227 -65.5q-75 0 -146 34t-124 91v-383q0 -107 9 -133q12 -38 63 -48q29 -6 85 -7v-66q-50 1 -141.5 4.5t-134.5 4.5q-50 -1 -150.5 -4.5t-150.5 -4.5v66q108 3 130 31.5t22 136.5v20v1211q0 104 -4 146t-21 83q-12 30 -39.5 39.5t-69.5 9.5v68q197 18 402 80z
" />
    <glyph glyph-name="ydieresis" unicode="&#xff;" horiz-adv-x="901" 
d="M543 281l145 350q25 66 25 98q0 14 -2 25.5t-7 20t-9 15t-13 10.5t-14 7t-16.5 5t-16.5 3t-18 2.5t-17 1.5v66q32 -1 94 -4t94 -4q28 1 82 4t82 4v-66q-60 -7 -96 -53q-21 -26 -56 -101t-72.5 -166t-39.5 -96l-328 -708q-4 -8 -16 -33.5t-16.5 -35.5t-17 -33t-19.5 -33.5
t-20.5 -29.5t-24.5 -28t-26.5 -21.5t-31 -18.5t-35 -10.5t-40.5 -4.5q-51 0 -82 27.5t-31 76.5q0 28 11 49t24 33t40 23t41.5 14.5t45.5 10.5q62 14 100.5 51t67.5 98l69 147l-311 713q-25 59 -49 88q-13 15 -30 24t-28 11.5t-32 5.5v66q44 -1 131 -4t131 -4q44 1 132 4
t132 4v-66q-8 -1 -31.5 -2.5t-32 -3.5t-22.5 -8.5t-19 -20t-5 -34.5q0 -33 61 -189zM621 1079q-46 0 -77.5 32.5t-31.5 78.5q0 48 34 78t81 30q42 0 73 -32t31 -74q0 -46 -31.5 -79.5t-78.5 -33.5zM285 1079q-46 0 -77.5 32.5t-31.5 78.5q0 48 34 78t81 30q42 0 73 -32
t31 -74q0 -46 -31.5 -79.5t-78.5 -33.5z" />
    <glyph glyph-name="dotlessi" unicode="&#x131;" horiz-adv-x="573" 
d="M422 901v-649q0 -127 20 -154q27 -37 109 -37v-65q-39 1 -123.5 4t-128.5 4q-46 -1 -137 -4t-137 -4v65q81 0 108 37q21 28 21 154v354q0 96 -26 131.5t-105 34.5v68q216 16 399 61z" />
    <glyph glyph-name="Lslash" unicode="&#x141;" horiz-adv-x="1269" 
d="M31 -4v74q32 -1 57.5 2t44.5 7.5t33.5 16.5t24 21t16 29t9.5 33t5 41t2 44.5v51.5v12v164l-168 -105v115l168 112v406v12v51.5t-2 44.5t-5 41t-9.5 33t-16 29t-24 21t-33.5 16.5t-44.5 7.5t-57.5 2v74q55 -1 161.5 -4.5t161.5 -4.5q63 1 189 4.5t188 4.5v-74
q-29 1 -52.5 -0.5t-42 -8t-33 -12t-25 -18.5t-17.5 -22t-11.5 -29t-7 -32.5t-4 -39t-1.5 -41.5v-48v-7v-223l286 188v-115l-286 -184v-262q0 -148 12 -198q21 -89 103 -118q50 -18 130 -18q176 0 261.5 63t127.5 234h89l-15 -391q-559 3 -866 8q-59 -1 -174 -4t-174 -4z" />
    <glyph glyph-name="lslash" unicode="&#x142;" horiz-adv-x="573" 
d="M154 608l-131 -94v104l131 95v368v9q0 29 -0.5 42.5t-2.5 34t-7 29.5t-14 21.5t-23.5 18.5t-35 11.5t-48.5 7.5v68l399 61v-507l145 104v-104l-145 -101v-524v-28q0 -42 1 -60.5t7 -42.5t20 -33.5t39.5 -17t65.5 -9.5v-65q-43 1 -130 4t-130 4q-48 -1 -144.5 -4
t-144.5 -4v65q104 3 126 34.5t22 136.5v20v356z" />
    <glyph glyph-name="OE" unicode="&#x152;" horiz-adv-x="2048" 
d="M1036 496v362v30v34.5t-0.5 34t-1 37.5t-1.5 35t-3 37t-5 33t-6.5 32.5t-8.5 27.5q-15 32 -39 53t-56.5 30t-61 12t-67.5 3q-65 0 -117.5 -19.5t-88 -50.5t-62 -78t-41 -94.5t-23.5 -107.5t-11.5 -109.5t-2.5 -107.5q0 -59 2.5 -110t11.5 -114.5t24 -114t42 -101
t63.5 -84.5t90.5 -55t121 -21q51 0 81.5 3.5t62.5 16t52 38.5t33 69q17 77 12 279zM1923 395h82l-10 -399q-135 1 -405.5 2t-405.5 2q-70 -1 -211 -2t-211 -2q-149 -8 -268.5 22.5t-212.5 120.5q-98 95 -146.5 225t-48.5 273q0 152 46.5 283.5t132 228.5t214 151t283.5 52
q77 -1 229.5 -4.5t229.5 -4.5q115 1 347 4.5t347 4.5v-351h-82q-12 67 -36.5 114.5t-56.5 75.5t-79.5 43.5t-95 19.5t-113.5 3q-12 0 -30 -0.5t-24.5 0t-17 -1.5t-13 -2.5t-8 -6.5t-6 -9t-2 -15t-1.5 -20v-28v-431q136 0 188 43t72 177h82q-1 -47 -4.5 -141.5t-4.5 -141.5
q1 -42 4.5 -127t4.5 -127h-82q-22 136 -72.5 179.5t-187.5 43.5v-270q0 -38 0.5 -60.5t2.5 -52.5t6.5 -47t12.5 -38.5t19.5 -33t28.5 -24.5t39.5 -19t51.5 -10t66 -4q162 0 238.5 70t107.5 235z" />
    <glyph glyph-name="oe" unicode="&#x153;" horiz-adv-x="1679" 
d="M1030 555h250q2 0 15 -0.5t17 0t14.5 2t14.5 5t10 8.5t8.5 14.5t2.5 21.5q0 79 -42.5 146t-115.5 67q-45 0 -79 -25t-53 -66.5t-29 -83.5t-13 -89zM553 819q-42 0 -75 -19.5t-53 -54t-33.5 -73t-19.5 -86.5t-8 -83.5t-2 -74.5q0 -47 1.5 -79.5t7 -81.5t19 -82t35 -65
t57.5 -48.5t83 -16.5q193 0 193 375q0 43 -2 78t-8 84t-20 85.5t-35.5 70.5t-57.5 52.5t-82 18.5zM1585 473h-559q4 -166 39 -237q33 -67 94 -107.5t133 -40.5q73 0 128 35t114 102l61 -55q-63 -94 -166.5 -145.5t-218.5 -51.5q-85 0 -174 35.5t-155 93.5
q-138 -129 -326 -129q-212 0 -350.5 132.5t-138.5 345.5q0 134 66.5 238t175.5 158t241 54q93 0 184 -34.5t148 -100.5q56 68 141.5 101.5t181.5 33.5q179 0 302.5 -104t123.5 -279q0 -26 -11 -35.5t-34 -9.5z" />
    <glyph glyph-name="Scaron" unicode="&#x160;" horiz-adv-x="1105" 
d="M193 113l-29 -113h-90v426h82q24 -77 52.5 -135.5t72.5 -112t108 -82t146 -28.5q94 0 163.5 56.5t69.5 147.5q0 35 -9.5 65.5t-23 53.5t-38 44.5t-45 36t-54.5 31t-56 25.5t-59 24t-55 23q-77 33 -131.5 67t-103.5 82t-74 113t-25 146q0 182 122 284.5t308 102.5
q199 0 307 -100l27 80h88l12 -369h-88q-30 127 -117 211t-214 84q-81 0 -142 -44.5t-61 -123.5q0 -28 7.5 -53t18 -43.5t30 -36.5t36 -29.5t43.5 -25.5t44.5 -22t47.5 -20.5t45 -19.5q44 -19 72.5 -32t69 -33t67 -36.5t59 -40.5t53.5 -47.5t43 -54t34 -63t20 -73t8 -85.5
q0 -100 -40 -181.5t-108 -132.5t-154.5 -78.5t-182.5 -27.5q-101 0 -195 35.5t-161 104.5zM813 1827l-205 -338h-127l-202 338h67l199 -195l203 195h65z" />
    <glyph glyph-name="scaron" unicode="&#x161;" horiz-adv-x="819" 
d="M160 63l-33 -63h-82l-10 279h82q107 -224 278 -224q65 0 112.5 32.5t47.5 94.5q0 15 -4 28t-12.5 24t-16.5 20t-23 17t-25 13t-28.5 11t-27 9t-27.5 8.5t-24 6.5q-57 17 -96.5 32t-83.5 41t-70.5 56.5t-44 76.5t-17.5 104q0 68 26.5 121.5t72.5 85.5t103 48.5t122 16.5
q68 0 122.5 -17t116.5 -55l35 72h82v-268h-82q-38 82 -97.5 134t-139.5 52q-54 0 -99 -27t-45 -79q0 -16 5 -30.5t11 -24.5t19.5 -19.5t22 -15t27.5 -12.5t27 -9.5t29.5 -8.5t26.5 -7q37 -12 56 -18t53.5 -19t53.5 -22.5t47.5 -26t44 -31.5t35 -37t29 -45.5t16.5 -54
t7 -64.5q0 -76 -29 -134t-79.5 -92.5t-112.5 -51.5t-133 -17q-72 0 -146 23t-122 67zM670 1360l-205 -338h-127l-203 338h68l198 -195l203 195h66z" />
    <glyph glyph-name="Ydieresis" unicode="&#x178;" horiz-adv-x="1269" 
d="M797 549v-221v-12q0 -54 1 -78.5t6.5 -60.5t17.5 -50.5t34 -31.5t56.5 -21.5t84.5 -3.5v-74q-64 1 -192 4t-193 4q-54 -1 -163 -4t-164 -4v74q71 -1 111.5 10t59 49.5t21.5 66.5t5 106q1 17 1 26v180l-354 631q-33 55 -47.5 74t-43 36t-81.5 29v74q51 -1 154.5 -4.5
t154.5 -4.5q59 1 175 4.5t175 4.5v-74q-31 -2 -49 -5t-46.5 -11t-43 -26.5t-14.5 -45.5q0 -10 4.5 -25t10 -28.5t15.5 -33.5l15.5 -31t16 -30t12.5 -22l204 -371l197 330q78 142 78 197q0 102 -150 102v74q35 -1 103.5 -4.5t103.5 -4.5q40 1 121 4.5t121 4.5v-74
q-33 -3 -58.5 -14t-46.5 -33t-34 -41.5t-33 -54.5zM805 1546q-46 0 -77.5 32.5t-31.5 78.5q0 48 34 78t81 30q42 0 73 -32t31 -74q0 -46 -31.5 -79.5t-78.5 -33.5zM469 1546q-46 0 -77.5 32.5t-31.5 78.5q0 48 34 78t81 30q42 0 73.5 -32t31.5 -74q0 -46 -32 -79.5
t-79 -33.5z" />
    <glyph glyph-name="Zcaron" unicode="&#x17d;" horiz-adv-x="1187" 
d="M1147 1352v-82l-737 -1168h200q63 0 109 3.5t99.5 13t91.5 30.5t72 53t53.5 83t25.5 118h86l-8 -403h-1098v74l743 1175h-211q-135 0 -217 -33t-117 -90t-46 -149h-89l13 375h1030zM854 1827l-205 -338h-127l-203 338h68l199 -195l202 195h66z" />
    <glyph glyph-name="zcaron" unicode="&#x17e;" horiz-adv-x="901" 
d="M850 305l-21 -305h-778v55l467 748h-37h-26.5h-30t-27.5 -0.5t-30.5 -2t-27 -4t-29.5 -6t-25 -8.5t-25 -12q-15 -8 -26.5 -17.5t-21.5 -24t-16 -23.5t-13 -29.5t-9.5 -28t-9.5 -32t-8 -29.5h-76l16 299h746v-78l-467 -725h53h5h55t48.5 1.5t45 4.5t38 8.5t35.5 13.5
t29.5 20t27.5 28.5t22.5 37.5t21 48.5t16.5 60.5h78zM711 1360l-205 -338h-127l-203 338h68l198 -195l203 195h66z" />
    <glyph glyph-name="florin" unicode="&#x192;" horiz-adv-x="1064" 
d="M909 856h-194l-185 -850q-33 -147 -143 -252.5t-258 -105.5q-73 0 -134 36t-61 103q0 46 32.5 79.5t78.5 33.5q35 0 57.5 -17.5t31.5 -42.5t16 -50t19 -42.5t32 -17.5q86 0 123 323q2 10 2 13q9 68 26.5 205t26.5 206l65 379h-180l23 82h176q1 5 8.5 35.5t9.5 38
t8.5 35.5t10 38t10.5 34.5t11.5 37.5t12.5 34.5t14.5 36t15.5 32.5t18 34q62 102 154 159.5t206 57.5q44 0 85.5 -12.5t73.5 -44t32 -76.5q0 -47 -32.5 -78.5t-80.5 -31.5q-39 0 -62.5 25.5t-31.5 55.5t-23 55.5t-39 25.5q-17 0 -30 -13t-18.5 -25.5t-12.5 -33.5l-78 -420
h209z" />
    <glyph glyph-name="circumflex" unicode="&#x2c6;" horiz-adv-x="819" 
d="M670 1022h-66l-203 192l-198 -192h-68l203 338h127z" />
    <glyph glyph-name="caron" unicode="&#x2c7;" horiz-adv-x="819" 
d="M670 1360l-205 -338h-127l-203 338h68l198 -195l203 195h66z" />
    <glyph glyph-name="uni02C9" unicode="&#x2c9;" horiz-adv-x="1024" 
d="M877 1128h-742v123h742v-123z" />
    <glyph glyph-name="breve" unicode="&#x2d8;" horiz-adv-x="819" 
d="M625 1370h49q-6 -112 -79 -186t-185 -74q-114 0 -194 73.5t-81 186.5h47q35 -119 221 -119q182 0 222 119z" />
    <glyph glyph-name="dotaccent" unicode="&#x2d9;" horiz-adv-x="491" 
d="M244 1079q-46 0 -77.5 32.5t-31.5 78.5q0 48 34 78t81 30q42 0 73 -32t31 -74q0 -46 -31.5 -79.5t-78.5 -33.5z" />
    <glyph glyph-name="ring" unicode="&#x2da;" horiz-adv-x="696" 
d="M344 985q-85 0 -147 59.5t-62 145.5q0 87 63.5 145t151.5 58q86 0 145.5 -62t59.5 -149q0 -83 -63.5 -140t-147.5 -57zM344 1067q48 0 83.5 35t35.5 84t-31 88t-80 39q-52 0 -89.5 -34t-37.5 -85q0 -52 34 -89.5t85 -37.5z" />
    <glyph glyph-name="ogonek" unicode="&#x2db;" horiz-adv-x="655" 
d="M424 -4l-72 -47q-28 -19 -42 -30.5t-30 -34.5t-16 -48q0 -29 25.5 -53.5t54.5 -24.5q59 0 125 80l49 -51q-31 -49 -89.5 -81t-117.5 -32q-67 0 -123.5 35.5t-56.5 97.5q0 42 31 78t81 58.5t93 36t84 20.5z" />
    <glyph glyph-name="tilde" unicode="&#x2dc;" horiz-adv-x="819" 
d="M182 1081l-47 6q10 71 64 136t123 65q45 0 116 -31q93 -38 129 -38q30 0 53 21t31 50l49 -6q-12 -77 -60 -138t-120 -61q-37 0 -110 31q-5 2 -36.5 13.5t-52 16.5t-38.5 5q-35 0 -63 -19t-38 -51z" />
    <glyph glyph-name="hungarumlaut" unicode="&#x2dd;" horiz-adv-x="1064" 
d="M471 1022l229 250q3 3 17.5 18.5t21 23t21 20.5t25 19t24 11.5t25.5 5.5q32 0 54.5 -23.5t22.5 -56.5q0 -39 -80 -86l-49 -33l-245 -149h-66zM135 1022l230 250q4 4 17.5 19t21 22.5t21 20t24 19t24 12t25.5 5.5q32 0 54.5 -23.5t22.5 -56.5q0 -39 -79 -86l-50 -33
l-245 -149h-66z" />
    <glyph glyph-name="uni03A9" unicode="&#x3a9;" horiz-adv-x="1394" 
d="M1331 336l-53 -336h-485l-19 43q10 27 40.5 103.5t46.5 119t41 117.5t38.5 129.5t24 122t10.5 125.5q-1 148 -22.5 255.5t-61 169t-88.5 90t-111 28.5q-51 0 -91 -15.5t-75 -54t-58.5 -100t-36.5 -157.5t-13 -222q0 -111 33 -248t67.5 -230t93.5 -233l-18 -43h-485
l-48 336h68q29 -84 59 -109.5t93 -25.5h176q-39 31 -62.5 50.5t-63.5 57t-64.5 68.5t-55.5 77.5t-48.5 92t-29.5 104.5t-12 121q0 182 76 321t207 213t296 74q251 0 410.5 -162.5t159.5 -435.5q0 -57 -12 -112t-28.5 -98t-47.5 -90.5t-55.5 -79t-67 -74t-67.5 -65t-70 -62.5
h198q59 0 86.5 25t55.5 110h69z" />
    <glyph glyph-name="uni03BC" unicode="&#x3bc;" horiz-adv-x="1146" 
d="M1143 123v-66l-367 -84l-18 199h-4q-69 -111 -155 -155t-212 -44l43 -170q27 -95 27 -153q0 -72 -43.5 -130.5t-110.5 -58.5q-71 0 -115.5 58t-44.5 131v958q0 130 -18 154q-7 8 -16.5 14t-23 9t-22.5 4.5t-26 3.5t-21 2v67l396 23v-559q0 -38 1.5 -64t9.5 -58.5
t22 -51.5t40.5 -32.5t63.5 -13.5q55 0 94 25t58.5 69t27.5 90.5t8 102.5v215q0 127 -18 154q-7 11 -22.5 18t-26 9t-34 4t-26.5 2v67l396 23v-590q0 -108 20 -141q7 -11 16.5 -18t25 -9.5t23 -3.5t29 -0.5t23.5 0.5z" />
    <glyph glyph-name="pi" unicode="&#x3c0;" horiz-adv-x="1128" 
d="M1022 938l59 -14q-7 -62 -30 -134t-43 -100q-37 -12 -119 -12q-10 -109 -10 -375q0 -92 18 -131t55 -39q36 0 84 39l25 -53q-36 -61 -101.5 -103.5t-130.5 -42.5q-202 0 -202 271q0 173 18 438q-47 0 -122.5 2t-110.5 2v-18q0 -130 -10.5 -240t-24.5 -177t-33.5 -122
t-32 -77.5t-26.5 -41.5q-73 -30 -142 -37l-16 45q95 136 138.5 320t43.5 352q-79 1 -124.5 -14t-116.5 -58l-33 62q3 4 23.5 30.5t27.5 35t29.5 32.5t37.5 34t43 27t54.5 24t62.5 13t76 5q304 -4 518 -4q49 0 72 12t43 49z" />
    <glyph glyph-name="uni2010" unicode="&#x2010;" horiz-adv-x="491" 
d="M483 350h-475v185h475v-185z" />
    <glyph glyph-name="endash" unicode="&#x2013;" horiz-adv-x="1024" 
d="M1024 367h-1024v151h1024v-151z" />
    <glyph glyph-name="emdash" unicode="&#x2014;" horiz-adv-x="2048" 
d="M2048 367h-2048v151h2048v-151z" />
    <glyph glyph-name="quoteleft" unicode="&#x2018;" horiz-adv-x="532" 
d="M408 1384l28 -57q-43 -28 -69.5 -47.5t-61.5 -51.5t-54.5 -61t-33 -70t-12.5 -85q47 37 100 37q65 0 104.5 -40t39.5 -106t-44.5 -110.5t-111.5 -44.5q-97 0 -153 68t-56 167q0 75 20.5 132t71 105t85.5 72.5t114 71.5q22 13 33 20z" />
    <glyph glyph-name="quoteright" unicode="&#x2019;" horiz-adv-x="532" 
d="M125 748l-29 57q52 33 87.5 60.5t72 66.5t55 86.5t17.5 101.5q-47 -37 -101 -37q-66 0 -104.5 40t-38.5 106t44.5 110.5t111.5 44.5q97 0 153 -69t56 -168q0 -75 -21 -132.5t-72.5 -105.5t-88.5 -73.5t-115 -71.5q-18 -11 -27 -16z" />
    <glyph glyph-name="quotesinglbase" unicode="&#x201a;" horiz-adv-x="532" 
d="M125 -348l-29 57q51 33 87 60.5t72.5 67t55 87t17.5 101.5q-47 -37 -101 -37q-66 0 -104.5 39.5t-38.5 105.5t44.5 111t111.5 45q97 0 153 -69.5t56 -168.5q0 -75 -21 -132.5t-72.5 -105.5t-88.5 -73.5t-115 -71.5q-6 -4 -9.5 -6t-8.5 -5t-9 -5z" />
    <glyph glyph-name="quotedblleft" unicode="&#x201c;" horiz-adv-x="1024" 
d="M883 1384l28 -57q-43 -28 -69.5 -47.5t-61.5 -51.5t-54.5 -61t-33 -70t-12.5 -85q47 37 100 37q65 0 104.5 -40t39.5 -106t-44.5 -110.5t-111.5 -44.5q-97 0 -153 68t-56 167q0 75 20.5 132t71 105t85.5 72.5t114 71.5q22 13 33 20zM424 1384l29 -57q-43 -29 -69.5 -48
t-62 -51t-55 -61t-33 -70t-12.5 -85q47 37 101 37q65 0 104 -40t39 -106t-44.5 -110.5t-111.5 -44.5q-97 0 -153 68t-56 167q0 75 20.5 132t71 105t85.5 72.5t114 71.5q22 13 33 20z" />
    <glyph glyph-name="quotedblright" unicode="&#x201d;" horiz-adv-x="1024" 
d="M141 748l-28 57q52 33 87 60.5t71.5 66.5t55 86.5t17.5 101.5q-47 -37 -100 -37q-66 0 -105 40t-39 106t44.5 110.5t111.5 44.5q97 0 153 -69t56 -168q0 -75 -21 -132.5t-72.5 -105.5t-88.5 -73.5t-115 -71.5q-18 -11 -27 -16zM600 748l-29 57q52 33 87.5 60.5t72 66.5
t55 86.5t17.5 101.5q-47 -37 -101 -37q-66 0 -104.5 40t-38.5 106t44.5 110.5t111.5 44.5q97 0 153 -69t56 -168q0 -75 -21 -132.5t-72.5 -105.5t-88.5 -73.5t-115 -71.5q-18 -11 -27 -16z" />
    <glyph glyph-name="quotedblbase" unicode="&#x201e;" horiz-adv-x="1024" 
d="M618 -342l-10 -6l-28 57l6 4q52 33 86 60t70 65.5t53 85.5t16 101q-45 -39 -100 -39q-66 0 -105 40t-39 105q0 67 44.5 111.5t111.5 44.5q96 0 148.5 -68t52.5 -168q0 -131 -86 -237q-57 -68 -220 -156zM152 -342l-11 -6l-28 57l6 4q51 33 85 60t70 65.5t53.5 85.5
t16.5 101q-45 -39 -100 -39q-66 0 -105 40t-39 105q0 67 44 111.5t112 44.5q96 0 148.5 -68t52.5 -168q0 -127 -86 -237q-58 -69 -219 -156z" />
    <glyph glyph-name="dagger" unicode="&#x2020;" horiz-adv-x="1064" 
d="M897 717q-50 0 -106 35q-3 2 -12 7t-12.5 6.5t-11 5.5t-12 5.5t-11.5 3.5t-13.5 3t-13.5 1q-34 0 -68 -21t-51 -52l84 -76q-48 -171 -78 -473l-35 -613h-47l-35 613q-30 302 -78 473l82 76q-18 31 -51 52t-68 21q-28 0 -85 -33.5t-107 -33.5q-42 0 -69 31.5t-27 74.5
q0 31 18 53.5t49 22.5q28 0 45 -16.5t17 -44.5q0 -10 -4 -25t-4 -22q0 -15 14 -15q9 0 17 6.5t12.5 13t11.5 19t8 14.5q26 50 43 64q19 14 45 14q35 0 64.5 -23.5t49 -47t29.5 -23.5q19 0 19 16q0 12 -19.5 45t-39 79.5t-19.5 90.5q0 69 47 125l10.5 10.5t14.5 17t6 13.5
q0 4 -3 9t-7 8.5t-9 8t-6 5.5q-14 11 -21.5 18t-13.5 19.5t-6 28.5q0 35 28 56t64 21t64.5 -21t28.5 -56q0 -34 -35 -62l-10 -9q-10 -8 -14.5 -14.5t-4.5 -11.5q0 -4 4 -10t10.5 -13t8.5 -9q29 -34 41 -62.5t12 -71.5q0 -44 -19.5 -91t-39 -80t-19.5 -42q0 -7 4.5 -12.5
t11.5 -5.5q11 0 26 14.5t29.5 32.5t39 32.5t51.5 14.5q32 0 49.5 -17.5t34.5 -51.5l6.5 -13t9.5 -17t10 -14.5t13 -13t14 -4.5q14 0 14 17q0 5 -4 20t-4 25q0 27 17.5 44t44.5 17q31 0 50 -22.5t19 -53.5q0 -42 -28 -74t-70 -32z" />
    <glyph glyph-name="daggerdbl" unicode="&#x2021;" horiz-adv-x="1064" 
d="M485 -45l-67 72q22 72 50 209.5t44 197.5h41q16 -60 44 -197.5t50 -209.5l-67 -72q18 -10 43 -10q9 0 18 1t16 2t16.5 4t14.5 4.5t15 5.5t13 5.5t14 6.5t13 6q70 34 111 34q40 0 66 -28.5t26 -69.5q0 -34 -18.5 -57t-50.5 -23q-25 0 -43.5 17.5t-18.5 42.5q0 6 3 18t3 18
t-4 12.5t-10 6.5q-19 0 -37 -43q-30 -72 -86 -72q-12 0 -21 2t-22 7.5t-20 7.5q-4 -75 -39 -121q-1 -2 -11 -16t-10 -19q0 -9 19 -19q34 -24 34 -59q0 -31 -25.5 -50.5t-56.5 -19.5q-32 0 -56.5 19.5t-24.5 50.5q0 36 32 55q1 1 7 5.5t9 9t3 8.5q0 7 -21 35q-33 47 -37 121
q-7 -2 -16.5 -6t-15 -6t-14 -3.5t-17.5 -1.5q-58 0 -84 68q-1 2 -6.5 12.5t-9 16t-10 11t-13.5 5.5q-14 0 -14 -19q0 -5 3 -16.5t3 -17.5q0 -25 -18.5 -42.5t-43.5 -17.5q-33 0 -50 22.5t-17 57.5q0 39 24 68.5t62 29.5q49 0 115 -34q2 -1 12.5 -6t14 -6.5t13.5 -5.5
t15 -5.5t14 -4.5t16 -4t15.5 -2t17.5 -1q25 0 45 10zM858 918q-45 0 -115 36q-3 1 -21 9t-24 10.5t-21 7.5t-27.5 6.5t-26.5 1.5q-23 0 -43 -10l67 -72q-22 -72 -50 -209.5t-44 -197.5h-41q-16 60 -44 197.5t-50 209.5l67 72q-18 10 -43 10q-43 0 -120 -35q-70 -36 -111 -36
q-40 0 -65 29.5t-25 70.5q0 35 17 57.5t50 22.5q25 0 43.5 -17.5t18.5 -42.5q0 -6 -3 -18.5t-3 -18.5q0 -18 14 -18q7 0 13.5 5t9.5 10.5t8 15.5l6 12q30 72 86 72q12 0 21.5 -3t21.5 -8t20 -8q4 76 37 123q21 32 21 35q0 9 -17 18q-34 24 -34 60q0 31 24.5 50t56.5 19
q31 0 56.5 -19t25.5 -50q0 -36 -32 -58q-1 -1 -5.5 -3.5t-7.5 -4.5t-5.5 -5.5t-2.5 -6.5q0 -6 10 -20t11 -15q35 -46 39 -123q8 3 20 8t21.5 8t21.5 3q58 0 84 -68q1 -2 6.5 -12.5t9 -16.5t10 -12t13.5 -6q14 0 14 18q0 6 -3 18.5t-3 18.5q0 25 18.5 42.5t43.5 17.5
q34 0 51.5 -23t17.5 -57q0 -39 -25 -69.5t-63 -30.5z" />
    <glyph glyph-name="bullet" unicode="&#x2022;" horiz-adv-x="716" 
d="M360 1006q135 0 234.5 -96t99.5 -232q0 -142 -97 -243t-237 -101t-238.5 99.5t-98.5 238.5q0 138 98 236t239 98z" />
    <glyph glyph-name="ellipsis" unicode="&#x2026;" horiz-adv-x="2048" 
d="M1704 -14q-68 0 -117 49.5t-49 118.5q0 68 49 115.5t117 47.5t117 -46.5t49 -114.5q0 -70 -48 -120t-118 -50zM1022 -14q-69 0 -117.5 49.5t-48.5 118.5t48.5 116t117.5 47q68 0 117 -46.5t49 -114.5q0 -70 -48 -120t-118 -50zM340 -14q-69 0 -117.5 49.5t-48.5 118.5
t48.5 116t117.5 47q68 0 117 -46.5t49 -114.5q0 -70 -48 -120t-118 -50z" />
    <glyph glyph-name="perthousand" unicode="&#x2030;" horiz-adv-x="2580" 
d="M1233 -47q-133 0 -217 91t-84 224q0 86 32.5 169t88 147t135.5 103.5t170 39.5q127 0 198.5 -73.5t71.5 -198.5q0 -88 -26 -175.5t-74 -161t-125 -119.5t-170 -46zM1286 35q60 0 111.5 47t82.5 116t48.5 139t17.5 124q0 30 -6 60t-18.5 59t-37 47t-57.5 18
q-61 0 -112 -59t-84 -133q-13 -30 -26.5 -76.5t-22 -107.5t-5.5 -112t30.5 -86.5t78.5 -35.5zM2038 -47q-131 0 -215 91.5t-84 223.5q0 86 32.5 169t88 147t135.5 103.5t170 39.5q125 0 197.5 -73.5t72.5 -198.5q0 -70 -16 -141t-49.5 -136t-80 -115t-111.5 -80t-140 -30z
M2091 35q60 0 112 47t83.5 116t49 139t17.5 124q0 42 -10 81t-38.5 71t-70.5 32q-61 0 -112 -59t-84 -133q-13 -29 -26.5 -76t-22 -107.5t-6 -112t29.5 -87t78 -35.5zM1415 1536l-983 -1628h-108l858 1415l-4 4q-100 -51 -195 -51q-61 0 -156 27q19 -67 19 -111
q0 -86 -26.5 -171.5t-74 -157.5t-123.5 -116.5t-167 -44.5q-128 0 -218 90.5t-90 217.5q0 81 31 165t84 152t130 111t161 43q53 0 87.5 -9t74.5 -34l98 -62q42 -25 73.5 -34t80.5 -9q206 0 372 203h76zM510 784q56 0 106.5 46t81 112t48.5 134t18 118q0 31 -5.5 63
t-17.5 65.5t-36.5 55t-57.5 21.5q-59 0 -110.5 -52.5t-82 -128t-48 -150t-17.5 -128.5q0 -60 32 -108t89 -48z" />
    <glyph glyph-name="guilsinglleft" unicode="&#x2039;" horiz-adv-x="614" 
d="M150 473l147 121q14 12 40 35.5t46 41t41.5 36t35.5 28.5t19 10q15 0 15 -14q0 -18 -89.5 -147.5t-101.5 -141.5q19 -24 104 -149t85 -141q0 -7 -5.5 -12t-13.5 -5q-7 0 -174 154l-135 114q-43 29 -43 41q0 4 6 10t14 12t9 7z" />
    <glyph glyph-name="guilsinglright" unicode="&#x203a;" horiz-adv-x="614" 
d="M317 600l148 -121q1 -1 9 -7t14 -11.5t6 -9.5q0 -12 -43 -41l-136 -115q-167 -154 -174 -154q-18 0 -18 17q0 16 85 142t103 149q-12 12 -101 141t-89 147q0 15 14 15q7 0 35 -23t82 -71t65 -58z" />
    <glyph glyph-name="fraction" unicode="&#x2044;" horiz-adv-x="286" 
d="M690 1348l-983 -1348h-108l985 1348h106z" />
    <glyph glyph-name="Euro" unicode="&#x20ac;" horiz-adv-x="1064" 
d="M786 512h-325q28 -449 237 -449q92 0 152.5 95.5t75.5 283.5h84v-436h-76l-29 100q-27 -44 -59.5 -72.5t-70 -40.5t-68 -16t-72.5 -4q-185 0 -313.5 147t-153.5 392h-150v94h144q-2 16 -2 47q0 35 4 105h-146v92h158q38 241 168 387.5t309 146.5q79 0 136 -26.5
t110 -87.5l21 100h79q2 -182 11 -401h-88q-7 40 -16 77.5t-28 86.5t-43.5 84.5t-62.5 60.5t-84 25q-43 0 -78 -26.5t-59.5 -70t-43 -104t-28.5 -122t-16 -130.5h323v-92h-329v-74v-78h329v-94z" />
    <glyph glyph-name="afii61289" unicode="&#x2113;" horiz-adv-x="866" 
d="M786 279l52 -46q-135 -258 -367 -258q-152 0 -225 80q-39 49 -55.5 107.5t-16.5 185.5v131l-106 -69l-27 63l133 96v279q0 201 22.5 301t82.5 178q95 129 223 129q99 0 153 -76.5t54 -197.5q0 -160 -68 -285t-215 -270v-156q0 -189 34 -263.5t120 -74.5q108 0 206 146z
M426 950v-207q66 77 105.5 190.5t39.5 242.5q0 208 -73 208q-23 0 -36.5 -17.5t-21.5 -68.5t-11 -131t-3 -217z" />
    <glyph glyph-name="trademark" unicode="&#x2122;" horiz-adv-x="2048" 
d="M539 1270v-608q1 -25 2 -35t5.5 -23.5t11 -17.5t22 -9t34.5 -5.5t52 -0.5v-55h-433v55q90 0 109.5 13t22.5 78v608h-80q-83 0 -117.5 -31t-34.5 -113h-72v217h789v-217h-72q0 82 -34 113t-117 31h-88zM1235 1343l227 -526l219 526h306v-55h-12q-62 0 -76.5 -10.5
t-14.5 -65.5v-530q0 -27 0.5 -42t5 -29t10 -19.5t18.5 -10.5t27.5 -6.5t41.5 -3.5v-55h-381v55q71 2 87.5 19t16.5 90v537h-4l-283 -701h-24l-299 701h-4v-574q0 -20 6 -34t14 -21.5t23 -11.5t26.5 -4.5t30.5 -0.5v-55h-281v55q73 0 89 19t16 98v524q0 56 -11.5 66t-74.5 10
v55h301z" />
    <glyph glyph-name="Omega" unicode="&#x2126;" horiz-adv-x="1394" 
d="M1331 336l-53 -336h-485l-19 43q10 27 40.5 103.5t46.5 119t41 117.5t38.5 129.5t24 122t10.5 125.5q-1 148 -22.5 255.5t-61 169t-88.5 90t-111 28.5q-51 0 -91 -15.5t-75 -54t-58.5 -100t-36.5 -157.5t-13 -222q0 -111 33 -248t67.5 -230t93.5 -233l-18 -43h-485
l-48 336h68q29 -84 59 -109.5t93 -25.5h176q-39 31 -62.5 50.5t-63.5 57t-64.5 68.5t-55.5 77.5t-48.5 92t-29.5 104.5t-12 121q0 182 76 321t207 213t296 74q251 0 410.5 -162.5t159.5 -435.5q0 -57 -12 -112t-28.5 -98t-47.5 -90.5t-55.5 -79t-67 -74t-67.5 -65t-70 -62.5
h198q59 0 86.5 25t55.5 110h69z" />
    <glyph glyph-name="estimated" unicode="&#x212e;" horiz-adv-x="1697" 
d="M1630 657h-1265q-11 0 -11 -8v-383q0 -23 17 -43q95 -98 218.5 -153.5t260.5 -55.5q147 0 278 62.5t226 171.5h112q-106 -126 -269 -199.5t-349 -73.5q-212 0 -392.5 94t-285 255.5t-104.5 351.5q0 144 62 274.5t166.5 224.5t249.5 149.5t304 55.5t304 -55.5
t249.5 -149.5t166.5 -224.5t62 -274.5v-19zM1343 709v385q0 27 -18 45q-95 93 -218 146.5t-257 53.5q-136 0 -259 -54.5t-218 -151.5q-19 -19 -19 -48v-376q0 -4 3.5 -8.5t7.5 -4.5h970q8 0 8 13z" />
    <glyph glyph-name="partialdiff" unicode="&#x2202;" horiz-adv-x="1071" 
d="M524 848h2q63 0 124 -27.5t100 -81.5q21 166 24 222q11 176 -45 294q-64 125 -215 125q-128 0 -281 -129q-17 0 -39.5 33t-34.5 76.5t-3 69.5q134 77 282 77q144 0 253.5 -75t180.5 -211q55 -108 80 -233.5t25 -237.5q0 -127 -24.5 -253.5t-71.5 -222.5
q-66 -139 -176 -219t-259 -80q-166 0 -267 104.5t-101 285.5q0 98 34.5 186t86.5 149q59 68 144 108t181 40zM582 752h-2q-48 0 -89 -23t-77 -86q-40 -76 -63 -192t-23 -228q0 -85 32 -129.5t93 -44.5q93 0 182 209q60 147 94 385q-16 40 -56 74.5t-91 34.5z" />
    <glyph glyph-name="Delta" unicode="&#x2206;" horiz-adv-x="1265" 
d="M1198 0h-1132v74l497 1278l113 26l522 -1304v-74zM877 125l-342 883l-332 -883h674z" />
    <glyph glyph-name="product" unicode="&#x220f;" horiz-adv-x="1396" 
d="M1343 1372v-69q-45 -3 -72 -7t-49 -13.5t-32 -20t-17 -34.5t-8.5 -48.5t-1.5 -69.5v-1004q0 -47 1.5 -74t8.5 -51.5t17 -36t32.5 -21.5t48 -13.5t70.5 -7.5v-70h-585v70q37 3 57.5 6t39 13t26 20t13 35.5t6.5 52t1 75.5v1108q0 49 -13 61.5t-61 12.5h-262
q-46 0 -56.5 -10.5t-10.5 -54.5v-1117v-7v-49t1 -38.5t3.5 -32t6.5 -23t11 -19.5t15.5 -12.5t22 -10t29.5 -5.5t38 -5v-70h-572v70q65 5 97 12t52 31t24.5 57.5t4.5 101.5v1006q0 45 -1.5 70.5t-9 48.5t-17.5 34t-33 20.5t-50 13t-73 6.5v69h1298z" />
    <glyph glyph-name="summation" unicode="&#x2211;" horiz-adv-x="1095" 
d="M1055 250l-94 -432h-910v65l420 613l-414 807v69h906q1 -15 9.5 -143.5t12.5 -206.5l-70 -14q-28 127 -69 202q-25 47 -65 62.5t-144 15.5h-264l317 -604l-430 -645h440q49 0 76 1.5t56 10t44.5 21t35.5 40.5t35.5 62.5t37.5 91.5z" />
    <glyph glyph-name="minus" unicode="&#x2212;" horiz-adv-x="1064" 
d="M51 406v151h963v-151h-963z" />
    <glyph glyph-name="uni2215" unicode="&#x2215;" horiz-adv-x="286" 
d="M690 1348l-983 -1348h-108l985 1348h106z" />
    <glyph glyph-name="uni2219" unicode="&#x2219;" horiz-adv-x="532" 
d="M139 481q0 53 37.5 90t89.5 37t89.5 -37t37.5 -90t-37.5 -90t-89.5 -37t-89.5 37t-37.5 90z" />
    <glyph glyph-name="radical" unicode="&#x221a;" horiz-adv-x="1097" 
d="M1079 1706l-348 -2042l-57 -24l-408 1065l-170 -76l-26 82l368 159l271 -753h4l266 1607z" />
    <glyph glyph-name="infinity" unicode="&#x221e;" horiz-adv-x="1478" 
d="M1386 561v-2q0 -154 -92.5 -247t-218.5 -93q-88 0 -168 45.5t-166 165.5q-83 -104 -162.5 -157.5t-185.5 -53.5q-124 0 -215.5 92.5t-91.5 237.5q0 149 92.5 242.5t231.5 93.5q100 0 180 -51t158 -152q3 3 24.5 28t28 31.5t28 29t33 31t34 26t41 24.5t43 17t51 13t54.5 3
q128 0 214.5 -89.5t86.5 -234.5zM412 369h2q36 0 69 13.5t65.5 42t54.5 52.5t56 66q-72 99 -99 126q-68 70 -152 70q-77 0 -122.5 -52.5t-45.5 -139.5q-1 -73 49.5 -125.5t122.5 -52.5zM1071 739h-2q-18 0 -35.5 -3.5t-34.5 -12t-30.5 -15.5t-30.5 -22.5t-26.5 -23.5
t-26 -27t-22.5 -26t-22.5 -28t-19.5 -24q84 -110 137 -149t121 -39q70 0 113 56.5t43 123.5q0 81 -45 135.5t-119 54.5z" />
    <glyph glyph-name="integral" unicode="&#x222b;" horiz-adv-x="800" 
d="M315 -29l-43 779q-11 157 -1 280.5t26.5 216t47.5 159.5t63 110.5t72.5 69t76 36t72.5 10.5q56 0 103.5 -31t47.5 -85q0 -59 -37 -91t-86 -32q-27 0 -45 20t-25 44.5t-17 44.5t-23 20q-20 0 -31 -21t-17 -85t1 -181l37 -713q11 -196 -3.5 -355t-48 -266t-83.5 -179.5
t-108.5 -105t-125.5 -32.5q-62 0 -106 35t-44 86q-1 55 43 92t97 37q23 0 39.5 -22t24 -48.5t18.5 -48.5t24 -22q64 0 51 278z" />
    <glyph glyph-name="approxequal" unicode="&#x2248;" horiz-adv-x="1021" 
d="M852 889l102 -90q-47 -93 -117 -149t-147 -56q-53 0 -97 17t-106 57q-34 22 -52.5 33t-46.5 20.5t-56 9.5q-29 0 -53 -10.5t-45.5 -32.5t-35.5 -41t-34 -51l-103 90q41 88 118 144.5t165 56.5q42 0 81.5 -12t60 -23t51.5 -31q81 -51 108 -60q22 -7 45 -7q47 0 83.5 33.5
t78.5 101.5zM852 524l102 -92q-48 -91 -117 -147t-147 -56q-53 0 -98 17t-105 55q-48 34 -81.5 50t-71.5 16q-24 0 -46.5 -9t-36.5 -19t-33 -33t-27 -34.5t-27 -40.5l-103 88q41 88 118.5 145.5t164.5 57.5q42 0 84 -13t56.5 -21t52.5 -31q9 -6 30.5 -20t31.5 -20t27 -14.5
t31.5 -12t30.5 -3.5q34 0 64 19.5t50 44.5t50 73z" />
    <glyph glyph-name="notequal" unicode="&#x2260;" horiz-adv-x="1021" 
d="M762 993l-68 -159h238v-158h-295l-105 -250h400v-158h-459l-90 -211l-125 49l70 162h-240v158h299l105 250h-404v158h461l88 208z" />
    <glyph glyph-name="lessequal" unicode="&#x2264;" horiz-adv-x="1021" 
d="M928 199l-830 426v172l830 422v-185l-676 -321v-4l676 -324v-186zM936 -31h-844v162h844v-162z" />
    <glyph glyph-name="greaterequal" unicode="&#x2265;" horiz-adv-x="1021" 
d="M102 1219l830 -424v-172l-832 -424v186l678 324v4l-676 321v185zM932 -31h-840v162h840v-162z" />
    <glyph glyph-name="lozenge" unicode="&#x25ca;" horiz-adv-x="1105" 
d="M1016 657l-365 -794h-196l-365 794l369 799h192zM838 657l-279 633h-8l-283 -633l285 -637h6z" />
    <glyph glyph-name="A.sc" unicode="&#xe000;" 
d="M707 279h-355l-22 -62q-21 -51 -21 -86q0 -36 26.5 -51.5t106.5 -18.5v-65q-14 0 -78.5 2t-115.5 2t-116 -2t-79 -2v65q68 9 108 51t83 140l344 772h98l344 -803q36 -87 67.5 -118.5t98.5 -41.5v-65q-3 0 -96.5 2t-190.5 2t-190 -2t-96 -2v65h51q78 0 78 48q0 23 -19 86z
M541 713l-154 -353h289z" />
    <glyph glyph-name="AE.sc" unicode="&#xe001;" horiz-adv-x="1593" 
d="M664 397h-299l-86 -168q-37 -72 -37 -106q0 -62 104 -62v-65q-37 2 -166 2q-125 0 -170 -2v65q28 1 46 7.5t39 33.5t28.5 39.5t37.5 69.5q2 3 3 5t3 5t3 6l266 498q64 121 71 146q3 12 3 22q0 23 -19.5 34t-72.5 11h-47v66q278 -5 288 -5q161 0 459 2.5t342 2.5v-287h-65
q-17 61 -36.5 97t-54.5 62t-88.5 36t-136.5 10q-56 0 -80 -4.5t-30 -14t-6 -33.5v-309h49q137 0 157 162h66v-393h-66q-21 149 -157 149h-49v-229q0 -96 39.5 -134t152.5 -38q128 0 190 58t97 196h65v-336q-46 0 -283 2t-411 2q-167 0 -293 -4v65h37q63 0 85 30.5t22 129.5
v176zM406 479h258v443h-25z" />
    <glyph glyph-name="Aacute.sc" unicode="&#xe002;" 
d="M707 279h-355l-22 -62q-21 -51 -21 -86q0 -36 26.5 -51.5t106.5 -18.5v-65q-14 0 -78.5 2t-115.5 2t-116 -2t-79 -2v65q68 9 108 51t83 140l344 772h98l344 -803q36 -87 67.5 -118.5t98.5 -41.5v-65q-3 0 -96.5 2t-190.5 2t-190 -2t-96 -2v65h51q78 0 78 48q0 23 -19 86z
M541 713l-154 -353h289zM414 1083l229 250q3 3 20.5 23t26.5 28t25.5 22t31 20t29.5 6q32 0 55 -24t23 -56q0 -39 -80 -86l-49 -33l-246 -150h-65z" />
    <glyph glyph-name="Acircumflex.sc" unicode="&#xe003;" 
d="M707 279h-355l-22 -62q-21 -51 -21 -86q0 -36 26.5 -51.5t106.5 -18.5v-65q-14 0 -78.5 2t-115.5 2t-116 -2t-79 -2v65q68 9 108 51t83 140l344 772h98l344 -803q36 -87 67.5 -118.5t98.5 -41.5v-65q-3 0 -96.5 2t-190.5 2t-190 -2t-96 -2v65h51q78 0 78 48q0 23 -19 86z
M541 713l-154 -353h289zM887 1083h-66l-203 193l-198 -193h-68l203 338h127z" />
    <glyph glyph-name="Adieresis.sc" unicode="&#xe004;" 
d="M707 279h-355l-22 -62q-21 -51 -21 -86q0 -36 26.5 -51.5t106.5 -18.5v-65q-14 0 -78.5 2t-115.5 2t-116 -2t-79 -2v65q68 9 108 51t83 140l344 772h98l344 -803q36 -87 67.5 -118.5t98.5 -41.5v-65q-3 0 -96.5 2t-190.5 2t-190 -2t-96 -2v65h51q78 0 78 48q0 23 -19 86z
M541 713l-154 -353h289zM797 1141q-46 0 -77.5 32t-31.5 78q0 48 34 78.5t81 30.5q42 0 73 -32.5t31 -74.5q0 -46 -31.5 -79t-78.5 -33zM461 1141q-46 0 -77.5 32t-31.5 78q0 48 34 78.5t81 30.5q42 0 73 -32.5t31 -74.5q0 -46 -31.5 -79t-78.5 -33z" />
    <glyph glyph-name="Agrave.sc" unicode="&#xe005;" 
d="M707 279h-355l-22 -62q-21 -51 -21 -86q0 -36 26.5 -51.5t106.5 -18.5v-65q-14 0 -78.5 2t-115.5 2t-116 -2t-79 -2v65q68 9 108 51t83 140l344 772h98l344 -803q36 -87 67.5 -118.5t98.5 -41.5v-65q-3 0 -96.5 2t-190.5 2t-190 -2t-96 -2v65h51q78 0 78 48q0 23 -19 86z
M541 713l-154 -353h289zM854 1083h-66l-245 150l-49 33q-80 47 -80 86q0 32 23 56t55 24q15 0 29.5 -6t31 -20t25.5 -22t26.5 -28t20.5 -23z" />
    <glyph glyph-name="Aring.sc" unicode="&#xe006;" 
d="M707 279h-355l-22 -62q-21 -51 -21 -86q0 -36 26.5 -51.5t106.5 -18.5v-65q-14 0 -78.5 2t-115.5 2t-116 -2t-79 -2v65q68 9 108 51t83 140l344 772h98l344 -803q36 -87 67.5 -118.5t98.5 -41.5v-65q-3 0 -96.5 2t-190.5 2t-190 -2t-96 -2v65h51q78 0 78 48q0 23 -19 86z
M541 713l-154 -353h289zM623 1047q-86 0 -147.5 59.5t-61.5 144.5q0 87 63.5 145t151.5 58q86 0 145.5 -62t59.5 -149q0 -83 -63.5 -139.5t-147.5 -56.5zM623 1128q48 0 83 35t35 84t-30.5 88t-79.5 39q-52 0 -89.5 -34t-37.5 -85q0 -52 34 -89.5t85 -37.5z" />
    <glyph glyph-name="Atilde.sc" unicode="&#xe007;" 
d="M707 279h-355l-22 -62q-21 -51 -21 -86q0 -36 26.5 -51.5t106.5 -18.5v-65q-14 0 -78.5 2t-115.5 2t-116 -2t-79 -2v65q68 9 108 51t83 140l344 772h98l344 -803q36 -87 67.5 -118.5t98.5 -41.5v-65q-3 0 -96.5 2t-190.5 2t-190 -2t-96 -2v65h51q78 0 78 48q0 23 -19 86z
M541 713l-154 -353h289zM399 1143l-47 6q10 71 64 136t123 65q45 0 116 -31q3 -1 23 -9.5t28 -11.5t24 -8.5t29 -7.5t25 -2q29 0 52.5 21.5t31.5 50.5l50 -6q-12 -77 -60.5 -138t-120.5 -61q-37 0 -110 31q-8 3 -29 10.5t-34.5 11.5t-31.5 8t-32 4q-36 0 -63.5 -18.5
t-37.5 -50.5z" />
    <glyph glyph-name="B.sc" unicode="&#xe008;" horiz-adv-x="1138" 
d="M190 221v557q0 99 -21.5 129.5t-84.5 30.5h-37v66q158 -5 293 -5q58 0 163.5 2.5t149.5 2.5q181 0 270 -66.5t89 -173.5q0 -74 -45.5 -128t-114.5 -81.5t-160 -38.5v-4q190 -20 283.5 -80.5t93.5 -181.5t-99 -187.5t-304 -66.5q-45 0 -153.5 2t-172.5 2q-167 0 -293 -4
v65h37q63 0 84.5 30.5t21.5 129.5zM489 469v-279q0 -112 129 -112q72 0 112 51t40 131q0 94 -53.5 151.5t-165.5 57.5h-62zM489 872v-321h62q86 0 132 51.5t46 140.5q0 88 -49.5 133.5t-130.5 45.5q-39 0 -49.5 -10.5t-10.5 -39.5z" />
    <glyph glyph-name="C.sc" unicode="&#xe009;" horiz-adv-x="1138" 
d="M920 930l24 84h82l10 -340h-82q-13 49 -33 91t-52 81t-81 61.5t-110 22.5q-285 0 -285 -436q0 -205 78 -308.5t203 -103.5q65 0 117.5 24t87 64.5t56 87t32.5 98.5h90v-356h-90l-33 88q-64 -50 -157 -85.5t-204 -35.5q-103 0 -194 36t-160 102t-109 166.5t-40 222.5
q0 240 147.5 389t374.5 149q163 0 328 -102z" />
    <glyph glyph-name="Ccedilla.sc" unicode="&#xe00a;" horiz-adv-x="1138" 
d="M1057 356v-356h-90l-33 88q-64 -50 -157 -85.5t-204 -35.5h-6l-10 -80l37 2q68 0 114 -28.5t46 -91.5q0 -61 -53 -97.5t-117 -36.5q-31 0 -65.5 9t-63.5 32.5t-29 55.5q0 17 13 30t30 13q19 0 31 -13t17.5 -29t23 -29t47.5 -13q28 0 48.5 20.5t20.5 48.5q0 39 -36 58.5
t-78 19.5q-10 0 -32 -3t-32 -3l19 141q-187 24 -307.5 162.5t-120.5 358.5q0 240 147.5 389t374.5 149q163 0 328 -102l24 84h82l10 -340h-82q-13 49 -33 91t-52 81t-81 61.5t-110 22.5q-285 0 -285 -436q0 -205 78 -308.5t203 -103.5q65 0 117.5 24t87 64.5t56 87
t32.5 98.5h90z" />
    <glyph glyph-name="D.sc" unicode="&#xe00b;" 
d="M209 221v557q0 99 -22 129.5t-85 30.5h-36v66q157 -5 292 -5q39 0 126.5 2.5t133.5 2.5q129 0 237.5 -40t181 -108.5t113 -161t40.5 -196.5q0 -101 -35 -191.5t-99.5 -160t-165.5 -110t-224 -40.5q-34 0 -137 2t-171 2q-166 0 -292 -4v65h36q63 0 85 30.5t22 129.5z
M508 858v-612q0 -97 33 -132.5t108 -35.5q217 0 217 420q0 220 -64 322t-206 102q-54 0 -71 -12t-17 -52z" />
    <glyph glyph-name="E.sc" unicode="&#xe00c;" horiz-adv-x="1138" 
d="M780 723v-393h-65q-21 149 -158 149h-49v-229q0 -96 39.5 -134t152.5 -38q128 0 190 58t97 196h66v-336q-46 0 -283.5 2t-411.5 2q-166 0 -292 -4v65h36q63 0 85 30.5t22 129.5v557q0 99 -22 129.5t-85 30.5h-36v66q157 -5 292 -5q192 0 399.5 2.5t248.5 2.5v-287h-66
q-23 81 -52.5 122t-91 62t-171.5 21q-80 0 -98.5 -9t-18.5 -43v-309h49q138 0 158 162h65z" />
    <glyph glyph-name="Eacute.sc" unicode="&#xe00d;" horiz-adv-x="1138" 
d="M780 723v-393h-65q-21 149 -158 149h-49v-229q0 -96 39.5 -134t152.5 -38q128 0 190 58t97 196h66v-336q-46 0 -283.5 2t-411.5 2q-166 0 -292 -4v65h36q63 0 85 30.5t22 129.5v557q0 99 -22 129.5t-85 30.5h-36v66q157 -5 292 -5q192 0 399.5 2.5t248.5 2.5v-287h-66
q-23 81 -52.5 122t-91 62t-171.5 21q-80 0 -98.5 -9t-18.5 -43v-309h49q138 0 158 162h65zM356 1083l230 250q3 3 20.5 23t26.5 28t25.5 22t31 20t29.5 6q32 0 55 -24t23 -56q0 -39 -80 -86l-49 -33l-246 -150h-66z" />
    <glyph glyph-name="Ecircumflex.sc" unicode="&#xe00e;" horiz-adv-x="1138" 
d="M780 723v-393h-65q-21 149 -158 149h-49v-229q0 -96 39.5 -134t152.5 -38q128 0 190 58t97 196h66v-336q-46 0 -283.5 2t-411.5 2q-166 0 -292 -4v65h36q63 0 85 30.5t22 129.5v557q0 99 -22 129.5t-85 30.5h-36v66q157 -5 292 -5q192 0 399.5 2.5t248.5 2.5v-287h-66
q-23 81 -52.5 122t-91 62t-171.5 21q-80 0 -98.5 -9t-18.5 -43v-309h49q138 0 158 162h65zM829 1083h-65l-203 193l-199 -193h-67l203 338h127z" />
    <glyph glyph-name="Edieresis.sc" unicode="&#xe00f;" horiz-adv-x="1138" 
d="M780 723v-393h-65q-21 149 -158 149h-49v-229q0 -96 39.5 -134t152.5 -38q128 0 190 58t97 196h66v-336q-46 0 -283.5 2t-411.5 2q-166 0 -292 -4v65h36q63 0 85 30.5t22 129.5v557q0 99 -22 129.5t-85 30.5h-36v66q157 -5 292 -5q192 0 399.5 2.5t248.5 2.5v-287h-66
q-23 81 -52.5 122t-91 62t-171.5 21q-80 0 -98.5 -9t-18.5 -43v-309h49q138 0 158 162h65zM739 1141q-46 0 -77 32t-31 78q0 48 33.5 78.5t80.5 30.5q42 0 73.5 -32.5t31.5 -74.5q0 -46 -32 -79t-79 -33zM403 1141q-46 0 -77 32t-31 78q0 48 34 78.5t81 30.5q42 0 73 -32.5
t31 -74.5q0 -46 -32 -79t-79 -33z" />
    <glyph glyph-name="Egrave.sc" unicode="&#xe010;" horiz-adv-x="1138" 
d="M780 723v-393h-65q-21 149 -158 149h-49v-229q0 -96 39.5 -134t152.5 -38q128 0 190 58t97 196h66v-336q-46 0 -283.5 2t-411.5 2q-166 0 -292 -4v65h36q63 0 85 30.5t22 129.5v557q0 99 -22 129.5t-85 30.5h-36v66q157 -5 292 -5q192 0 399.5 2.5t248.5 2.5v-287h-66
q-23 81 -52.5 122t-91 62t-171.5 21q-80 0 -98.5 -9t-18.5 -43v-309h49q138 0 158 162h65zM797 1083h-66l-246 150l-49 33q-80 47 -80 86q0 32 23 56t55 24q15 0 29.5 -6t31 -20t25.5 -22t26.5 -28t20.5 -23z" />
    <glyph glyph-name="Eth.sc" unicode="&#xe011;" 
d="M209 221v271h-164v81h164v205q0 99 -22 129.5t-85 30.5h-36v66q157 -5 292 -5q39 0 126.5 2.5t133.5 2.5q129 0 237.5 -40t181 -108.5t113 -161t40.5 -196.5q0 -101 -35 -191.5t-99.5 -160t-165.5 -110t-224 -40.5q-34 0 -137 2t-171 2q-166 0 -292 -4v65h36
q63 0 85 30.5t22 129.5zM717 573v-81h-209v-246q0 -97 33 -132.5t108 -35.5q217 0 217 420q0 220 -64 322t-206 102q-54 0 -71 -12t-17 -52v-285h209z" />
    <glyph glyph-name="F.sc" unicode="&#xe012;" horiz-adv-x="1024" 
d="M762 723v-393h-66q-21 149 -157 149h-50v-258q0 -99 22 -129.5t85 -30.5h37v-65q-126 4 -293 4t-293 -4v65h37q63 0 84.5 30.5t21.5 129.5v557q0 99 -21.5 129.5t-84.5 30.5h-37v66q158 -5 293 -5q192 0 399 2.5t248 2.5v-287h-65q-17 61 -36.5 97t-54.5 62t-88.5 36
t-136.5 10q-80 0 -98.5 -9t-18.5 -43v-309h50q137 0 157 162h66z" />
    <glyph glyph-name="G.sc" unicode="&#xe013;" 
d="M1221 426v-66h-17q-63 0 -84.5 -30t-21.5 -129q0 -42 6 -123q-95 -12 -186 -40.5t-166 -49.5t-154 -21q-251 0 -398 143.5t-147 383.5t147.5 389t374.5 149q163 0 328 -102l25 84h82l10 -340h-82q-13 49 -33 91t-52 81t-81 61.5t-110 22.5q-285 0 -285 -436
q0 -424 262 -424q180 0 180 168q0 78 -29.5 100t-101.5 22v66q164 -4 275 -4q172 0 258 4z" />
    <glyph glyph-name="H.sc" unicode="&#xe014;" horiz-adv-x="1366" 
d="M489 561h385v217q0 99 -21.5 129.5t-84.5 30.5h-37v66q157 -5 293 -5t293 5v-66h-37q-63 0 -84.5 -30.5t-21.5 -129.5v-557q0 -99 21.5 -129.5t84.5 -30.5h37v-65q-126 4 -293 4t-293 -4v65h37q63 0 84.5 30.5t21.5 129.5v258h-385v-258q0 -99 22 -129.5t85 -30.5h37v-65
q-126 4 -293 4t-293 -4v65h37q63 0 84.5 30.5t21.5 129.5v557q0 99 -21.5 129.5t-84.5 30.5h-37v66q158 -5 293 -5q136 0 293 5v-66h-37q-63 0 -85 -30.5t-22 -129.5v-217z" />
    <glyph glyph-name="I.sc" unicode="&#xe015;" horiz-adv-x="681" 
d="M489 778v-557q0 -99 22 -129.5t85 -30.5h37v-65q-126 4 -293 4t-293 -4v65h37q63 0 84.5 30.5t21.5 129.5v557q0 99 -21.5 129.5t-84.5 30.5h-37v66q158 -5 293 -5q136 0 293 5v-66h-37q-63 0 -85 -30.5t-22 -129.5z" />
    <glyph glyph-name="Iacute.sc" unicode="&#xe016;" horiz-adv-x="681" 
d="M489 778v-557q0 -99 22 -129.5t85 -30.5h37v-65q-126 4 -293 4t-293 -4v65h37q63 0 84.5 30.5t21.5 129.5v557q0 99 -21.5 129.5t-84.5 30.5h-37v66q158 -5 293 -5q136 0 293 5v-66h-37q-63 0 -85 -30.5t-22 -129.5zM154 1083l229 250q3 3 20.5 23t26.5 28t25.5 22t31 20
t29.5 6q32 0 55 -24t23 -56q0 -39 -80 -86l-49 -33l-246 -150h-65z" />
    <glyph glyph-name="Icircumflex.sc" unicode="&#xe017;" horiz-adv-x="681" 
d="M489 778v-557q0 -99 22 -129.5t85 -30.5h37v-65q-126 4 -293 4t-293 -4v65h37q63 0 84.5 30.5t21.5 129.5v557q0 99 -21.5 129.5t-84.5 30.5h-37v66q158 -5 293 -5q136 0 293 5v-66h-37q-63 0 -85 -30.5t-22 -129.5zM602 1083h-65l-203 193l-199 -193h-67l202 338h127z
" />
    <glyph glyph-name="Idieresis.sc" unicode="&#xe018;" horiz-adv-x="681" 
d="M489 778v-557q0 -99 22 -129.5t85 -30.5h37v-65q-126 4 -293 4t-293 -4v65h37q63 0 84.5 30.5t21.5 129.5v557q0 99 -21.5 129.5t-84.5 30.5h-37v66q158 -5 293 -5q136 0 293 5v-66h-37q-63 0 -85 -30.5t-22 -129.5zM512 1141q-46 0 -77.5 32t-31.5 78q0 48 34 78.5
t81 30.5q42 0 73.5 -32.5t31.5 -74.5q0 -46 -32 -79t-79 -33zM176 1141q-46 0 -77 32t-31 78q0 48 33.5 78.5t80.5 30.5q42 0 73.5 -32.5t31.5 -74.5q0 -46 -32 -79t-79 -33z" />
    <glyph glyph-name="Igrave.sc" unicode="&#xe019;" horiz-adv-x="681" 
d="M489 778v-557q0 -99 22 -129.5t85 -30.5h37v-65q-126 4 -293 4t-293 -4v65h37q63 0 84.5 30.5t21.5 129.5v557q0 99 -21.5 129.5t-84.5 30.5h-37v66q158 -5 293 -5q136 0 293 5v-66h-37q-63 0 -85 -30.5t-22 -129.5zM543 1083h-66l-246 150l-49 33q-80 47 -80 86
q0 32 23 56t55 24q15 0 29.5 -6t31 -20t25.5 -22t26.5 -28t20.5 -23z" />
    <glyph glyph-name="J.sc" unicode="&#xe01a;" horiz-adv-x="681" 
d="M645 1004v-66h-37q-63 0 -84.5 -30.5t-21.5 -129.5v-811q0 -250 -101.5 -360.5t-326.5 -110.5q-143 0 -226.5 53t-83.5 132q0 51 31.5 81.5t85.5 30.5q44 0 73 -24.5t52 -75.5q4 -10 13.5 -33t13 -30t11.5 -21t15 -18t18 -8.5t25 -4.5q52 0 76.5 66.5t24.5 220.5v913
q0 99 -22 129.5t-85 30.5h-37v66q158 -5 293 -5q136 0 293 5z" />
    <glyph glyph-name="K.sc" unicode="&#xe01b;" 
d="M489 778v-297l226 230q102 102 102 159q0 39 -25 53.5t-81 14.5v66q118 -5 213 -5q102 0 209 5v-66q-61 -4 -112 -40.5t-128 -119.5l-115 -125l361 -491q42 -59 64 -79.5t50 -21.5v-65q-140 4 -260 4q-146 0 -272 -4v65h20q78 0 78 50q0 25 -15.5 51.5t-62.5 89.5
l-157 209l-95 -94v-146q0 -99 22 -129.5t85 -30.5h12v-65q-78 4 -268 4q-167 0 -293 -4v65h37q63 0 84.5 30.5t21.5 129.5v557q0 99 -21.5 129.5t-84.5 30.5h-37v66q158 -5 293 -5q170 0 268 5v-66h-12q-63 0 -85 -30.5t-22 -129.5z" />
    <glyph glyph-name="L.sc" unicode="&#xe01c;" horiz-adv-x="1138" 
d="M209 221v557q0 99 -22 129.5t-85 30.5h-36v66q157 -5 292 -5t293 5v-66h-37q-63 0 -84.5 -30.5t-21.5 -129.5v-528q0 -96 41 -134t160 -38q129 0 195 58.5t102 195.5h65l-16 -336q-47 0 -285 2t-412 2q-166 0 -292 -4v65h36q63 0 85 30.5t22 129.5z" />
    <glyph glyph-name="Lslash.sc" unicode="&#xe01d;" horiz-adv-x="1138" 
d="M209 221v141l-143 -75v102l143 76v313q0 99 -22 129.5t-85 30.5h-36v66q157 -5 292 -5t293 5v-66h-37q-63 0 -84.5 -30.5t-21.5 -129.5v-153l258 137v-103l-258 -137v-272q0 -96 41 -134t160 -38q129 0 195 58.5t102 195.5h65l-16 -336q-47 0 -285 2t-412 2
q-166 0 -292 -4v65h36q63 0 85 30.5t22 129.5z" />
    <glyph glyph-name="M.sc" unicode="&#xe01e;" horiz-adv-x="1478" 
d="M752 367l262 637q122 -5 209 -5q57 0 215 5v-66h-37q-63 0 -85 -30.5t-22 -129.5v-557q0 -99 22 -129.5t85 -30.5h37v-65q-126 4 -271 4q-200 0 -282 -4v65q73 0 102 31.5t29 128.5v553h-4l-326 -774h-78l-332 786h-4v-522q0 -86 17 -131t46 -58.5t85 -13.5v-65
q-86 4 -193 4q-100 0 -178 -4v65q70 0 101.5 44t31.5 159v514q0 99 -21.5 129.5t-84.5 30.5h-37v66q157 -5 213 -5q80 0 223 5z" />
    <glyph glyph-name="N.sc" unicode="&#xe01f;" 
d="M1055 -33h-90l-678 776v-479q0 -86 16.5 -131t46 -58.5t84.5 -13.5v-65q-86 4 -192 4q-89 0 -191 -4v65q79 0 112.5 44t33.5 159v578q-61 96 -146 96v66q147 -5 191 -5q55 0 182 5l541 -623v354q0 86 -17 131t-46 58.5t-85 13.5v66q107 -5 193 -5q62 0 190 5v-66
q-79 0 -112 -43.5t-33 -159.5v-768z" />
    <glyph glyph-name="Ntilde.sc" unicode="&#xe020;" 
d="M1055 -33h-90l-678 776v-479q0 -86 16.5 -131t46 -58.5t84.5 -13.5v-65q-86 4 -192 4q-89 0 -191 -4v65q79 0 112.5 44t33.5 159v578q-61 96 -146 96v66q147 -5 191 -5q55 0 182 5l541 -623v354q0 86 -17 131t-46 58.5t-85 13.5v66q107 -5 193 -5q62 0 190 5v-66
q-79 0 -112 -43.5t-33 -159.5v-768zM399 1143l-47 6q10 71 64 136t123 65q45 0 116 -31q3 -1 23 -9.5t28 -11.5t24 -8.5t29 -7.5t25 -2q29 0 52.5 21.5t31.5 50.5l50 -6q-12 -77 -60.5 -138t-120.5 -61q-37 0 -110 31q-8 3 -29 10.5t-34.5 11.5t-31.5 8t-32 4
q-36 0 -63.5 -18.5t-37.5 -50.5z" />
    <glyph glyph-name="O.sc" unicode="&#xe021;" 
d="M61 494q0 241 153.5 389.5t410.5 148.5q256 0 409.5 -146.5t153.5 -379.5q0 -241 -153 -390t-410 -149q-256 0 -410 147t-154 380zM385 494q0 -445 240 -445q239 0 239 457q0 444 -239 444q-240 0 -240 -456z" />
    <glyph glyph-name="OE.sc" unicode="&#xe022;" horiz-adv-x="1705" 
d="M1599 1004v-287h-65q-33 118 -90.5 159.5t-204.5 41.5q-80 0 -98.5 -9t-18.5 -43v-305h49q138 0 158 162h66v-393h-66q-21 149 -158 149h-49v-225q0 -96 39.5 -134t153.5 -38q66 0 109.5 13t73 46t47.5 76t36 115h66v-336q-26 0 -239.5 2t-397.5 2q-16 0 -181 -6
q-110 -8 -182 -8q-155 0 -275.5 40t-195 111t-113 163t-38.5 200t38.5 200t113 163t195 111t275.5 40q17 0 182 -6q124 -9 181 -9q185 0 373.5 2.5t215.5 2.5zM823 252v496q0 103 -43.5 143.5t-146.5 40.5q-285 0 -285 -432t285 -432q103 0 146.5 40.5t43.5 143.5z" />
    <glyph glyph-name="Oacute.sc" unicode="&#xe023;" 
d="M61 494q0 241 153.5 389.5t410.5 148.5q256 0 409.5 -146.5t153.5 -379.5q0 -241 -153 -390t-410 -149q-256 0 -410 147t-154 380zM385 494q0 -445 240 -445q239 0 239 457q0 444 -239 444q-240 0 -240 -456zM414 1083l229 250q3 3 20.5 23t26.5 28t25.5 22t31 20t29.5 6
q32 0 55 -24t23 -56q0 -39 -80 -86l-49 -33l-246 -150h-65z" />
    <glyph glyph-name="Ocircumflex.sc" unicode="&#xe024;" 
d="M61 494q0 241 153.5 389.5t410.5 148.5q256 0 409.5 -146.5t153.5 -379.5q0 -241 -153 -390t-410 -149q-256 0 -410 147t-154 380zM385 494q0 -445 240 -445q239 0 239 457q0 444 -239 444q-240 0 -240 -456zM887 1083h-66l-203 193l-198 -193h-68l203 338h127z" />
    <glyph glyph-name="Odieresis.sc" unicode="&#xe025;" 
d="M61 494q0 241 153.5 389.5t410.5 148.5q256 0 409.5 -146.5t153.5 -379.5q0 -241 -153 -390t-410 -149q-256 0 -410 147t-154 380zM385 494q0 -445 240 -445q239 0 239 457q0 444 -239 444q-240 0 -240 -456zM797 1141q-46 0 -77.5 32t-31.5 78q0 48 34 78.5t81 30.5
q42 0 73 -32.5t31 -74.5q0 -46 -31.5 -79t-78.5 -33zM461 1141q-46 0 -77.5 32t-31.5 78q0 48 34 78.5t81 30.5q42 0 73 -32.5t31 -74.5q0 -46 -31.5 -79t-78.5 -33z" />
    <glyph glyph-name="Ograve.sc" unicode="&#xe026;" 
d="M61 494q0 241 153.5 389.5t410.5 148.5q256 0 409.5 -146.5t153.5 -379.5q0 -241 -153 -390t-410 -149q-256 0 -410 147t-154 380zM385 494q0 -445 240 -445q239 0 239 457q0 444 -239 444q-240 0 -240 -456zM854 1083h-66l-245 150l-49 33q-80 47 -80 86q0 32 23 56
t55 24q15 0 29.5 -6t31 -20t25.5 -22t26.5 -28t20.5 -23z" />
    <glyph glyph-name="Oslash.sc" unicode="&#xe027;" 
d="M412 256l374 608q-58 86 -161 86q-240 0 -240 -456q0 -139 27 -238zM829 776l-380 -616q57 -111 176 -111q239 0 239 457q0 172 -35 270zM229 -197h-98l158 256q-109 69 -168.5 182t-59.5 253q0 241 153.5 389.5t410.5 148.5q136 0 239 -41l127 205h99l-150 -242
q119 -66 183.5 -182.5t64.5 -265.5q0 -241 -153 -390t-410 -149q-151 0 -263 53z" />
    <glyph glyph-name="Otilde.sc" unicode="&#xe028;" 
d="M61 494q0 241 153.5 389.5t410.5 148.5q256 0 409.5 -146.5t153.5 -379.5q0 -241 -153 -390t-410 -149q-256 0 -410 147t-154 380zM385 494q0 -445 240 -445q239 0 239 457q0 444 -239 444q-240 0 -240 -456zM399 1143l-47 6q10 71 64 136t123 65q45 0 116 -31
q3 -1 23 -9.5t28 -11.5t24 -8.5t29 -7.5t25 -2q29 0 52.5 21.5t31.5 50.5l50 -6q-12 -77 -60.5 -138t-120.5 -61q-37 0 -110 31q-8 3 -29 10.5t-34.5 11.5t-31.5 8t-32 4q-36 0 -63.5 -18.5t-37.5 -50.5z" />
    <glyph glyph-name="P.sc" unicode="&#xe029;" horiz-adv-x="1138" 
d="M508 866v-329h70q196 0 196 200q0 96 -49 140.5t-145 44.5q-44 0 -58 -12.5t-14 -43.5zM508 463v-242q0 -99 21.5 -129.5t84.5 -30.5h37v-65q-126 4 -293 4q-166 0 -292 -4v65h36q63 0 85 30.5t22 129.5v557q0 99 -22 129.5t-85 30.5h-36v66q157 -5 292 -5q68 0 318 5
q116 2 203.5 -25t140.5 -90t53 -156q0 -278 -440 -278q-43 0 -125 8z" />
    <glyph glyph-name="Q.sc" unicode="&#xe02a;" 
d="M557 -90l96 55l-4 4q-4 -2 -24 -2q-256 0 -410 147t-154 380q0 241 153.5 389.5t410.5 148.5q256 0 409.5 -146.5t153.5 -379.5q0 -194 -100.5 -330t-278.5 -182q-106 -60 -174 -107l4 -4q70 11 156 11q135 0 282 -60q2 -1 21.5 -9.5t23 -10t20.5 -8.5t22 -8.5t20 -7
t21.5 -7t19.5 -5t22 -4.5t20.5 -2t22.5 -1q48 0 82.5 15.5t49 34.5t27.5 34.5t24 15.5q24 0 24 -33q0 -23 -8 -56.5t-30 -77t-53 -79.5t-83.5 -61t-116.5 -25q-61 0 -119 22t-91.5 45.5t-86.5 67.5q-45 38 -63 52.5t-57.5 40t-77 35.5t-80.5 10q-54 0 -100.5 -16t-72 -34.5
t-52.5 -34.5t-46 -16q-41 0 -41 43q0 25 25.5 42.5t93 49.5t119.5 64zM385 494q0 -445 240 -445q239 0 239 457q0 444 -239 444q-240 0 -240 -456z" />
    <glyph glyph-name="R.sc" unicode="&#xe02b;" 
d="M508 864v-332q36 -4 70 -4q192 0 192 197q0 107 -48.5 152t-150.5 45q-39 0 -51 -11.5t-12 -46.5zM508 446v-225q0 -99 21.5 -129.5t84.5 -30.5h37v-65q-126 4 -293 4q-166 0 -292 -4v65h36q63 0 85 30.5t22 129.5v557q0 99 -22 129.5t-85 30.5h-36v66q157 -5 292 -5
q55 0 162 2.5t160 2.5q195 0 292 -65t97 -181q0 -201 -231 -248l282 -367q35 -48 56 -64.5t49 -17.5v-65q-78 4 -156 4q-88 0 -170 -4l-317 450h-74z" />
    <glyph glyph-name="S.sc" unicode="&#xe02c;" horiz-adv-x="909" 
d="M700 1022h82l11 -303h-80q-54 124 -119 177.5t-162 53.5q-60 0 -96.5 -32t-36.5 -84q0 -45 30 -79t78 -57t105.5 -45t115.5 -51.5t106 -67t78 -100t30 -143.5q0 -143 -108 -233.5t-298 -90.5q-149 0 -270 90l-23 -65h-75v338h73q22 -118 100.5 -193.5t190.5 -75.5
q78 0 125 39t47 103q0 34 -18 61.5t-49 47t-70.5 37t-83.5 35.5t-88 38t-83.5 48t-70.5 63t-49 86t-18 114q0 130 99 214.5t257 84.5q133 0 246 -82z" />
    <glyph glyph-name="Scaron.sc" unicode="&#xe02d;" horiz-adv-x="909" 
d="M700 1022h82l11 -303h-80q-54 124 -119 177.5t-162 53.5q-60 0 -96.5 -32t-36.5 -84q0 -45 30 -79t78 -57t105.5 -45t115.5 -51.5t106 -67t78 -100t30 -143.5q0 -143 -108 -233.5t-298 -90.5q-149 0 -270 90l-23 -65h-75v338h73q22 -118 100.5 -193.5t190.5 -75.5
q78 0 125 39t47 103q0 34 -18 61.5t-49 47t-70.5 37t-83.5 35.5t-88 38t-83.5 48t-70.5 63t-49 86t-18 114q0 130 99 214.5t257 84.5q133 0 246 -82zM715 1421l-205 -338h-127l-203 338h68l198 -194l203 194h66z" />
    <glyph glyph-name="T.sc" unicode="&#xe02e;" horiz-adv-x="1138" 
d="M719 872v-651q0 -99 21.5 -129.5t84.5 -30.5h37v-65q-126 4 -293 4t-293 -4v65h37q63 0 85 30.5t22 129.5v651q0 29 -10.5 39.5t-47.5 10.5q-58 -1 -98.5 -17t-66.5 -48t-41 -69t-27 -92h-82l14 308q430 -5 508 -5t508 5l15 -308h-82q-24 112 -74 168.5t-160 57.5
q-36 0 -46.5 -10t-10.5 -40z" />
    <glyph glyph-name="Thorn.sc" unicode="&#xe02f;" horiz-adv-x="1138" 
d="M508 662v-330h70q196 0 196 200q0 96 -49 140.5t-145 44.5q-44 0 -58 -12t-14 -43zM508 258v-37q0 -99 21.5 -129.5t84.5 -30.5h37v-65q-126 4 -293 4q-166 0 -292 -4v65h36q63 0 85 30.5t22 129.5v557q0 99 -22 129.5t-85 30.5h-36v66q157 -5 292 -5t293 5v-66h-37
q-63 0 -84.5 -27.5t-21.5 -115.5q30 0 156 4q191 3 300 -64t109 -207q0 -278 -440 -278q-43 0 -125 8z" />
    <glyph glyph-name="U.sc" unicode="&#xe030;" 
d="M1206 1004v-66q-38 0 -61.5 -7t-42.5 -28.5t-27 -62t-8 -105.5v-299q0 -246 -101.5 -357.5t-332.5 -111.5q-237 0 -343 98t-106 330v383q0 99 -21.5 129.5t-84.5 30.5h-33v66q147 -5 289 -5q136 0 293 5v-66h-37q-63 0 -85 -30.5t-22 -129.5v-424q0 -150 51.5 -211
t176.5 -61q138 0 202 78t64 237v338q0 115 -33.5 159t-112.5 44v66q127 -5 191 -5q96 0 184 5z" />
    <glyph glyph-name="Uacute.sc" unicode="&#xe031;" 
d="M1206 1004v-66q-38 0 -61.5 -7t-42.5 -28.5t-27 -62t-8 -105.5v-299q0 -246 -101.5 -357.5t-332.5 -111.5q-237 0 -343 98t-106 330v383q0 99 -21.5 129.5t-84.5 30.5h-33v66q147 -5 289 -5q136 0 293 5v-66h-37q-63 0 -85 -30.5t-22 -129.5v-424q0 -150 51.5 -211
t176.5 -61q138 0 202 78t64 237v338q0 115 -33.5 159t-112.5 44v66q127 -5 191 -5q96 0 184 5zM414 1083l229 250q3 3 20.5 23t26.5 28t25.5 22t31 20t29.5 6q32 0 55 -24t23 -56q0 -39 -80 -86l-49 -33l-246 -150h-65z" />
    <glyph glyph-name="Ucircumflex.sc" unicode="&#xe032;" 
d="M1206 1004v-66q-38 0 -61.5 -7t-42.5 -28.5t-27 -62t-8 -105.5v-299q0 -246 -101.5 -357.5t-332.5 -111.5q-237 0 -343 98t-106 330v383q0 99 -21.5 129.5t-84.5 30.5h-33v66q147 -5 289 -5q136 0 293 5v-66h-37q-63 0 -85 -30.5t-22 -129.5v-424q0 -150 51.5 -211
t176.5 -61q138 0 202 78t64 237v338q0 115 -33.5 159t-112.5 44v66q127 -5 191 -5q96 0 184 5zM887 1083h-66l-203 193l-198 -193h-68l203 338h127z" />
    <glyph glyph-name="Udieresis.sc" unicode="&#xe033;" 
d="M1206 1004v-66q-38 0 -61.5 -7t-42.5 -28.5t-27 -62t-8 -105.5v-299q0 -246 -101.5 -357.5t-332.5 -111.5q-237 0 -343 98t-106 330v383q0 99 -21.5 129.5t-84.5 30.5h-33v66q147 -5 289 -5q136 0 293 5v-66h-37q-63 0 -85 -30.5t-22 -129.5v-424q0 -150 51.5 -211
t176.5 -61q138 0 202 78t64 237v338q0 115 -33.5 159t-112.5 44v66q127 -5 191 -5q96 0 184 5zM797 1141q-46 0 -77.5 32t-31.5 78q0 48 34 78.5t81 30.5q42 0 73 -32.5t31 -74.5q0 -46 -31.5 -79t-78.5 -33zM461 1141q-46 0 -77.5 32t-31.5 78q0 48 34 78.5t81 30.5
q42 0 73 -32.5t31 -74.5q0 -46 -31.5 -79t-78.5 -33z" />
    <glyph glyph-name="Ugrave.sc" unicode="&#xe034;" 
d="M1206 1004v-66q-38 0 -61.5 -7t-42.5 -28.5t-27 -62t-8 -105.5v-299q0 -246 -101.5 -357.5t-332.5 -111.5q-237 0 -343 98t-106 330v383q0 99 -21.5 129.5t-84.5 30.5h-33v66q147 -5 289 -5q136 0 293 5v-66h-37q-63 0 -85 -30.5t-22 -129.5v-424q0 -150 51.5 -211
t176.5 -61q138 0 202 78t64 237v338q0 115 -33.5 159t-112.5 44v66q127 -5 191 -5q96 0 184 5zM854 1083h-66l-245 150l-49 33q-80 47 -80 86q0 32 23 56t55 24q15 0 29.5 -6t31 -20t25.5 -22t26.5 -28t20.5 -23z" />
    <glyph glyph-name="V.sc" unicode="&#xe035;" 
d="M57 938v66q152 -5 285 -5q172 0 289 5v-66h-43q-82 0 -82 -61q0 -28 39 -129l168 -437l180 426q37 84 37 131q0 38 -24.5 54t-80.5 16h-32v66q137 -5 213 -5q60 0 188 5v-66q-66 -1 -98.5 -28.5t-71.5 -112.5l-377 -830h-82l-350 842q-32 78 -63 103.5t-95 25.5z" />
    <glyph glyph-name="W.sc" unicode="&#xe036;" horiz-adv-x="1593" 
d="M39 938v66q170 -5 270 -5q147 0 275 5v-66h-33q-96 0 -96 -59q0 -27 43 -144l131 -358h4l211 627h82l237 -629h4l117 338q35 101 35 147q0 44 -30.5 61t-90.5 17v66q123 -5 188 -5q53 0 166 5v-66q-62 -4 -90 -37t-71 -151l-293 -783h-76l-223 619h-4l-224 -619h-75
l-312 828q-33 86 -58.5 111.5t-86.5 31.5z" />
    <glyph glyph-name="X.sc" unicode="&#xe037;" 
d="M43 938v66q175 -5 285 -5q125 0 290 5v-66h-63q-57 0 -57 -41q0 -33 51 -96l121 -152l98 117q66 78 66 121q0 51 -66 51h-41v66q138 -5 213 -5q106 0 199 5v-66q-74 -4 -114 -29.5t-114 -111.5l-186 -215l344 -430q72 -91 139 -91v-65q-106 4 -278 4q-216 0 -322 -4v65
h37q74 0 74 50q0 19 -10 36.5t-37 53.5l-135 174l-117 -135q-58 -68 -58 -113q0 -66 109 -66v-65q-118 4 -217 4q-77 0 -191 -4v65q48 0 93.5 32t109.5 106l217 250l-288 380q-51 66 -78 85t-74 24z" />
    <glyph glyph-name="Y.sc" unicode="&#xe038;" horiz-adv-x="1138" 
d="M39 938v66q185 -5 276 -5q151 0 263 5v-66h-41q-43 0 -60.5 -12t-17.5 -39q0 -36 43 -107l162 -278l135 213q63 98 63 155q0 40 -27.5 54t-89.5 14v66q152 -5 193 -5q14 0 162 5v-66q-48 -3 -71.5 -26.5t-82.5 -121.5q-2 -2 -3 -3.5t-2.5 -4t-2.5 -4.5l-219 -364v-193
q0 -99 21.5 -129.5t84.5 -30.5h37v-65q-126 4 -293 4t-293 -4v65h37q63 0 85 30.5t22 129.5v162l-240 428q-47 82 -68 101.5t-73 25.5z" />
    <glyph glyph-name="Yacute.sc" unicode="&#xe039;" horiz-adv-x="1138" 
d="M39 938v66q185 -5 276 -5q151 0 263 5v-66h-41q-43 0 -60.5 -12t-17.5 -39q0 -36 43 -107l162 -278l135 213q63 98 63 155q0 40 -27.5 54t-89.5 14v66q152 -5 193 -5q14 0 162 5v-66q-48 -3 -71.5 -26.5t-82.5 -121.5q-2 -2 -3 -3.5t-2.5 -4t-2.5 -4.5l-219 -364v-193
q0 -99 21.5 -129.5t84.5 -30.5h37v-65q-126 4 -293 4t-293 -4v65h37q63 0 85 30.5t22 129.5v162l-240 428q-47 82 -68 101.5t-73 25.5zM356 1083l230 250q3 3 20.5 23t26.5 28t25.5 22t31 20t29.5 6q32 0 55 -24t23 -56q0 -39 -80 -86l-49 -33l-246 -150h-66z" />
    <glyph glyph-name="Ydieresis.sc" unicode="&#xe03a;" horiz-adv-x="1138" 
d="M39 938v66q185 -5 276 -5q151 0 263 5v-66h-41q-43 0 -60.5 -12t-17.5 -39q0 -36 43 -107l162 -278l135 213q63 98 63 155q0 40 -27.5 54t-89.5 14v66q152 -5 193 -5q14 0 162 5v-66q-48 -3 -71.5 -26.5t-82.5 -121.5q-2 -2 -3 -3.5t-2.5 -4t-2.5 -4.5l-219 -364v-193
q0 -99 21.5 -129.5t84.5 -30.5h37v-65q-126 4 -293 4t-293 -4v65h37q63 0 85 30.5t22 129.5v162l-240 428q-47 82 -68 101.5t-73 25.5zM739 1141q-46 0 -77 32t-31 78q0 48 33.5 78.5t80.5 30.5q42 0 73.5 -32.5t31.5 -74.5q0 -46 -32 -79t-79 -33zM403 1141q-46 0 -77 32
t-31 78q0 48 34 78.5t81 30.5q42 0 73 -32.5t31 -74.5q0 -46 -32 -79t-79 -33z" />
    <glyph glyph-name="Z.sc" unicode="&#xe03b;" horiz-adv-x="1024" 
d="M170 709h-70l9 295q185 -5 432 -5q207 0 417 5v-64l-565 -862h221q108 0 170.5 56.5t98.5 197.5h71l-18 -336q-152 4 -428 4q-277 0 -461 -4v76l578 850h-131q-111 0 -174 -21t-96 -64.5t-54 -127.5z" />
    <glyph glyph-name="Zcaron.sc" unicode="&#xe03c;" horiz-adv-x="1024" 
d="M170 709h-70l9 295q185 -5 432 -5q207 0 417 5v-64l-565 -862h221q108 0 170.5 56.5t98.5 197.5h71l-18 -336q-152 4 -428 4q-277 0 -461 -4v76l578 850h-131q-111 0 -174 -21t-96 -64.5t-54 -127.5zM772 1421l-205 -338h-127l-202 338h67l199 -194l203 194h65z" />
    <glyph glyph-name="germandbls.sc" unicode="&#xe03f;" horiz-adv-x="1818" 
d="M700 1022h82l11 -303h-80q-54 124 -119 177.5t-162 53.5q-60 0 -96.5 -32t-36.5 -84q0 -45 30 -79t78 -57t105.5 -45t115.5 -51.5t106 -67t78 -100t30 -143.5q0 -143 -108 -233.5t-298 -90.5q-149 0 -270 90l-23 -65h-75v338h73q22 -118 100.5 -193.5t190.5 -75.5
q78 0 125 39t47 103q0 34 -18 61.5t-49 47t-70.5 37t-83.5 35.5t-88 38t-83.5 48t-70.5 63t-49 86t-18 114q0 130 99 214.5t257 84.5q133 0 246 -82zM1610 1022h82l10 -303h-80q-54 124 -119 177.5t-162 53.5q-60 0 -96.5 -32t-36.5 -84q0 -45 30 -79t78 -57t106 -45
t115.5 -51.5t105.5 -67t78 -100t30 -143.5q0 -144 -107.5 -234t-297.5 -90q-150 0 -271 90l-22 -65h-76v338h74q23 -118 100.5 -193.5t189.5 -75.5q78 0 125 39t47 103q0 34 -18 61.5t-49 47t-70.5 37t-83.5 35.5t-88 38t-83.5 48t-70.5 63t-49 86t-18 114q0 130 99 214.5
t257 84.5q133 0 246 -82z" />
    <glyph glyph-name="zero.taboldstyle" unicode="&#xf643;" horiz-adv-x="1138" 
d="M86 449q0 204 129.5 339.5t353.5 135.5t354 -135.5t130 -339.5t-130 -340t-354 -136t-353.5 136t-129.5 340zM393 449q0 -207 40 -300.5t136 -93.5t136 93.5t40 300.5t-40 300t-136 93t-136 -93t-40 -300z" />
    <glyph glyph-name="one.taboldstyle" unicode="&#xf644;" horiz-adv-x="1138" 
d="M246 811v74h63q228 0 365 30h61v-704q0 -48 5 -72t26 -41.5t56.5 -22.5t101.5 -5v-74q-136 4 -334 4q-204 0 -344 -4v74q54 1 87.5 6t55 14t31.5 28.5t13 41.5t3 61v463q0 35 -3.5 53.5t-12 33.5t-32.5 22t-54 11t-88 7z" />
    <glyph glyph-name="two.taboldstyle" unicode="&#xf645;" horiz-adv-x="1138" 
d="M954 238l-67 -359h-76q8 58 8 72q0 26 -12.5 37.5t-52.5 11.5q-359 0 -617 -4q16 55 53.5 109.5t84 100t99.5 91.5t102.5 90.5t89.5 89.5t64.5 96t24.5 103q0 68 -39.5 117t-109.5 49q-72 0 -115 -43.5t-43 -104.5q0 -92 76 -92q10 0 19 3t12 3q8 0 8 -12
q0 -40 -43 -74.5t-111 -34.5q-77 0 -119.5 50.5t-42.5 119.5q0 112 109 189.5t293 77.5q194 0 304 -72.5t110 -202.5q0 -73 -39 -126.5t-102.5 -87.5t-130.5 -60.5t-139 -62t-112 -74.5q220 -5 277 -5q32 0 237 5z" />
    <glyph glyph-name="three.taboldstyle" unicode="&#xf646;" horiz-adv-x="1138" 
d="M698 -74q0 142 -43 218.5t-116 76.5q-26 0 -48 -15t-38 -36.5t-31.5 -42.5t-36.5 -36t-45 -15q-25 0 -41 18t-16 41q0 16 4.5 28t18 24t24.5 19.5t39.5 24.5t46.5 29q120 78 176.5 167.5t56.5 201.5q0 88 -46 140t-120 52t-117.5 -39t-43.5 -104q0 -88 77 -88
q25 0 47.5 8t24.5 8q14 0 14 -22q0 -62 -45 -110t-127 -48q-79 0 -127.5 49.5t-48.5 128.5q0 134 118 227t306 93q174 0 273.5 -72.5t99.5 -194.5q0 -103 -73.5 -189.5t-184.5 -131.5q-34 -13 -46 -19.5t-12 -13.5q0 -12 15 -12q3 0 22 2t41 2q129 0 222.5 -91.5
t93.5 -244.5q0 -129 -76 -238.5t-205.5 -173t-279.5 -63.5q-157 0 -261 56.5t-104 150.5q0 55 32.5 90t82.5 35q47 0 78.5 -26t48 -62.5t32.5 -73t44 -62.5t71 -26q98 0 160.5 90.5t62.5 269.5z" />
    <glyph glyph-name="four.taboldstyle" unicode="&#xf647;" horiz-adv-x="1138" 
d="M723 952h149v-837h209v-115h-209v-246q0 -27 1 -45.5t6 -34t9 -25t18 -17t24 -11t36 -6.5t45 -4t60 -2v-74q-9 0 -135 2t-215 2q-75 0 -204 -2t-146 -2v74q45 1 73.5 3t53.5 9t37.5 17.5t22 30.5t12.5 45.5t3 64.5v221h-534v131zM141 115h432v512h-4z" />
    <glyph glyph-name="five.taboldstyle" unicode="&#xf648;" horiz-adv-x="1138" 
d="M334 616l-15 -331q108 108 293 108q84 0 157 -26t129.5 -75t89 -126.5t32.5 -173.5q0 -218 -158 -363t-401 -145q-185 0 -278 60t-93 149q0 49 31.5 83t85.5 34q39 0 67.5 -18t43 -45t31 -59t31.5 -59t44 -45t70 -18q89 0 154 95.5t65 291.5q0 145 -53 226t-156 81
q-85 0 -129.5 -37t-44.5 -92q0 -12 1 -32.5t1 -28.5q0 -56 -66 -56q-28 0 -44.5 15.5t-16.5 42.5q0 51 4 145l31 707h73q57 -43 128.5 -64.5t179.5 -21.5q206 0 280 100h57q-37 -182 -157 -262t-318 -80q-102 0 -149 20z" />
    <glyph glyph-name="six.taboldstyle" unicode="&#xf649;" horiz-adv-x="1138" 
d="M651 901q176 0 289 -119.5t113 -314.5q0 -208 -139 -351t-353 -143q-221 0 -349 175.5t-128 474.5q0 372 157 581t435 209q139 0 226 -54.5t87 -141.5q0 -46 -34 -79.5t-85 -33.5q-47 0 -77.5 23.5t-45 57t-28.5 66.5t-41 56.5t-70 23.5q-61 0 -102 -39t-62.5 -114.5
t-30.5 -159t-12 -199.5q110 82 250 82zM745 434q0 136 -21.5 215.5t-56.5 108t-92 28.5q-51 0 -101.5 -29t-65.5 -65q-17 -39 -17 -203q0 -168 21 -266t56 -133t91 -35q97 0 141.5 86t44.5 293z" />
    <glyph glyph-name="seven.taboldstyle" unicode="&#xf64a;" horiz-adv-x="1138" 
d="M104 446l121 592h74q-8 -66 -8 -90q0 -31 13 -41t50 -10h674v-66q-286 -600 -344 -1044q-6 -45 -10 -72t-12 -63.5t-17 -57.5t-23 -45t-31.5 -36t-42.5 -20.5t-56 -8.5q-68 0 -106 39.5t-38 103.5q0 76 55 207t121 246t172.5 296t159.5 279h-477q-87 0 -120.5 -37.5
t-72.5 -171.5h-82z" />
    <glyph glyph-name="eight.taboldstyle" unicode="&#xf64b;" horiz-adv-x="1138" 
d="M696 848q48 40 74.5 101t26.5 120q0 122 -65 192t-171 70q-98 0 -153.5 -55.5t-55.5 -140.5q0 -48 17 -83.5t63.5 -69.5t102.5 -62t161 -72zM1034 410q0 -196 -131 -316.5t-348 -120.5q-202 0 -325.5 103.5t-123.5 255.5q0 109 66 190t205 146q-123 73 -174 162.5
t-51 203.5q0 162 118.5 270.5t313.5 108.5q182 0 293.5 -88.5t111.5 -226.5q0 -178 -211 -289q129 -78 192.5 -172.5t63.5 -226.5zM834 297q0 108 -83 179.5t-286 150.5q-78 -56 -109.5 -125.5t-31.5 -161.5q0 -133 65.5 -209t185.5 -76q124 0 191.5 71.5t67.5 170.5z" />
    <glyph glyph-name="nine.taboldstyle" unicode="&#xf64c;" horiz-adv-x="1138" 
d="M487 -4q-176 0 -288.5 119.5t-112.5 314.5q0 208 139 351t353 143q221 0 349 -175.5t128 -474.5q0 -372 -157 -581t-435 -209q-138 0 -225.5 54.5t-87.5 142.5q0 46 33.5 79t84.5 33q47 0 77.5 -23.5t45 -56.5t28.5 -66.5t41 -57t70 -23.5q61 0 102 39t62.5 114.5
t30.5 159t12 199.5q-110 -82 -250 -82zM393 463q0 -136 21.5 -215.5t56.5 -108t92 -28.5q51 0 102 29t66 65q17 39 17 203q0 168 -21 266t-56 133t-91 35q-98 0 -142.5 -86.5t-44.5 -292.5z" />
    <glyph glyph-name="dollar.taboldstyle" unicode="&#xf653;" horiz-adv-x="1138" 
d="M522 883v387q-77 -5 -131.5 -57t-54.5 -128q0 -40 15.5 -72.5t45 -57t58 -40.5t67.5 -32zM625 512v-457q81 6 139.5 66.5t58.5 142.5q0 34 -6.5 62t-23 52t-29.5 39.5t-43 35.5t-44.5 29t-51.5 30zM522 1352v151h103v-151q51 2 115 -14t124 -45t101 -78.5t41 -106.5
q0 -44 -30 -77.5t-73 -33.5q-88 0 -115 115q-11 43 -20 66t-26.5 47t-45.5 34t-71 11v-432q9 -5 28 -15q42 -23 63.5 -34.5t59.5 -34t58.5 -38t51.5 -40.5t48 -46t38 -51t31 -59.5t17.5 -67t7.5 -77.5q0 -184 -108 -281.5t-295 -120.5v-284h-103v284q-49 4 -95.5 11
t-106.5 24.5t-104 42.5t-74.5 67.5t-30.5 96.5q0 47 31 81t77 34q57 0 84.5 -37.5t42.5 -102.5q13 -59 27 -78q12 -17 33 -30q43 -27 116 -27v502l-143 80q-57 32 -97 62.5t-73.5 71.5t-50.5 92t-17 114q0 164 108.5 265t272.5 110z" />
    <glyph glyph-name="cent.taboldstyle" unicode="&#xf654;" horiz-adv-x="1138" 
d="M598 223l-113 10l-102 -262h-82l109 283q-263 111 -263 420q0 137 66.5 245t178 166t247.5 58l106 -8l93 233h86l-101 -254q66 -19 112 -63t46 -105q0 -46 -33.5 -79t-79.5 -33q-39 0 -71.5 26.5t-48.5 65.5l-201 -537q45 -51 137 -51q78 0 129.5 33t110.5 104l67 -55
q-57 -97 -164 -147t-229 -50zM489 461l211 559q-29 37 -88 37q-37 0 -66 -18.5t-46.5 -51t-29.5 -68.5t-17 -80t-7 -76t-2 -65q0 -154 45 -237z" />
    <glyph glyph-name="breve.sc" unicode="&#xf6f4;" horiz-adv-x="819" 
d="M625 1370h49q-6 -112 -79 -186t-185 -74q-114 0 -194 73.5t-81 186.5h47q35 -119 221 -119q182 0 222 119z" />
    <glyph glyph-name="caron.sc" unicode="&#xf6f5;" horiz-adv-x="819" 
d="M670 1421l-205 -338h-127l-203 338h68l198 -194l203 194h66z" />
    <glyph glyph-name="circumflex.sc" unicode="&#xf6f6;" horiz-adv-x="819" 
d="M670 1083h-66l-203 193l-198 -193h-68l203 338h127z" />
    <glyph glyph-name="dotaccent.sc" unicode="&#xf6f7;" horiz-adv-x="491" 
d="M244 1141q-46 0 -77.5 32t-31.5 78q0 48 34 78.5t81 30.5q42 0 73 -32.5t31 -74.5q0 -46 -31.5 -79t-78.5 -33z" />
    <glyph glyph-name="hungarumlaut.sc" unicode="&#xf6f8;" horiz-adv-x="1064" 
d="M471 1022l229 250q3 3 17.5 18.5t21 23t21 20.5t25 19t24 11.5t25.5 5.5q32 0 54.5 -23.5t22.5 -56.5q0 -39 -80 -86l-49 -33l-245 -149h-66zM135 1022l230 250q4 4 17.5 19t21 22.5t21 20t24 19t24 12t25.5 5.5q32 0 54.5 -23.5t22.5 -56.5q0 -39 -79 -86l-50 -33
l-245 -149h-66z" />
    <glyph glyph-name="lslash.sc" unicode="&#xf6f9;" horiz-adv-x="1138" 
d="M209 221v141l-143 -75v102l143 76v313q0 99 -22 129.5t-85 30.5h-36v66q157 -5 292 -5t293 5v-66h-37q-63 0 -84.5 -30.5t-21.5 -129.5v-153l258 137v-103l-258 -137v-272q0 -96 41 -134t160 -38q129 0 195 58.5t102 195.5h65l-16 -336q-47 0 -285 2t-412 2
q-166 0 -292 -4v65h36q63 0 85 30.5t22 129.5z" />
    <glyph glyph-name="oe.sc" unicode="&#xf6fa;" horiz-adv-x="1705" 
d="M1599 1004v-287h-65q-33 118 -90.5 159.5t-204.5 41.5q-80 0 -98.5 -9t-18.5 -43v-305h49q138 0 158 162h66v-393h-66q-21 149 -158 149h-49v-225q0 -96 39.5 -134t153.5 -38q66 0 109.5 13t73 46t47.5 76t36 115h66v-336q-26 0 -239.5 2t-397.5 2q-16 0 -181 -6
q-110 -8 -182 -8q-155 0 -275.5 40t-195 111t-113 163t-38.5 200t38.5 200t113 163t195 111t275.5 40q17 0 182 -6q124 -9 181 -9q185 0 373.5 2.5t215.5 2.5zM823 252v496q0 103 -43.5 143.5t-146.5 40.5q-285 0 -285 -432t285 -432q103 0 146.5 40.5t43.5 143.5z" />
    <glyph glyph-name="ogonek.sc" unicode="&#xf6fb;" horiz-adv-x="655" 
d="M424 -4l-72 -47q-28 -19 -42 -30.5t-30 -34.5t-16 -48q0 -29 25.5 -53.5t54.5 -24.5q59 0 125 80l49 -51q-31 -49 -89.5 -81t-117.5 -32q-67 0 -123.5 35.5t-56.5 97.5q0 42 31 78t81 58.5t93 36t84 20.5z" />
    <glyph glyph-name="ring.sc" unicode="&#xf6fc;" horiz-adv-x="696" 
d="M344 1047q-86 0 -147.5 59.5t-61.5 144.5q0 87 63.5 145t151.5 58q86 0 145.5 -62t59.5 -149q0 -83 -63.5 -139.5t-147.5 -56.5zM344 1128q48 0 83.5 35t35.5 84t-31 88t-80 39q-52 0 -89.5 -34t-37.5 -85q0 -52 34 -89.5t85 -37.5z" />
    <glyph glyph-name="scaron.sc" unicode="&#xf6fd;" horiz-adv-x="909" 
d="M700 1022h82l11 -303h-80q-54 124 -119 177.5t-162 53.5q-60 0 -96.5 -32t-36.5 -84q0 -45 30 -79t78 -57t105.5 -45t115.5 -51.5t106 -67t78 -100t30 -143.5q0 -143 -108 -233.5t-298 -90.5q-149 0 -270 90l-23 -65h-75v338h73q22 -118 100.5 -193.5t190.5 -75.5
q78 0 125 39t47 103q0 34 -18 61.5t-49 47t-70.5 37t-83.5 35.5t-88 38t-83.5 48t-70.5 63t-49 86t-18 114q0 130 99 214.5t257 84.5q133 0 246 -82zM715 1421l-205 -338h-127l-203 338h68l198 -194l203 194h66z" />
    <glyph glyph-name="tilde.sc" unicode="&#xf6fe;" horiz-adv-x="819" 
d="M182 1143l-47 6q10 71 64 136t123 65q45 0 116 -31q3 -1 23 -9.5t28 -11.5t24 -8.5t29 -7.5t25 -2q29 0 52.5 21.5t31.5 50.5l49 -6q-12 -77 -60 -138t-120 -61q-37 0 -110 31q-8 3 -29 10.5t-34.5 11.5t-31.5 8t-32 4q-36 0 -63.5 -18.5t-37.5 -50.5z" />
    <glyph glyph-name="zcaron.sc" unicode="&#xf6ff;" horiz-adv-x="1024" 
d="M170 709h-70l9 295q185 -5 432 -5q207 0 417 5v-64l-565 -862h221q108 0 170.5 56.5t98.5 197.5h71l-18 -336q-152 4 -428 4q-277 0 -461 -4v76l578 850h-131q-111 0 -174 -21t-96 -64.5t-54 -127.5zM772 1421l-205 -338h-127l-202 338h67l199 -194l203 194h65z" />
    <glyph glyph-name="exclam.sc" unicode="&#xf721;" horiz-adv-x="737" 
d="M412 432h-82q0 260 -51 457l-39 153q-27 95 -27 154q0 72 44 130t112 58q71 0 114 -57.5t43 -130.5q0 -70 -24 -154l-39 -153q-51 -197 -51 -457zM369 -14q-69 0 -117.5 49.5t-48.5 118.5t48.5 116t117.5 47q68 0 117 -46.5t49 -114.5q0 -70 -48 -120t-118 -50z" />
    <glyph glyph-name="ampersand.sc" unicode="&#xf726;" horiz-adv-x="1638" 
d="M659 877l25 -35q113 113 113 272q0 69 -38 122.5t-104 53.5q-55 0 -90 -42t-35 -97q0 -47 23 -102t43.5 -85t62.5 -87zM735 774l260 -315l127 188q134 203 308 203q76 0 129 -49.5t53 -124.5q0 -64 -44 -113t-108 -49q-57 0 -95 32.5t-42 88.5q0 23 -7 34t-28 11
q-5 0 -10.5 -1.5t-9.5 -3.5t-9.5 -6t-8.5 -6.5t-8.5 -8.5t-7.5 -9t-7.5 -10t-6.5 -9t-6 -9.5t-6 -8.5l-145 -219q45 -49 78 -81.5t79 -70t92 -56.5t91 -19q22 0 41 4.5t38 17t28.5 20t32 28.5t30.5 28l61 -57l-2 -4q-92 -103 -131 -137q-109 -88 -244 -89q-66 0 -119.5 13
t-103 44t-83.5 60t-89 82q-202 -199 -444 -199q-125 0 -224.5 78t-99.5 199q0 74 30 140.5t84.5 121.5t107 93.5t122.5 80.5q-58 95 -88.5 176t-30.5 170q0 152 101 252t254 100q119 0 210 -72.5t91 -189.5q0 -113 -64 -195t-176 -153zM795 236l-308 376q-41 -40 -63 -65
t-43 -67.5t-21 -86.5q0 -96 70.5 -175t165.5 -79q98 0 199 97z" />
    <glyph glyph-name="question.sc" unicode="&#xf73f;" horiz-adv-x="819" 
d="M223 416v409q117 -6 129 -6q264 0 264 162q0 78 -49.5 137.5t-126.5 59.5q-37 0 -107.5 -15.5t-107.5 -15.5q-56 0 -99.5 28.5t-43.5 81.5q0 57 49.5 84t112.5 27q126 0 240 -69t183.5 -183t69.5 -239q0 -145 -100.5 -220t-249.5 -75q-13 0 -41 1t-41 1v-168h-82z
M274 -14q-69 0 -117 49.5t-48 118.5t48 116t117 47q68 0 117 -46.5t49 -114.5q0 -70 -48 -120t-118 -50z" />
    <glyph glyph-name="grave.sc" unicode="&#xf760;" horiz-adv-x="696" 
d="M575 1083h-65l-246 150l-49 33q-80 47 -80 86q0 32 23 56t55 24q15 0 29.5 -6t31 -20t25.5 -22t26.5 -28t20.5 -23z" />
    <glyph glyph-name="a.sc" unicode="&#xf761;" 
d="M707 279h-355l-22 -62q-21 -51 -21 -86q0 -36 26.5 -51.5t106.5 -18.5v-65q-14 0 -78.5 2t-115.5 2t-116 -2t-79 -2v65q68 9 108 51t83 140l344 772h98l344 -803q36 -87 67.5 -118.5t98.5 -41.5v-65q-3 0 -96.5 2t-190.5 2t-190 -2t-96 -2v65h51q78 0 78 48q0 23 -19 86z
M541 713l-154 -353h289z" />
    <glyph glyph-name="b.sc" unicode="&#xf762;" horiz-adv-x="1138" 
d="M190 221v557q0 99 -21.5 129.5t-84.5 30.5h-37v66q158 -5 293 -5q58 0 163.5 2.5t149.5 2.5q181 0 270 -66.5t89 -173.5q0 -74 -45.5 -128t-114.5 -81.5t-160 -38.5v-4q190 -20 283.5 -80.5t93.5 -181.5t-99 -187.5t-304 -66.5q-45 0 -153.5 2t-172.5 2q-167 0 -293 -4
v65h37q63 0 84.5 30.5t21.5 129.5zM489 469v-279q0 -112 129 -112q72 0 112 51t40 131q0 94 -53.5 151.5t-165.5 57.5h-62zM489 872v-321h62q86 0 132 51.5t46 140.5q0 88 -49.5 133.5t-130.5 45.5q-39 0 -49.5 -10.5t-10.5 -39.5z" />
    <glyph glyph-name="c.sc" unicode="&#xf763;" horiz-adv-x="1138" 
d="M920 930l24 84h82l10 -340h-82q-13 49 -33 91t-52 81t-81 61.5t-110 22.5q-285 0 -285 -436q0 -205 78 -308.5t203 -103.5q65 0 117.5 24t87 64.5t56 87t32.5 98.5h90v-356h-90l-33 88q-64 -50 -157 -85.5t-204 -35.5q-103 0 -194 36t-160 102t-109 166.5t-40 222.5
q0 240 147.5 389t374.5 149q163 0 328 -102z" />
    <glyph glyph-name="d.sc" unicode="&#xf764;" 
d="M209 221v557q0 99 -22 129.5t-85 30.5h-36v66q157 -5 292 -5q39 0 126.5 2.5t133.5 2.5q129 0 237.5 -40t181 -108.5t113 -161t40.5 -196.5q0 -101 -35 -191.5t-99.5 -160t-165.5 -110t-224 -40.5q-34 0 -137 2t-171 2q-166 0 -292 -4v65h36q63 0 85 30.5t22 129.5z
M508 858v-612q0 -97 33 -132.5t108 -35.5q217 0 217 420q0 220 -64 322t-206 102q-54 0 -71 -12t-17 -52z" />
    <glyph glyph-name="e.sc" unicode="&#xf765;" horiz-adv-x="1138" 
d="M780 723v-393h-65q-21 149 -158 149h-49v-229q0 -96 39.5 -134t152.5 -38q128 0 190 58t97 196h66v-336q-46 0 -283.5 2t-411.5 2q-166 0 -292 -4v65h36q63 0 85 30.5t22 129.5v557q0 99 -22 129.5t-85 30.5h-36v66q157 -5 292 -5q192 0 399.5 2.5t248.5 2.5v-287h-66
q-23 81 -52.5 122t-91 62t-171.5 21q-80 0 -98.5 -9t-18.5 -43v-309h49q138 0 158 162h65z" />
    <glyph glyph-name="f.sc" unicode="&#xf766;" horiz-adv-x="1024" 
d="M762 723v-393h-66q-21 149 -157 149h-50v-258q0 -99 22 -129.5t85 -30.5h37v-65q-126 4 -293 4t-293 -4v65h37q63 0 84.5 30.5t21.5 129.5v557q0 99 -21.5 129.5t-84.5 30.5h-37v66q158 -5 293 -5q192 0 399 2.5t248 2.5v-287h-65q-17 61 -36.5 97t-54.5 62t-88.5 36
t-136.5 10q-80 0 -98.5 -9t-18.5 -43v-309h50q137 0 157 162h66z" />
    <glyph glyph-name="g.sc" unicode="&#xf767;" 
d="M1221 426v-66h-17q-63 0 -84.5 -30t-21.5 -129q0 -42 6 -123q-95 -12 -186 -40.5t-166 -49.5t-154 -21q-251 0 -398 143.5t-147 383.5t147.5 389t374.5 149q163 0 328 -102l25 84h82l10 -340h-82q-13 49 -33 91t-52 81t-81 61.5t-110 22.5q-285 0 -285 -436
q0 -424 262 -424q180 0 180 168q0 78 -29.5 100t-101.5 22v66q164 -4 275 -4q172 0 258 4z" />
    <glyph glyph-name="h.sc" unicode="&#xf768;" horiz-adv-x="1366" 
d="M489 561h385v217q0 99 -21.5 129.5t-84.5 30.5h-37v66q157 -5 293 -5t293 5v-66h-37q-63 0 -84.5 -30.5t-21.5 -129.5v-557q0 -99 21.5 -129.5t84.5 -30.5h37v-65q-126 4 -293 4t-293 -4v65h37q63 0 84.5 30.5t21.5 129.5v258h-385v-258q0 -99 22 -129.5t85 -30.5h37v-65
q-126 4 -293 4t-293 -4v65h37q63 0 84.5 30.5t21.5 129.5v557q0 99 -21.5 129.5t-84.5 30.5h-37v66q158 -5 293 -5q136 0 293 5v-66h-37q-63 0 -85 -30.5t-22 -129.5v-217z" />
    <glyph glyph-name="i.sc" unicode="&#xf769;" horiz-adv-x="681" 
d="M489 778v-557q0 -99 22 -129.5t85 -30.5h37v-65q-126 4 -293 4t-293 -4v65h37q63 0 84.5 30.5t21.5 129.5v557q0 99 -21.5 129.5t-84.5 30.5h-37v66q158 -5 293 -5q136 0 293 5v-66h-37q-63 0 -85 -30.5t-22 -129.5z" />
    <glyph glyph-name="j.sc" unicode="&#xf76a;" horiz-adv-x="681" 
d="M645 1004v-66h-37q-63 0 -84.5 -30.5t-21.5 -129.5v-811q0 -250 -101.5 -360.5t-326.5 -110.5q-143 0 -226.5 53t-83.5 132q0 51 31.5 81.5t85.5 30.5q44 0 73 -24.5t52 -75.5q4 -10 13.5 -33t13 -30t11.5 -21t15 -18t18 -8.5t25 -4.5q52 0 76.5 66.5t24.5 220.5v913
q0 99 -22 129.5t-85 30.5h-37v66q158 -5 293 -5q136 0 293 5z" />
    <glyph glyph-name="k.sc" unicode="&#xf76b;" 
d="M489 778v-297l226 230q102 102 102 159q0 39 -25 53.5t-81 14.5v66q118 -5 213 -5q102 0 209 5v-66q-61 -4 -112 -40.5t-128 -119.5l-115 -125l361 -491q42 -59 64 -79.5t50 -21.5v-65q-140 4 -260 4q-146 0 -272 -4v65h20q78 0 78 50q0 25 -15.5 51.5t-62.5 89.5
l-157 209l-95 -94v-146q0 -99 22 -129.5t85 -30.5h12v-65q-78 4 -268 4q-167 0 -293 -4v65h37q63 0 84.5 30.5t21.5 129.5v557q0 99 -21.5 129.5t-84.5 30.5h-37v66q158 -5 293 -5q170 0 268 5v-66h-12q-63 0 -85 -30.5t-22 -129.5z" />
    <glyph glyph-name="l.sc" unicode="&#xf76c;" horiz-adv-x="1138" 
d="M209 221v557q0 99 -22 129.5t-85 30.5h-36v66q157 -5 292 -5t293 5v-66h-37q-63 0 -84.5 -30.5t-21.5 -129.5v-528q0 -96 41 -134t160 -38q129 0 195 58.5t102 195.5h65l-16 -336q-47 0 -285 2t-412 2q-166 0 -292 -4v65h36q63 0 85 30.5t22 129.5z" />
    <glyph glyph-name="m.sc" unicode="&#xf76d;" horiz-adv-x="1478" 
d="M752 367l262 637q122 -5 209 -5q57 0 215 5v-66h-37q-63 0 -85 -30.5t-22 -129.5v-557q0 -99 22 -129.5t85 -30.5h37v-65q-126 4 -271 4q-200 0 -282 -4v65q73 0 102 31.5t29 128.5v553h-4l-326 -774h-78l-332 786h-4v-522q0 -86 17 -131t46 -58.5t85 -13.5v-65
q-86 4 -193 4q-100 0 -178 -4v65q70 0 101.5 44t31.5 159v514q0 99 -21.5 129.5t-84.5 30.5h-37v66q157 -5 213 -5q80 0 223 5z" />
    <glyph glyph-name="n.sc" unicode="&#xf76e;" 
d="M1055 -33h-90l-678 776v-479q0 -86 16.5 -131t46 -58.5t84.5 -13.5v-65q-86 4 -192 4q-89 0 -191 -4v65q79 0 112.5 44t33.5 159v578q-61 96 -146 96v66q147 -5 191 -5q55 0 182 5l541 -623v354q0 86 -17 131t-46 58.5t-85 13.5v66q107 -5 193 -5q62 0 190 5v-66
q-79 0 -112 -43.5t-33 -159.5v-768z" />
    <glyph glyph-name="o.sc" unicode="&#xf76f;" 
d="M61 494q0 241 153.5 389.5t410.5 148.5q256 0 409.5 -146.5t153.5 -379.5q0 -241 -153 -390t-410 -149q-256 0 -410 147t-154 380zM385 494q0 -445 240 -445q239 0 239 457q0 444 -239 444q-240 0 -240 -456z" />
    <glyph glyph-name="p.sc" unicode="&#xf770;" horiz-adv-x="1138" 
d="M508 866v-329h70q196 0 196 200q0 96 -49 140.5t-145 44.5q-44 0 -58 -12.5t-14 -43.5zM508 463v-242q0 -99 21.5 -129.5t84.5 -30.5h37v-65q-126 4 -293 4q-166 0 -292 -4v65h36q63 0 85 30.5t22 129.5v557q0 99 -22 129.5t-85 30.5h-36v66q157 -5 292 -5q68 0 318 5
q116 2 203.5 -25t140.5 -90t53 -156q0 -278 -440 -278q-43 0 -125 8z" />
    <glyph glyph-name="q.sc" unicode="&#xf771;" 
d="M557 -90l96 55l-4 4q-4 -2 -24 -2q-256 0 -410 147t-154 380q0 241 153.5 389.5t410.5 148.5q256 0 409.5 -146.5t153.5 -379.5q0 -194 -100.5 -330t-278.5 -182q-106 -60 -174 -107l4 -4q70 11 156 11q135 0 282 -60q2 -1 21.5 -9.5t23 -10t20.5 -8.5t22 -8.5t20 -7
t21.5 -7t19.5 -5t22 -4.5t20.5 -2t22.5 -1q48 0 82.5 15.5t49 34.5t27.5 34.5t24 15.5q24 0 24 -33q0 -23 -8 -56.5t-30 -77t-53 -79.5t-83.5 -61t-116.5 -25q-61 0 -119 22t-91.5 45.5t-86.5 67.5q-45 38 -63 52.5t-57.5 40t-77 35.5t-80.5 10q-54 0 -100.5 -16t-72 -34.5
t-52.5 -34.5t-46 -16q-41 0 -41 43q0 25 25.5 42.5t93 49.5t119.5 64zM385 494q0 -445 240 -445q239 0 239 457q0 444 -239 444q-240 0 -240 -456z" />
    <glyph glyph-name="r.sc" unicode="&#xf772;" 
d="M508 864v-332q36 -4 70 -4q192 0 192 197q0 107 -48.5 152t-150.5 45q-39 0 -51 -11.5t-12 -46.5zM508 446v-225q0 -99 21.5 -129.5t84.5 -30.5h37v-65q-126 4 -293 4q-166 0 -292 -4v65h36q63 0 85 30.5t22 129.5v557q0 99 -22 129.5t-85 30.5h-36v66q157 -5 292 -5
q55 0 162 2.5t160 2.5q195 0 292 -65t97 -181q0 -201 -231 -248l282 -367q35 -48 56 -64.5t49 -17.5v-65q-78 4 -156 4q-88 0 -170 -4l-317 450h-74z" />
    <glyph glyph-name="s.sc" unicode="&#xf773;" horiz-adv-x="909" 
d="M700 1022h82l11 -303h-80q-54 124 -119 177.5t-162 53.5q-60 0 -96.5 -32t-36.5 -84q0 -45 30 -79t78 -57t105.5 -45t115.5 -51.5t106 -67t78 -100t30 -143.5q0 -143 -108 -233.5t-298 -90.5q-149 0 -270 90l-23 -65h-75v338h73q22 -118 100.5 -193.5t190.5 -75.5
q78 0 125 39t47 103q0 34 -18 61.5t-49 47t-70.5 37t-83.5 35.5t-88 38t-83.5 48t-70.5 63t-49 86t-18 114q0 130 99 214.5t257 84.5q133 0 246 -82z" />
    <glyph glyph-name="t.sc" unicode="&#xf774;" horiz-adv-x="1138" 
d="M719 872v-651q0 -99 21.5 -129.5t84.5 -30.5h37v-65q-126 4 -293 4t-293 -4v65h37q63 0 85 30.5t22 129.5v651q0 29 -10.5 39.5t-47.5 10.5q-58 -1 -98.5 -17t-66.5 -48t-41 -69t-27 -92h-82l14 308q430 -5 508 -5t508 5l15 -308h-82q-24 112 -74 168.5t-160 57.5
q-36 0 -46.5 -10t-10.5 -40z" />
    <glyph glyph-name="u.sc" unicode="&#xf775;" 
d="M1206 1004v-66q-38 0 -61.5 -7t-42.5 -28.5t-27 -62t-8 -105.5v-299q0 -246 -101.5 -357.5t-332.5 -111.5q-237 0 -343 98t-106 330v383q0 99 -21.5 129.5t-84.5 30.5h-33v66q147 -5 289 -5q136 0 293 5v-66h-37q-63 0 -85 -30.5t-22 -129.5v-424q0 -150 51.5 -211
t176.5 -61q138 0 202 78t64 237v338q0 115 -33.5 159t-112.5 44v66q127 -5 191 -5q96 0 184 5z" />
    <glyph glyph-name="v.sc" unicode="&#xf776;" 
d="M57 938v66q152 -5 285 -5q172 0 289 5v-66h-43q-82 0 -82 -61q0 -28 39 -129l168 -437l180 426q37 84 37 131q0 38 -24.5 54t-80.5 16h-32v66q137 -5 213 -5q60 0 188 5v-66q-66 -1 -98.5 -28.5t-71.5 -112.5l-377 -830h-82l-350 842q-32 78 -63 103.5t-95 25.5z" />
    <glyph glyph-name="w.sc" unicode="&#xf777;" horiz-adv-x="1593" 
d="M39 938v66q170 -5 270 -5q147 0 275 5v-66h-33q-96 0 -96 -59q0 -27 43 -144l131 -358h4l211 627h82l237 -629h4l117 338q35 101 35 147q0 44 -30.5 61t-90.5 17v66q123 -5 188 -5q53 0 166 5v-66q-62 -4 -90 -37t-71 -151l-293 -783h-76l-223 619h-4l-224 -619h-75
l-312 828q-33 86 -58.5 111.5t-86.5 31.5z" />
    <glyph glyph-name="x.sc" unicode="&#xf778;" 
d="M43 938v66q175 -5 285 -5q125 0 290 5v-66h-63q-57 0 -57 -41q0 -33 51 -96l121 -152l98 117q66 78 66 121q0 51 -66 51h-41v66q138 -5 213 -5q106 0 199 5v-66q-74 -4 -114 -29.5t-114 -111.5l-186 -215l344 -430q72 -91 139 -91v-65q-106 4 -278 4q-216 0 -322 -4v65
h37q74 0 74 50q0 19 -10 36.5t-37 53.5l-135 174l-117 -135q-58 -68 -58 -113q0 -66 109 -66v-65q-118 4 -217 4q-77 0 -191 -4v65q48 0 93.5 32t109.5 106l217 250l-288 380q-51 66 -78 85t-74 24z" />
    <glyph glyph-name="y.sc" unicode="&#xf779;" horiz-adv-x="1138" 
d="M39 938v66q185 -5 276 -5q151 0 263 5v-66h-41q-43 0 -60.5 -12t-17.5 -39q0 -36 43 -107l162 -278l135 213q63 98 63 155q0 40 -27.5 54t-89.5 14v66q152 -5 193 -5q14 0 162 5v-66q-48 -3 -71.5 -26.5t-82.5 -121.5q-2 -2 -3 -3.5t-2.5 -4t-2.5 -4.5l-219 -364v-193
q0 -99 21.5 -129.5t84.5 -30.5h37v-65q-126 4 -293 4t-293 -4v65h37q63 0 85 30.5t22 129.5v162l-240 428q-47 82 -68 101.5t-73 25.5z" />
    <glyph glyph-name="z.sc" unicode="&#xf77a;" horiz-adv-x="1024" 
d="M170 709h-70l9 295q185 -5 432 -5q207 0 417 5v-64l-565 -862h221q108 0 170.5 56.5t98.5 197.5h71l-18 -336q-152 4 -428 4q-277 0 -461 -4v76l578 850h-131q-111 0 -174 -21t-96 -64.5t-54 -127.5z" />
    <glyph glyph-name="exclamdown.sc" unicode="&#xf7a1;" horiz-adv-x="737" 
d="M332 451h82q0 -268 49 -457l39 -154q26 -91 26 -153q0 -72 -43 -130.5t-110 -58.5q-71 0 -115.5 58t-44.5 131q0 59 27 153l39 154q51 197 51 457zM369 559q-69 0 -117.5 49.5t-48.5 118.5t48.5 116.5t117.5 47.5q68 0 117 -47t49 -115q0 -70 -48 -120t-118 -50z" />
    <glyph glyph-name="dieresis.sc" unicode="&#xf7a8;" horiz-adv-x="819" 
d="M580 1141q-46 0 -77.5 32t-31.5 78q0 48 34 78.5t81 30.5q42 0 73 -32.5t31 -74.5q0 -46 -31.5 -79t-78.5 -33zM244 1141q-46 0 -77.5 32t-31.5 78q0 48 34 78.5t81 30.5q42 0 73 -32.5t31 -74.5q0 -46 -31.5 -79t-78.5 -33z" />
    <glyph glyph-name="macron.sc" unicode="&#xf7af;" horiz-adv-x="1024" 
d="M877 1190h-742v123h742v-123z" />
    <glyph glyph-name="acute.sc" unicode="&#xf7b4;" horiz-adv-x="696" 
d="M135 1083l230 250q3 3 20.5 23t26.5 28t25.5 22t31 20t29.5 6q32 0 54.5 -23.5t22.5 -56.5q0 -39 -79 -86l-50 -33l-245 -150h-66z" />
    <glyph glyph-name="cedilla.sc" unicode="&#xf7b8;" horiz-adv-x="614" 
d="M309 0l-14 -113l37 2q68 0 114 -28.5t46 -91.5q0 -61 -53 -97.5t-117 -36.5q-31 0 -65.5 9t-63.5 32.5t-29 55.5q0 17 13 30t30 13q19 0 31 -13t17.5 -29t23 -29t47.5 -13q28 0 48.5 20.5t20.5 48.5q0 39 -36 58.5t-78 19.5q-10 0 -32 -3t-32 -3l23 168h69z" />
    <glyph glyph-name="questiondown.sc" unicode="&#xf7bf;" horiz-adv-x="819" 
d="M596 467v-410q-117 6 -129 6q-264 0 -264 -161q0 -78 49.5 -137.5t126.5 -59.5q37 0 107.5 15.5t107.5 15.5q56 0 99.5 -29t43.5 -82q0 -57 -49.5 -83.5t-112.5 -26.5q-126 0 -240 69t-183.5 183t-69.5 239q0 145 100.5 220t249.5 75q14 0 41 -1t41 -1v168h82zM539 559
q-69 0 -117.5 49.5t-48.5 118.5t48.5 116.5t117.5 47.5q68 0 117 -47t49 -115q0 -70 -48 -120t-118 -50z" />
    <glyph glyph-name="agrave.sc" unicode="&#xf7e0;" 
d="M707 279h-355l-22 -62q-21 -51 -21 -86q0 -36 26.5 -51.5t106.5 -18.5v-65q-14 0 -78.5 2t-115.5 2t-116 -2t-79 -2v65q68 9 108 51t83 140l344 772h98l344 -803q36 -87 67.5 -118.5t98.5 -41.5v-65q-3 0 -96.5 2t-190.5 2t-190 -2t-96 -2v65h51q78 0 78 48q0 23 -19 86z
M541 713l-154 -353h289zM854 1083h-66l-245 150l-49 33q-80 47 -80 86q0 32 23 56t55 24q15 0 29.5 -6t31 -20t25.5 -22t26.5 -28t20.5 -23z" />
    <glyph glyph-name="aacute.sc" unicode="&#xf7e1;" 
d="M707 279h-355l-22 -62q-21 -51 -21 -86q0 -36 26.5 -51.5t106.5 -18.5v-65q-14 0 -78.5 2t-115.5 2t-116 -2t-79 -2v65q68 9 108 51t83 140l344 772h98l344 -803q36 -87 67.5 -118.5t98.5 -41.5v-65q-3 0 -96.5 2t-190.5 2t-190 -2t-96 -2v65h51q78 0 78 48q0 23 -19 86z
M541 713l-154 -353h289zM414 1083l229 250q3 3 20.5 23t26.5 28t25.5 22t31 20t29.5 6q32 0 55 -24t23 -56q0 -39 -80 -86l-49 -33l-246 -150h-65z" />
    <glyph glyph-name="acircumflex.sc" unicode="&#xf7e2;" 
d="M707 279h-355l-22 -62q-21 -51 -21 -86q0 -36 26.5 -51.5t106.5 -18.5v-65q-14 0 -78.5 2t-115.5 2t-116 -2t-79 -2v65q68 9 108 51t83 140l344 772h98l344 -803q36 -87 67.5 -118.5t98.5 -41.5v-65q-3 0 -96.5 2t-190.5 2t-190 -2t-96 -2v65h51q78 0 78 48q0 23 -19 86z
M541 713l-154 -353h289zM887 1083h-66l-203 193l-198 -193h-68l203 338h127z" />
    <glyph glyph-name="atilde.sc" unicode="&#xf7e3;" 
d="M707 279h-355l-22 -62q-21 -51 -21 -86q0 -36 26.5 -51.5t106.5 -18.5v-65q-14 0 -78.5 2t-115.5 2t-116 -2t-79 -2v65q68 9 108 51t83 140l344 772h98l344 -803q36 -87 67.5 -118.5t98.5 -41.5v-65q-3 0 -96.5 2t-190.5 2t-190 -2t-96 -2v65h51q78 0 78 48q0 23 -19 86z
M541 713l-154 -353h289zM399 1143l-47 6q10 71 64 136t123 65q45 0 116 -31q3 -1 23 -9.5t28 -11.5t24 -8.5t29 -7.5t25 -2q29 0 52.5 21.5t31.5 50.5l50 -6q-12 -77 -60.5 -138t-120.5 -61q-37 0 -110 31q-8 3 -29 10.5t-34.5 11.5t-31.5 8t-32 4q-36 0 -63.5 -18.5
t-37.5 -50.5z" />
    <glyph glyph-name="adieresis.sc" unicode="&#xf7e4;" 
d="M707 279h-355l-22 -62q-21 -51 -21 -86q0 -36 26.5 -51.5t106.5 -18.5v-65q-14 0 -78.5 2t-115.5 2t-116 -2t-79 -2v65q68 9 108 51t83 140l344 772h98l344 -803q36 -87 67.5 -118.5t98.5 -41.5v-65q-3 0 -96.5 2t-190.5 2t-190 -2t-96 -2v65h51q78 0 78 48q0 23 -19 86z
M541 713l-154 -353h289zM797 1141q-46 0 -77.5 32t-31.5 78q0 48 34 78.5t81 30.5q42 0 73 -32.5t31 -74.5q0 -46 -31.5 -79t-78.5 -33zM461 1141q-46 0 -77.5 32t-31.5 78q0 48 34 78.5t81 30.5q42 0 73 -32.5t31 -74.5q0 -46 -31.5 -79t-78.5 -33z" />
    <glyph glyph-name="aring.sc" unicode="&#xf7e5;" 
d="M707 279h-355l-22 -62q-21 -51 -21 -86q0 -36 26.5 -51.5t106.5 -18.5v-65q-14 0 -78.5 2t-115.5 2t-116 -2t-79 -2v65q68 9 108 51t83 140l344 772h98l344 -803q36 -87 67.5 -118.5t98.5 -41.5v-65q-3 0 -96.5 2t-190.5 2t-190 -2t-96 -2v65h51q78 0 78 48q0 23 -19 86z
M541 713l-154 -353h289zM623 1047q-86 0 -147.5 59.5t-61.5 144.5q0 87 63.5 145t151.5 58q86 0 145.5 -62t59.5 -149q0 -83 -63.5 -139.5t-147.5 -56.5zM623 1128q48 0 83 35t35 84t-30.5 88t-79.5 39q-52 0 -89.5 -34t-37.5 -85q0 -52 34 -89.5t85 -37.5z" />
    <glyph glyph-name="ae.sc" unicode="&#xf7e6;" horiz-adv-x="1593" 
d="M664 397h-299l-86 -168q-37 -72 -37 -106q0 -62 104 -62v-65q-37 2 -166 2q-125 0 -170 -2v65q28 1 46 7.5t39 33.5t28.5 39.5t37.5 69.5q2 3 3 5t3 5t3 6l266 498q64 121 71 146q3 12 3 22q0 23 -19.5 34t-72.5 11h-47v66q278 -5 288 -5q161 0 459 2.5t342 2.5v-287h-65
q-17 61 -36.5 97t-54.5 62t-88.5 36t-136.5 10q-56 0 -80 -4.5t-30 -14t-6 -33.5v-309h49q137 0 157 162h66v-393h-66q-21 149 -157 149h-49v-229q0 -96 39.5 -134t152.5 -38q128 0 190 58t97 196h65v-336q-46 0 -283 2t-411 2q-167 0 -293 -4v65h37q63 0 85 30.5t22 129.5
v176zM406 479h258v443h-25z" />
    <glyph glyph-name="ccedilla.sc" unicode="&#xf7e7;" horiz-adv-x="1138" 
d="M1057 356v-356h-90l-33 88q-64 -50 -157 -85.5t-204 -35.5h-6l-10 -80l37 2q68 0 114 -28.5t46 -91.5q0 -61 -53 -97.5t-117 -36.5q-31 0 -65.5 9t-63.5 32.5t-29 55.5q0 17 13 30t30 13q19 0 31 -13t17.5 -29t23 -29t47.5 -13q28 0 48.5 20.5t20.5 48.5q0 39 -36 58.5
t-78 19.5q-10 0 -32 -3t-32 -3l19 141q-187 24 -307.5 162.5t-120.5 358.5q0 240 147.5 389t374.5 149q163 0 328 -102l24 84h82l10 -340h-82q-13 49 -33 91t-52 81t-81 61.5t-110 22.5q-285 0 -285 -436q0 -205 78 -308.5t203 -103.5q65 0 117.5 24t87 64.5t56 87
t32.5 98.5h90z" />
    <glyph glyph-name="egrave.sc" unicode="&#xf7e8;" horiz-adv-x="1138" 
d="M780 723v-393h-65q-21 149 -158 149h-49v-229q0 -96 39.5 -134t152.5 -38q128 0 190 58t97 196h66v-336q-46 0 -283.5 2t-411.5 2q-166 0 -292 -4v65h36q63 0 85 30.5t22 129.5v557q0 99 -22 129.5t-85 30.5h-36v66q157 -5 292 -5q192 0 399.5 2.5t248.5 2.5v-287h-66
q-23 81 -52.5 122t-91 62t-171.5 21q-80 0 -98.5 -9t-18.5 -43v-309h49q138 0 158 162h65zM797 1083h-66l-246 150l-49 33q-80 47 -80 86q0 32 23 56t55 24q15 0 29.5 -6t31 -20t25.5 -22t26.5 -28t20.5 -23z" />
    <glyph glyph-name="eacute.sc" unicode="&#xf7e9;" horiz-adv-x="1138" 
d="M780 723v-393h-65q-21 149 -158 149h-49v-229q0 -96 39.5 -134t152.5 -38q128 0 190 58t97 196h66v-336q-46 0 -283.5 2t-411.5 2q-166 0 -292 -4v65h36q63 0 85 30.5t22 129.5v557q0 99 -22 129.5t-85 30.5h-36v66q157 -5 292 -5q192 0 399.5 2.5t248.5 2.5v-287h-66
q-23 81 -52.5 122t-91 62t-171.5 21q-80 0 -98.5 -9t-18.5 -43v-309h49q138 0 158 162h65zM356 1083l230 250q3 3 20.5 23t26.5 28t25.5 22t31 20t29.5 6q32 0 55 -24t23 -56q0 -39 -80 -86l-49 -33l-246 -150h-66z" />
    <glyph glyph-name="ecircumflex.sc" unicode="&#xf7ea;" horiz-adv-x="1138" 
d="M780 723v-393h-65q-21 149 -158 149h-49v-229q0 -96 39.5 -134t152.5 -38q128 0 190 58t97 196h66v-336q-46 0 -283.5 2t-411.5 2q-166 0 -292 -4v65h36q63 0 85 30.5t22 129.5v557q0 99 -22 129.5t-85 30.5h-36v66q157 -5 292 -5q192 0 399.5 2.5t248.5 2.5v-287h-66
q-23 81 -52.5 122t-91 62t-171.5 21q-80 0 -98.5 -9t-18.5 -43v-309h49q138 0 158 162h65zM829 1083h-65l-203 193l-199 -193h-67l203 338h127z" />
    <glyph glyph-name="edieresis.sc" unicode="&#xf7eb;" horiz-adv-x="1138" 
d="M780 723v-393h-65q-21 149 -158 149h-49v-229q0 -96 39.5 -134t152.5 -38q128 0 190 58t97 196h66v-336q-46 0 -283.5 2t-411.5 2q-166 0 -292 -4v65h36q63 0 85 30.5t22 129.5v557q0 99 -22 129.5t-85 30.5h-36v66q157 -5 292 -5q192 0 399.5 2.5t248.5 2.5v-287h-66
q-23 81 -52.5 122t-91 62t-171.5 21q-80 0 -98.5 -9t-18.5 -43v-309h49q138 0 158 162h65zM739 1141q-46 0 -77 32t-31 78q0 48 33.5 78.5t80.5 30.5q42 0 73.5 -32.5t31.5 -74.5q0 -46 -32 -79t-79 -33zM403 1141q-46 0 -77 32t-31 78q0 48 34 78.5t81 30.5q42 0 73 -32.5
t31 -74.5q0 -46 -32 -79t-79 -33z" />
    <glyph glyph-name="igrave.sc" unicode="&#xf7ec;" horiz-adv-x="681" 
d="M489 778v-557q0 -99 22 -129.5t85 -30.5h37v-65q-126 4 -293 4t-293 -4v65h37q63 0 84.5 30.5t21.5 129.5v557q0 99 -21.5 129.5t-84.5 30.5h-37v66q158 -5 293 -5q136 0 293 5v-66h-37q-63 0 -85 -30.5t-22 -129.5zM543 1083h-66l-246 150l-49 33q-80 47 -80 86
q0 32 23 56t55 24q15 0 29.5 -6t31 -20t25.5 -22t26.5 -28t20.5 -23z" />
    <glyph glyph-name="iacute.sc" unicode="&#xf7ed;" horiz-adv-x="681" 
d="M489 778v-557q0 -99 22 -129.5t85 -30.5h37v-65q-126 4 -293 4t-293 -4v65h37q63 0 84.5 30.5t21.5 129.5v557q0 99 -21.5 129.5t-84.5 30.5h-37v66q158 -5 293 -5q136 0 293 5v-66h-37q-63 0 -85 -30.5t-22 -129.5zM154 1083l229 250q3 3 20.5 23t26.5 28t25.5 22t31 20
t29.5 6q32 0 55 -24t23 -56q0 -39 -80 -86l-49 -33l-246 -150h-65z" />
    <glyph glyph-name="icircumflex.sc" unicode="&#xf7ee;" horiz-adv-x="681" 
d="M489 778v-557q0 -99 22 -129.5t85 -30.5h37v-65q-126 4 -293 4t-293 -4v65h37q63 0 84.5 30.5t21.5 129.5v557q0 99 -21.5 129.5t-84.5 30.5h-37v66q158 -5 293 -5q136 0 293 5v-66h-37q-63 0 -85 -30.5t-22 -129.5zM602 1083h-65l-203 193l-199 -193h-67l202 338h127z
" />
    <glyph glyph-name="idieresis.sc" unicode="&#xf7ef;" horiz-adv-x="681" 
d="M489 778v-557q0 -99 22 -129.5t85 -30.5h37v-65q-126 4 -293 4t-293 -4v65h37q63 0 84.5 30.5t21.5 129.5v557q0 99 -21.5 129.5t-84.5 30.5h-37v66q158 -5 293 -5q136 0 293 5v-66h-37q-63 0 -85 -30.5t-22 -129.5zM512 1141q-46 0 -77.5 32t-31.5 78q0 48 34 78.5
t81 30.5q42 0 73.5 -32.5t31.5 -74.5q0 -46 -32 -79t-79 -33zM176 1141q-46 0 -77 32t-31 78q0 48 33.5 78.5t80.5 30.5q42 0 73.5 -32.5t31.5 -74.5q0 -46 -32 -79t-79 -33z" />
    <glyph glyph-name="eth.sc" unicode="&#xf7f0;" 
d="M209 221v271h-164v81h164v205q0 99 -22 129.5t-85 30.5h-36v66q157 -5 292 -5q39 0 126.5 2.5t133.5 2.5q129 0 237.5 -40t181 -108.5t113 -161t40.5 -196.5q0 -101 -35 -191.5t-99.5 -160t-165.5 -110t-224 -40.5q-34 0 -137 2t-171 2q-166 0 -292 -4v65h36
q63 0 85 30.5t22 129.5zM717 573v-81h-209v-246q0 -97 33 -132.5t108 -35.5q217 0 217 420q0 220 -64 322t-206 102q-54 0 -71 -12t-17 -52v-285h209z" />
    <glyph glyph-name="ntilde.sc" unicode="&#xf7f1;" 
d="M1055 -33h-90l-678 776v-479q0 -86 16.5 -131t46 -58.5t84.5 -13.5v-65q-86 4 -192 4q-89 0 -191 -4v65q79 0 112.5 44t33.5 159v578q-61 96 -146 96v66q147 -5 191 -5q55 0 182 5l541 -623v354q0 86 -17 131t-46 58.5t-85 13.5v66q107 -5 193 -5q62 0 190 5v-66
q-79 0 -112 -43.5t-33 -159.5v-768zM399 1143l-47 6q10 71 64 136t123 65q45 0 116 -31q3 -1 23 -9.5t28 -11.5t24 -8.5t29 -7.5t25 -2q29 0 52.5 21.5t31.5 50.5l50 -6q-12 -77 -60.5 -138t-120.5 -61q-37 0 -110 31q-8 3 -29 10.5t-34.5 11.5t-31.5 8t-32 4
q-36 0 -63.5 -18.5t-37.5 -50.5z" />
    <glyph glyph-name="ograve.sc" unicode="&#xf7f2;" 
d="M61 494q0 241 153.5 389.5t410.5 148.5q256 0 409.5 -146.5t153.5 -379.5q0 -241 -153 -390t-410 -149q-256 0 -410 147t-154 380zM385 494q0 -445 240 -445q239 0 239 457q0 444 -239 444q-240 0 -240 -456zM854 1083h-66l-245 150l-49 33q-80 47 -80 86q0 32 23 56
t55 24q15 0 29.5 -6t31 -20t25.5 -22t26.5 -28t20.5 -23z" />
    <glyph glyph-name="oacute.sc" unicode="&#xf7f3;" 
d="M61 494q0 241 153.5 389.5t410.5 148.5q256 0 409.5 -146.5t153.5 -379.5q0 -241 -153 -390t-410 -149q-256 0 -410 147t-154 380zM385 494q0 -445 240 -445q239 0 239 457q0 444 -239 444q-240 0 -240 -456zM414 1083l229 250q3 3 20.5 23t26.5 28t25.5 22t31 20t29.5 6
q32 0 55 -24t23 -56q0 -39 -80 -86l-49 -33l-246 -150h-65z" />
    <glyph glyph-name="ocircumflex.sc" unicode="&#xf7f4;" 
d="M61 494q0 241 153.5 389.5t410.5 148.5q256 0 409.5 -146.5t153.5 -379.5q0 -241 -153 -390t-410 -149q-256 0 -410 147t-154 380zM385 494q0 -445 240 -445q239 0 239 457q0 444 -239 444q-240 0 -240 -456zM887 1083h-66l-203 193l-198 -193h-68l203 338h127z" />
    <glyph glyph-name="otilde.sc" unicode="&#xf7f5;" 
d="M61 494q0 241 153.5 389.5t410.5 148.5q256 0 409.5 -146.5t153.5 -379.5q0 -241 -153 -390t-410 -149q-256 0 -410 147t-154 380zM385 494q0 -445 240 -445q239 0 239 457q0 444 -239 444q-240 0 -240 -456zM399 1143l-47 6q10 71 64 136t123 65q45 0 116 -31
q3 -1 23 -9.5t28 -11.5t24 -8.5t29 -7.5t25 -2q29 0 52.5 21.5t31.5 50.5l50 -6q-12 -77 -60.5 -138t-120.5 -61q-37 0 -110 31q-8 3 -29 10.5t-34.5 11.5t-31.5 8t-32 4q-36 0 -63.5 -18.5t-37.5 -50.5z" />
    <glyph glyph-name="odieresis.sc" unicode="&#xf7f6;" 
d="M61 494q0 241 153.5 389.5t410.5 148.5q256 0 409.5 -146.5t153.5 -379.5q0 -241 -153 -390t-410 -149q-256 0 -410 147t-154 380zM385 494q0 -445 240 -445q239 0 239 457q0 444 -239 444q-240 0 -240 -456zM797 1141q-46 0 -77.5 32t-31.5 78q0 48 34 78.5t81 30.5
q42 0 73 -32.5t31 -74.5q0 -46 -31.5 -79t-78.5 -33zM461 1141q-46 0 -77.5 32t-31.5 78q0 48 34 78.5t81 30.5q42 0 73 -32.5t31 -74.5q0 -46 -31.5 -79t-78.5 -33z" />
    <glyph glyph-name="oslash.sc" unicode="&#xf7f8;" 
d="M412 256l374 608q-58 86 -161 86q-240 0 -240 -456q0 -139 27 -238zM829 776l-380 -616q57 -111 176 -111q239 0 239 457q0 172 -35 270zM229 -197h-98l158 256q-109 69 -168.5 182t-59.5 253q0 241 153.5 389.5t410.5 148.5q136 0 239 -41l127 205h99l-150 -242
q119 -66 183.5 -182.5t64.5 -265.5q0 -241 -153 -390t-410 -149q-151 0 -263 53z" />
    <glyph glyph-name="ugrave.sc" unicode="&#xf7f9;" 
d="M1206 1004v-66q-38 0 -61.5 -7t-42.5 -28.5t-27 -62t-8 -105.5v-299q0 -246 -101.5 -357.5t-332.5 -111.5q-237 0 -343 98t-106 330v383q0 99 -21.5 129.5t-84.5 30.5h-33v66q147 -5 289 -5q136 0 293 5v-66h-37q-63 0 -85 -30.5t-22 -129.5v-424q0 -150 51.5 -211
t176.5 -61q138 0 202 78t64 237v338q0 115 -33.5 159t-112.5 44v66q127 -5 191 -5q96 0 184 5zM854 1083h-66l-245 150l-49 33q-80 47 -80 86q0 32 23 56t55 24q15 0 29.5 -6t31 -20t25.5 -22t26.5 -28t20.5 -23z" />
    <glyph glyph-name="uacute.sc" unicode="&#xf7fa;" 
d="M1206 1004v-66q-38 0 -61.5 -7t-42.5 -28.5t-27 -62t-8 -105.5v-299q0 -246 -101.5 -357.5t-332.5 -111.5q-237 0 -343 98t-106 330v383q0 99 -21.5 129.5t-84.5 30.5h-33v66q147 -5 289 -5q136 0 293 5v-66h-37q-63 0 -85 -30.5t-22 -129.5v-424q0 -150 51.5 -211
t176.5 -61q138 0 202 78t64 237v338q0 115 -33.5 159t-112.5 44v66q127 -5 191 -5q96 0 184 5zM414 1083l229 250q3 3 20.5 23t26.5 28t25.5 22t31 20t29.5 6q32 0 55 -24t23 -56q0 -39 -80 -86l-49 -33l-246 -150h-65z" />
    <glyph glyph-name="ucircumflex.sc" unicode="&#xf7fb;" 
d="M1206 1004v-66q-38 0 -61.5 -7t-42.5 -28.5t-27 -62t-8 -105.5v-299q0 -246 -101.5 -357.5t-332.5 -111.5q-237 0 -343 98t-106 330v383q0 99 -21.5 129.5t-84.5 30.5h-33v66q147 -5 289 -5q136 0 293 5v-66h-37q-63 0 -85 -30.5t-22 -129.5v-424q0 -150 51.5 -211
t176.5 -61q138 0 202 78t64 237v338q0 115 -33.5 159t-112.5 44v66q127 -5 191 -5q96 0 184 5zM887 1083h-66l-203 193l-198 -193h-68l203 338h127z" />
    <glyph glyph-name="udieresis.sc" unicode="&#xf7fc;" 
d="M1206 1004v-66q-38 0 -61.5 -7t-42.5 -28.5t-27 -62t-8 -105.5v-299q0 -246 -101.5 -357.5t-332.5 -111.5q-237 0 -343 98t-106 330v383q0 99 -21.5 129.5t-84.5 30.5h-33v66q147 -5 289 -5q136 0 293 5v-66h-37q-63 0 -85 -30.5t-22 -129.5v-424q0 -150 51.5 -211
t176.5 -61q138 0 202 78t64 237v338q0 115 -33.5 159t-112.5 44v66q127 -5 191 -5q96 0 184 5zM797 1141q-46 0 -77.5 32t-31.5 78q0 48 34 78.5t81 30.5q42 0 73 -32.5t31 -74.5q0 -46 -31.5 -79t-78.5 -33zM461 1141q-46 0 -77.5 32t-31.5 78q0 48 34 78.5t81 30.5
q42 0 73 -32.5t31 -74.5q0 -46 -31.5 -79t-78.5 -33z" />
    <glyph glyph-name="yacute.sc" unicode="&#xf7fd;" horiz-adv-x="1138" 
d="M39 938v66q185 -5 276 -5q151 0 263 5v-66h-41q-43 0 -60.5 -12t-17.5 -39q0 -36 43 -107l162 -278l135 213q63 98 63 155q0 40 -27.5 54t-89.5 14v66q152 -5 193 -5q14 0 162 5v-66q-48 -3 -71.5 -26.5t-82.5 -121.5q-2 -2 -3 -3.5t-2.5 -4t-2.5 -4.5l-219 -364v-193
q0 -99 21.5 -129.5t84.5 -30.5h37v-65q-126 4 -293 4t-293 -4v65h37q63 0 85 30.5t22 129.5v162l-240 428q-47 82 -68 101.5t-73 25.5zM356 1083l230 250q3 3 20.5 23t26.5 28t25.5 22t31 20t29.5 6q32 0 55 -24t23 -56q0 -39 -80 -86l-49 -33l-246 -150h-66z" />
    <glyph glyph-name="thorn.sc" unicode="&#xf7fe;" horiz-adv-x="1138" 
d="M508 662v-330h70q196 0 196 200q0 96 -49 140.5t-145 44.5q-44 0 -58 -12t-14 -43zM508 258v-37q0 -99 21.5 -129.5t84.5 -30.5h37v-65q-126 4 -293 4q-166 0 -292 -4v65h36q63 0 85 30.5t22 129.5v557q0 99 -22 129.5t-85 30.5h-36v66q157 -5 292 -5t293 5v-66h-37
q-63 0 -84.5 -27.5t-21.5 -115.5q30 0 156 4q191 3 300 -64t109 -207q0 -278 -440 -278q-43 0 -125 8z" />
    <glyph glyph-name="ydieresis.sc" unicode="&#xf7ff;" horiz-adv-x="1138" 
d="M39 938v66q185 -5 276 -5q151 0 263 5v-66h-41q-43 0 -60.5 -12t-17.5 -39q0 -36 43 -107l162 -278l135 213q63 98 63 155q0 40 -27.5 54t-89.5 14v66q152 -5 193 -5q14 0 162 5v-66q-48 -3 -71.5 -26.5t-82.5 -121.5q-2 -2 -3 -3.5t-2.5 -4t-2.5 -4.5l-219 -364v-193
q0 -99 21.5 -129.5t84.5 -30.5h37v-65q-126 4 -293 4t-293 -4v65h37q63 0 85 30.5t22 129.5v162l-240 428q-47 82 -68 101.5t-73 25.5zM739 1141q-46 0 -77 32t-31 78q0 48 33.5 78.5t80.5 30.5q42 0 73.5 -32.5t31.5 -74.5q0 -46 -32 -79t-79 -33zM403 1141q-46 0 -77 32
t-31 78q0 48 34 78.5t81 30.5q42 0 73 -32.5t31 -74.5q0 -46 -32 -79t-79 -33z" />
    <glyph glyph-name="fi" unicode="&#xfb01;" horiz-adv-x="1269" 
d="M184 846v186q0 74 19 131.5t55.5 95t81 63t104 39t116.5 18.5t126 5q163 0 239 -20q134 -35 134 -133q0 -52 -28.5 -83.5t-80.5 -31.5q-82 0 -119 98q-27 54 -62.5 71.5t-109.5 17.5q-120 0 -163 -51t-43 -175v-231h221q189 0 411 55v-649q0 -127 25 -154q29 -32 109 -37
v-65q-43 1 -128 4t-128 4q-46 -1 -137.5 -4t-137.5 -4v65q86 6 109 37q20 27 20 154v397q0 64 -22 89.5t-66 25.5h-276v-512q0 -102 9 -128q14 -44 73 -56q27 -5 65 -7v-65q-58 1 -173.5 4t-172.5 4q-36 -1 -108.5 -4t-108.5 -4v65q22 1 40 2.5t32 6t24.5 7.5t18.5 12
t13.5 14.5t9 19.5t5.5 21.5t3 27.5t1 30.5v36.5v13v512h-137v82h137z" />
    <glyph glyph-name="fl" unicode="&#xfb02;" horiz-adv-x="1187" 
d="M143 846v98q0 179 78 268q61 69 165 106.5t206 37.5q49 0 162 -17l290 45v-1132v-3v-52t2 -40.5t5.5 -33t11 -22.5t17 -18t26 -10t36 -8t48.5 -4v-65q-46 1 -137.5 4t-137.5 4q-46 -1 -138 -4t-138 -4v65q26 1 45.5 4t34 8t24.5 12.5t16.5 17.5t10 23t5 28.5t1.5 33.5v40
v24v907q-43 57 -87 86t-105 29q-28 0 -51.5 -6.5t-40.5 -17.5t-30 -27t-21.5 -34.5t-14.5 -40t-8.5 -44.5t-4.5 -46.5t-1.5 -47t0.5 -45.5v-23v-90h225v-88h-225v-512v-25v-46t2.5 -35.5t7 -30.5t13.5 -21.5t23 -17.5t34 -9.5t47 -5.5v-65q-47 1 -136 4t-131 4
q-46 -1 -138 -4t-138 -4v65q22 1 40 2.5t32 6t24.5 7.5t18.5 12t13.5 14.5t9 19.5t5.5 21.5t3 27.5t1 30.5v36.5v13v512h-137v82h137z" />
    <glyph glyph-name="one.superior" horiz-adv-x="638" 
d="M408 1384v-651q0 -90 18 -115q6 -7 15 -12t22.5 -7t23 -3t25 -1.5t20.5 -0.5v-43q-35 0 -110 2t-115 2q-34 0 -99.5 -2t-98.5 -2v43q82 0 100 20q22 22 22 109v459q0 48 -12 63q-20 25 -113 25v45q88 9 149.5 23t121.5 46h31z" />
    <glyph glyph-name="two.superior" horiz-adv-x="638" 
d="M426 883l-129 -95q-7 -6 -32.5 -25.5t-39.5 -32.5t-24 -28h264l143 7l-49 -228h-45q0 31 2 45q1 13 -6.5 19t-15.5 7t-23 1h-442q60 110 166 225l63 72q76 83 114 152t38 157q0 42 -10.5 79t-41 67t-77.5 30q-49 0 -79 -36.5t-30 -84.5q0 -32 20.5 -59t53.5 -27
q15 0 32 7.5t21 7.5q12 0 12 -19q0 -38 -39.5 -66t-81.5 -28q-64 0 -104.5 42t-40.5 102q0 66 44 115.5t107 72t132 22.5q120 0 202 -63t82 -174q0 -45 -13.5 -82.5t-43.5 -70.5t-56.5 -55.5t-72.5 -55.5z" />
    </font>
</defs>
</svg>
